<ttFont>
          <CharString index="0">
            rmoveto
            4 -1 5 -1 5 2 20 7 57 40 12 11 rrcurveto
            4 2 2 -1 -1 vvcurveto
            10 -12 14 -17 15 -13 6 -5 23 -23 13 6 2 1 15 7 4 1 rrcurveto
            3 vlineto
            -8 -5 5 3 -5 hvcurveto
            -28 19 -27 29 -13 22 rrcurveto
            -12 hlineto
            -34 -30 -40 -28 -39 -26 rrcurveto
            endchar
          </CharString>
          <CharString index="1">
            -3 2 -38 -25 2 -3 8 -10 14 -11 14 -1 12 -1 14 14 12 10 10 10 -3 5 -9 -88 callgsubr
            return
          </CharString>
          <CharString index="2">
            761 -22 callgsubr
            -49 2 -34 3 -20 2 -10 -16 rcurveline
            2 7 8 0 8 hhcurveto
            53 5 -10 -41 -31 -5 -47 -14 -62 hvcurveto
            -28 -128 rlineto
            -125 -25 -88 -68 -123 hhcurveto
            -94 -45 42 82 19 2 21 5 24 hvcurveto
            48 217 4 49 26 39 36 callgsubr
            22 -38 callsubr
            -40 -2 -41 -2 rlinecurve
            -55 2 -35 3 -17 2 -11 -16 rcurveline
            2 11 65 callgsubr
            25 16 -4 -30 -30 -8 -60 -19 -87 hvcurveto
            -29 -133 rlineto
            -5 -21 -2 -19 -18 vvcurveto
            -90 57 -46 141 146 103 85 146 31 vhcurveto
            35 165 rlineto
            135 28 19 8 45 -45 callsubr
            return
          </CharString>
          <CharString index="3">
            551 439 rmoveto
            17 callgsubr
            rrcurveto
            6 -97 -98 -7 -97 hhcurveto
            -57 -136 2 -95 26 hvcurveto
            4 -17 22 -33 12 -7 5 -3 8 8 -4 2 -19 12 -1 31 14 26 28 53 132 3 57 3 -24 -6 -25 -22 -12 -19 -26 -40 -27 -49 -16 -29 -52 -92 -54 -91 -51 -92 rrcurveto
            -34 -62 23 -26 66 -6 117 -13 141 8 44 13 39 12 38 55 41 51 4 5 -5 14 -5 -7 rrcurveto
            -94 -74 -118 -31 -115 hhcurveto
            -56 1 -44 13 41 vvcurveto
            36 33 62 16 31 vhcurveto
            15 27 8 17 13 24 3 5 4 2 7 1 rrcurveto
            3 83 36 -6 83 hhcurveto
            36 27 57 -14 -23 hvcurveto
            -17 -9 -45 -3 -13 -1 rrcurveto
            -1 -41 -60 2 -46 hhcurveto
            -8 -3 3 8 3 hvcurveto
            37 64 41 75 44 62 10 13 15 6 29 2 41 2 48 1 18 -6 38 -12 -4 -47 -8 -34 -3 -12 17 7 6 11 rrcurveto
            return
          </CharString>
          <CharString index="4">
            rmoveto
            4 18 -2 15 -18 3 rrcurveto
            -3 -5 -7 -3 -5 hvcurveto
            -4 -4 -13 -7 -6 hhcurveto
            -3 -10 14 -3 11 -13 -4 -14 rlinecurve
            -5 -24 -15 -21 -19 -17 -7 -6 1 0 -1 -3 -1 -7 rcurveline
            0 6 3 6 4 vhcurveto
            32 22 29 32 8 42 rrcurveto
            endchar
          </CharString>
          <CharString index="5">
            -9 60 -10 78 -9 94 rrcurveto
            -23 -14 -40 -23 -15 vvcurveto
            -3 vlineto
            -12 -10 -22 -14 -24 vhcurveto
            -215 -355 -27 -44 -10 -8 -64 -9 rlinecurve
            -10 -16 rlineto
            3 23 29 1 35 hhcurveto
            36 29 -2 -2 20 hvcurveto
            12 16 rlineto
            -41 -21 7 13 10 26 46 53 83 hvcurveto
            4 3 3 2 3 hhcurveto
            184 hlineto
            3 2 -1 -3 hvcurveto
            -2 vlineto
            8 -78 4 -43 -9 vvcurveto
            -20 -24 -9 -40 vhcurveto
            -9 -16 rlineto
            -5 109 4 8 hhcurveto
            8 34 -1 -3 60 hvcurveto
            -158 214 rmoveto
            -2 vlineto
            -3 -2 -1 -4 vhcurveto
            -162 hlineto
            -2 -1 1 1 1 0 1 1 2 hvcurveto
            132 218 rlineto
            2 26 callsubr
            1 -1 -3 1 hvcurveto
            return
          </CharString>
          <CharString index="6">
            hstem
            942 586 rmoveto
            2 39 -65 -7 -31 -29 -79 -74 -91 -303 -53 -126 -52 130 -55 184 -9 101 11 8 34 7 14 -1 7 -1 23 32 -9 -1 rrcurveto
            -121 hlineto
            -79 -191 2 -104 36 hvcurveto
            6 -18 31 -36 17 -9 7 -3 11 9 -6 3 -27 13 -16 44 19 29 rrcurveto
            40 28 92 6 71 hhcurveto
            55 hlineto
            -48 -9 -37 -42 -20 -50 -50 -120 -40 -123 -90 -99 rrcurveto
            -40 -38 -49 -24 -46 hhcurveto
            -48 -40 46 63 hvcurveto
            8 82 callgsubr
            2 -20 6 -17 vhcurveto
            -48 19 81 callsubr
            70 27 38 31 hvcurveto
            85 100 56 161 35 92 4 12 11 33 10 7 43 -139 58 -165 26 -140 -5 -15 -6 -14 -9 -12 -2 -3 10 -4 3 4 4 6 21 23 10 4 9 4 7 4 6 4 rrcurveto
            6 5 3 6 -2 8 rrcurveto
            -1 7 -3 7 5 vvcurveto
            -3 16 3 17 9 20 42 101 129 365 83 -2 rrcurveto
            9 20 -7 -17 -1 hvcurveto
            -1 -2 10 3 1 vvcurveto
            return
          </CharString>
          <CharString index="7">
            655 273 rmoveto
            -190 hlineto
            -35 -89 12 -27 -31 hvcurveto
            -15 -13 0 -20 1 -11 1 -12 16 -22 10 -17 9 6 rcurveline
            -2 4 -3 9 9 vvcurveto
            60 -5 101 3 32 hhcurveto
            103 hlineto
            -47 -141 -105 -127 -163 1 rrcurveto
            -78 -68 45 105 103 68 129 94 83 hvcurveto
            34 29 38 23 39 14 45 17 89 14 28 -47 19 -30 -7 -59 -18 -29 -3 -6 20 5 2 6 10 29 26 29 5 21 6 28 -19 21 -30 14 rrcurveto
            15 -31 -28 3 -33 hhcurveto
            -80 -86 -33 -46 -61 hvcurveto
            -104 -79 -82 -126 -130 vvcurveto
            -113 97 -55 108 1 vhcurveto
            99 120 65 78 53 hvcurveto
            -43 -109 -29 -95 -84 -103 rrcurveto
            -72 -57 -71 -44 -84 -23 callgsubr
            1 71 callgsubr
            62 -21 51 hhcurveto
            54 72 30 36 43 hvcurveto
            119 103 21 138 41 142 16 52 12 47 29 38 rrcurveto
            19 15 25 4 19 hhcurveto
            return
          </CharString>
          <CharString index="8">
            -9 4 rlineto
            -55 -25 -33 -37 -115 hhcurveto
            -88 -9 12 16 25 11 72 25 119 hvcurveto
            22 hlineto
            30 99 7 -36 -11 -8 -13 -1 -2 hvcurveto
            17 4 rlineto
            7 38 15 27 7 vvcurveto
            3 -2 2 -4 vhcurveto
            -170 -2 23 109 19 69 14 30 rlinecurve
            1 13 22 2 29 hhcurveto
            78 24 -8 -21 -5 -4 -11 -18 -34 hvcurveto
            16 -3 18 47 rlineto
            3 23 50 2 vvcurveto
            6 -3 3 -3 vhcurveto
            -80 -76 -2 -72 hhcurveto
            return
          </CharString>
          <CharString index="9">
            313 531 15 hstem
            644 115 rmoveto
            9 12 -2 18 -9 -13 -41 -54 -100 -119 -91 110 -51 63 -36 68 -17 38 64 3 91 17 52 37 21 15 16 16 13 17 30 39 10 73 -28 44 -34 53 -100 -6 -55 -1 rrcurveto
            -47 -59 -1 -42 hhcurveto
            -57 71 callsubr
            5 -17 21 -33 13 -7 4 -31 callsubr
            -12 -23 -25 -56 -31 -55 -32 -59 -32 -59 -31 -59 rrcurveto
            -26 -48 -27 -47 -28 -47 -14 -25 -21 -18 -29 -5 -6 -4 10 -7 13 3 27 9 21 18 14 6 20 10 13 -7 12 -3 5 -2 11 -4 -4 9 -13 31 105 184 18 34 rrcurveto
            38 74 43 98 51 66 19 24 51 2 24 -3 58 -8 22 -67 -22 -64 rrcurveto
            -129 -44 -75 5 -124 hhcurveto
            -11 -19 -26 0 hvcurveto
            14 -26 31 -84 65 -87 93 -121 84 60 97 134 rrcurveto
            return
          </CharString>
          <CharString index="10">
            rmoveto
            1 -2 33 callgsubr
            6 -14 -55 3 -19 hhcurveto
            -17 -51 -1 -4 -15 hvcurveto
            -1 -2 rlineto
            -5 -1 9 -13 6 51 52 9 51 hhcurveto
            3 3 2 3 1 hvcurveto
            endchar
          </CharString>
          <CharString index="11">
            -76 callgsubr
            39 -43 1 -36 -20 -25 -17 -20 -51 -2 -22 12 -11 7 -12 9 -8 11 -9 13 -4 17 2 16 1 6 3 7 2 4 2 2 -4 5 -5 -3 rrcurveto
            -15 -12 -11 -33 4 -19 rrcurveto
            -40 9 49 -13 36 -50 callsubr
            return
          </CharString>
          <CharString index="12">
            -106 callsubr
            endchar
          </CharString>
          <CharString index="13">
            rmoveto
            7 -12 108 -63 16 -3 rrcurveto
            1 -2 7 0 hvcurveto
            -25 19 -29 24 -23 20 rrcurveto
            7 -8 -37 32 -9 hhcurveto
            -5 3 -27 -4 3 hvcurveto
            endchar
          </CharString>
          <CharString index="14">
            hstem
            524 519 rmoveto
            -30 33 -40 12 -39 -2 -53 -3 -53 -27 -30 -41 -32 -46 2 -54 25 -48 29 -54 41 -55 21 -57 37 -98 -51 -91 -108 6 -55 3 -61 29 -31 44 -22 32 -15 59 33 30 rrcurveto
            5 3 -8 10 -3 -2 -32 -24 -24 -56 10 -47 rrcurveto
            -80 19 91 -29 71 hhcurveto
            116 142 99 130 -50 hvcurveto
            -30 78 -77 56 -30 72 rrcurveto
            60 -26 39 80 92 hhcurveto
            36 25 -12 -15 16 hvcurveto
            17 -14 -3 -19 -15 vvcurveto
            -23 -13 -34 -5 -10 vhcurveto
            3 -4 13 5 3 2 3 10 18 35 12 18 8 13 3 28 -9 13 rrcurveto
            return
          </CharString>
          <CharString index="15">
            rmoveto
            19 4 -10 21 -24 hhcurveto
            -17 -20 -11 -15 -10 hvcurveto
            -21 -5 -19 -35 -3 -17 rrcurveto
            -19 -3 13 -11 20 hhcurveto
            40 44 36 37 6 hvcurveto
            -20 -2 rmoveto
            -23 -4 -26 -33 -28 hhcurveto
            -10 -2 7 8 1 hvcurveto
            5 26 20 7 12 21 -8 4 rcurveline
            5 8 9 5 9 hhcurveto
            15 1 -16 -11 -2 hvcurveto
            endchar
          </CharString>
          <CharString index="16">
            648 396 rmoveto
            108 -70 50 -160 -273 -138 -271 -137 -131 118 -27 107 228 188 197 211 vhcurveto
            -57 9 rmoveto
            -186 -162 -216 -205 -119 -45 50 84 155 182 247 178 124 47 -51 -83 vhcurveto
            return
          </CharString>
          <CharString index="17">
            290 147 rmoveto
            -26 -36 -69 -65 -59 -19 -50 -17 -45 -2 25 76 15 48 36 59 35 36 rrcurveto
            12 11 33 22 24 hhcurveto
            28 10 -46 -26 -6 hvcurveto
            34 callgsubr
            -40 -56 -67 -120 122 2 74 2 88 69 41 56 4 6 11 15 -7 7 rrcurveto
            return
          </CharString>
          <CharString index="18">
            -45 -35 2 5 -27 hvcurveto
            -10 -16 rlineto
            7 6 1 6 hhcurveto
            33 16 -7 -30 -22 -5 -38 -11 -54 hvcurveto
            3 -64 -297 -10 -22 vhcurveto
            -24 -11 -38 -16 -37 50 callgsubr
            -9 -16 rlineto
            8 143 -22 1 45 hhcurveto
            return
          </CharString>
          <CharString index="19">
            hstem
            417 593 rmoveto
            11 -3 -7 9 -14 hhcurveto
            -35 -27 -35 -13 -34 hvcurveto
            -54 -71 -87 -188 -52 -98 41 callsubr
            -76 callsubr
            42 46 rcurveline
            -19 -42 -52 -113 85 -5 39 callgsubr
            -35 callgsubr
            -89 -15 56 131 25 46 30 27 95 82 81 113 31 42 66 97 -11 44 rrcurveto
            -103 -173 rmoveto
            -61 -92 -70 -66 -41 -34 54 99 96 190 55 59 35 37 9 -22 -9 -34 -12 -48 -45 -71 -11 -18 rrcurveto
            return
          </CharString>
          <CharString index="20">
            -22 -42 -11 -22 -15 -32 -16 -31 rrcurveto
            -65 callsubr
            40 39 25 32 33 vhcurveto
            return
          </CharString>
          <CharString index="21">
            -20 hstem
            541 477 rmoveto
            52 12 -64 17 -49 hhcurveto
            -119 -47 -97 -94 -38 hvcurveto
            -92 -230 -17 -42 -51 -59 -56 -3 rlinecurve
            -23 -2 5 -32 6 6 14 13 31 12 28 -2 rrcurveto
            -5 109 142 -15 113 hhcurveto
            56 25 22 37 -13 hvcurveto
            -6 18 -36 45 -17 8 -7 4 -5 -9 6 -3 28 -13 8 -26 -19 -28 rrcurveto
            -21 -15 -100 3 -78 hhcurveto
            -187 hlineto
            18 7 30 23 35 64 185 341 rcurveline
            49 26 39 18 35 hhcurveto
            63 -1 -88 -40 -26 hvcurveto
            -6 -11 15 -1 3 10 11 32 25 19 4 21 rrcurveto
            return
          </CharString>
          <CharString index="22">
            rrcurveto
            -22 -23 -23 -17 -14 -49 callgsubr
            32 70 126 20 30 hvcurveto
            18 30 return
          </CharString>
          <CharString index="23">
            383 350 rmoveto
            9 29 -5 34 -35 16 -18 8 -25 3 -30 -1 -22 -1 rcurveline
            -26 -1 -37 -6 -13 -5 rrcurveto
            -7 -3 -11 -7 -10 vvcurveto
            -1 -13 -15 -69 -7 -23 21 11 rcurveline
            -1 4 6 26 3 10 5 18 18 25 15 9 rrcurveto
            10 15 25 6 21 hhcurveto
            57 1 24 -34 -14 -44 -20 -64 -78 -20 -44 -9 -18 -3 rcurveline
            0 -6 -8 -7 -8 vhcurveto
            71 85 -7 -91 -30 hvcurveto
            -18 -59 -46 -61 -82 -3 -23 -1 -25 5 -12 12 -10 9 -6 24 4 18 3 10 7 25 3 4 -22 -9 rcurveline
            -6 -23 -14 -46 -6 -12 -5 -10 8 -7 5 -3 24 -14 60 -2 29 2 69 5 44 27 30 37 21 26 35 75 -16 37 -11 27 -26 10 -31 3 -13 2 -18 1 27 9 rrcurveto
            60 20 42 35 14 44 rrcurveto
            endchar
          </CharString>
          <CharString index="24">
            hstem
            42 19 vstem
            475 118 rmoveto
            -11 3 -10 -22 -37 -50 -17 -8 rlinecurve
            -45 -29 -218 17 -6 vvcurveto
            1 hlineto
            -3 -2 2 2 1 1 3 3 3 hvcurveto
            46 64 37 49 25 36 137 175 rcurveline
            60 74 45 53 27 32 rrcurveto
            13 vlineto
            -4 -75 -41 -1 -8 hhcurveto
            -54 hlineto
            -49 -58 1 4 -66 hvcurveto
            -11 -12 -8 -52 -8 -40 -8 -25 rlinecurve
            21 11 rlineto
            1 0 63 44 18 vhcurveto
            9 31 112 2 74 hhcurveto
            5 3 -1 -3 -1 -1 -2 -2 -2 hvcurveto
            -33 -52 -42 -58 -52 -66 -91 -116 rcurveline
            -83 -94 -79 -99 -2 -12 3 -6 rcurveline
            3 hlineto
            7 27 28 2 32 hhcurveto
            -3 161 87 -5 13 hhcurveto
            25 7 6 30 13 hvcurveto
            17 38 14 30 12 20 rrcurveto
            return
          </CharString>
          <CharString index="25">
            662 501 rmoveto
            24 -61 -69 13 -76 hhcurveto
            -216 -162 -128 -209 -134 97 -77 160 79 20 7 64 123 hvcurveto
            4 15 rlineto
            -34 -83 -74 -17 -63 hhcurveto
            -115 -74 76 122 187 115 96 154 111 64 -40 -47 -12 -1 -16 -7 -16 hvcurveto
            11 -2 rlineto
            -1 0 1 1 33 51 87 10 hvcurveto
            return
          </CharString>
          <CharString index="26">
            415 418 rmoveto
            5 8 -7 6 -5 2 rrcurveto
            9 -17 -23 3 -24 hhcurveto
            -130 -87 -120 -113 -41 hvcurveto
            -96 -34 -14 -121 121 hhcurveto
            19 35 5 12 17 hvcurveto
            21 14 18 8 19 12 rrcurveto
            57 85 27 168 -132 hhcurveto
            -20 -32 -4 -9 -15 hvcurveto
            -16 -11 -24 -9 -21 -16 5 21 11 26 11 22 rrcurveto
            62 30 68 74 71 hhcurveto
            16 14 -3 -9 10 hvcurveto
            8 -8 5 -20 -4 -16 -3 -9 -7 -21 -2 -4 18 8 rcurveline
            5 20 13 41 6 11 rrcurveto
            -111 -232 rmoveto
            10 -46 -15 -74 -60 -33 -23 -12 -25 -3 -27 8 -62 19 0 67 30 60 13 28 23 23 27 12 56 24 44 -28 9 -45 rrcurveto
            endchar
          </CharString>
          <CharString index="27">
            332 rmoveto
            13 39 -5 41 -39 17 -18 8 -25 3 -30 -1 -22 -1 rcurveline
            -26 -1 -37 -6 -13 -5 rrcurveto
            -7 -3 -11 -7 -10 vvcurveto
            -1 -13 -15 -69 -7 -23 21 11 rcurveline
            -1 4 6 26 3 10 5 18 18 25 14 9 rrcurveto
            10 16 25 6 21 hhcurveto
            56 1 25 -34 -14 -44 -20 -64 -100 -90 -51 -48 -68 -65 -62 -55 -30 -26 rrcurveto
            72 5 34 2 0 vvcurveto
            28 2 57 -2 33 -2 32 -2 15 16 13 28 11 24 26 39 3 4 -9 3 rcurveline
            -7 -15 -33 -38 -20 -11 -31 -18 -87 2 -54 4 -9 1 -13 0 29 22 67 52 118 86 58 62 20 22 18 24 8 27 rrcurveto
            endchar
          </CharString>
          <CharString index="28">
            373 230 rmoveto
            96 35 14 120 -121 hhcurveto
            -20 -34 -5 -12 -18 hvcurveto
            -20 -13 -19 -8 -18 -13 rrcurveto
            -57 -85 -28 -167 132 hhcurveto
            20 33 4 9 15 hvcurveto
            16 10 24 10 21 15 -5 -21 -12 -25 -10 -22 rrcurveto
            -62 -31 -67 -74 -71 hhcurveto
            -16 -14 3 9 -10 hvcurveto
            -8 8 -5 20 4 15 3 10 6 21 3 3 -18 -8 rcurveline
            -5 -20 -14 -40 -5 -11 -5 -9 7 -5 4 -3 rrcurveto
            -9 18 22 -3 24 hhcurveto
            131 87 121 113 40 hvcurveto
            -45 40 rmoveto
            -24 -48 -50 -33 -51 14 -66 17 -1 68 31 62 29 57 48 25 52 -16 62 -19 0 -66 -30 -61 rrcurveto
            endchar
          </CharString>
          <CharString index="29">
            -27 -35 -64 -68 -59 -19 -96 -32 7 64 24 65 rrcurveto
            24 29 6 6 20 hvcurveto
            46 15 61 23 8 53 rrcurveto
            27 4 -7 28 -42 hhcurveto
            return
          </CharString>
          <CharString index="30">
            -61 callgsubr
            49 59 29 31 return
          </CharString>
          <CharString index="31">
            -7 -8 0 -21 9 13 return
          </CharString>
          <CharString index="32">
            -1 37 15 -1 57 hhcurveto
            21 26 rlineto
            -89 -71 -1 0 hvcurveto
            -43 -108 15 -32 -38 hvcurveto
            -18 -16 0 -25 1 -13 2 -31 callgsubr
            10 8 rcurveline
            -2 4 -9 23 -1 11 rrcurveto
            73 -6 123 4 39 hhcurveto
            24 hlineto
            60 -70 -26 -169 -21 -80 -11 -34 rcurveline
            -1 -3 -3 -6 -2 vvcurveto
            -7 -1 5 -1 6 hhcurveto
            3 10 3 4 7 hvcurveto
            -72 -50 -72 -83 -88 hhcurveto
            -48 -35 33 62 hvcurveto
            9 88 callgsubr
            -21 46 callgsubr
            19 41 -23 41 hhcurveto
            91 57 71 75 43 hvcurveto
            76 132 51 92 104 121 return
          </CharString>
          <CharString index="33">
            rmoveto
            3 4 5 19 -3 -3 -20 -17 -29 -31 -22 -9 rrcurveto
            -26 -10 -5 16 15 vvcurveto
            return
          </CharString>
          <CharString index="34">
            -115 hlineto
            -28 -25 -9 -17 -22 35 callsubr
            -10 -77 rrcurveto
            -7 vlineto
            -12 4 -10 14 35 30 23 21 25 vhcurveto
            41 35 33 32 28 46 return
          </CharString>
          <CharString index="35">
            434 2 -21 283 25 247 -20 hstem
            111 59 346 58 vstem
            676 15 rmoveto
            -13 hlineto
            -40 -30 13 22 40 76 378 25 34 hvcurveto
            13 14 18 8 21 4 4 -1 4 hhcurveto
            14 14 80 callgsubr
            -10 -16 13 callgsubr
            9 hhcurveto
            23 18 -4 -27 -31 -11 -67 -21 -100 hvcurveto
            -11 -184 -7 -33 hhcurveto
            -19 -99 8 0 hvcurveto
            239 50 11 -10 50 -38 callsubr
            -40 -2 -41 -2 rlinecurve
            -55 2 -35 3 -17 2 -11 -16 rcurveline
            2 11 74 callgsubr
            17 -5 -23 -16 -58 -357 -32 -68 hvcurveto
            -23 -11 -36 -17 -39 -5 -4 1 -4 hhcurveto
            -10 -16 rlineto
            5 78 44 3 11 hhcurveto
            68 -1 40 -3 12 -4 14 17 rcurveline
            -13 hlineto
            -42 -28 14 21 hvcurveto
            1 24 8 58 19 90 8 38 rcurveline
            2 60 42 2 19 hhcurveto
            226 hlineto
            -1 -3 -3 -8 -2 -14 -3 -17 rcurveline
            -170 -37 -1 -39 -90 -6 -5 1 -4 hhcurveto
            -11 -16 rlineto
            5 79 44 3 10 hhcurveto
            69 -1 39 83 callsubr
            return
          </CharString>
          <CharString index="36">
            -55 callsubr
            18 -25 16 -21 13 -19 -12 -63 -15 -78 -20 -78 rrcurveto
            -75 -19 -34 -35 -51 hhcurveto
            -28 -14 15 30 21 4 22 9 23 hvcurveto
            -11 3 rlineto
            -73 -21 -16 -36 -11 hhcurveto
            -3 vlineto
            -21 46 36 -2 31 hhcurveto
            93 34 50 148 30 hvcurveto
            11 52 6 51 8 51 rrcurveto
            -1 hlineto
            32 200 76 253 7 16 30 callsubr
            endchar
          </CharString>
          <CharString index="37">
            rmoveto
            15 13 -33 -13 -15 hhcurveto
            1 -68 -131 1 -9 hhcurveto
            -17 -1 -11 -39 -11 -20 rrcurveto
            0 -18 -32 -9 -17 vhcurveto
            18 3 rlineto
            5 18 17 27 0 vvcurveto
            15 8 11 10 37 hhcurveto
            18 78 0 -2 20 hvcurveto
            11 -1 7 -4 -1 -9 -4 -35 return
          </CharString>
          <CharString index="38">
            rrcurveto
            -1 -2 0 -3 -2 vvcurveto
            -12 5 -10 13 35 30 return
          </CharString>
          <CharString index="39">
            419 435 rmoveto
            -8 -112 -1 -1 -68 hvcurveto
            -15 -8 9 -17 -7 hvcurveto
            -25 -64 -7 -17 -23 -58 -21 -43 rlinecurve
            -11 -21 -3 -2 15 5 rrcurveto
            10 29 35 5 30 hhcurveto
            26 23 -8 -16 13 hvcurveto
            17 -20 -2 -34 -10 -32 -18 -59 -53 -58 -74 -3 -23 -1 -25 5 -12 12 -10 9 -6 24 4 18 3 10 7 25 3 4 -22 -9 rcurveline
            -6 -23 -14 -46 -6 -12 -5 -10 8 -7 5 -3 25 -14 59 -2 29 2 87 6 70 50 28 90 rrcurveto
            return
          </CharString>
          <CharString index="40">
            rmoveto
            7 14 -2 8 -16 -10 -16 -10 -24 -14 -12 -8 -32 -20 rcurveline
            -21 -12 -1 -5 -2 -4 -2 -6 rlinecurve
            -1 -12 16 11 12 10 12 9 12 9 4 -2 rlinecurve
            4 -2 4 -2 -14 -44 -24 -72 rcurveline
            1 vlineto
            -7 -24 -23 -68 -7 -14 -10 -20 -39 -2 -11 2 -12 -17 rcurveline
            63 5 25 1 0 vvcurveto
            19 -1 37 -2 10 -3 14 17 rcurveline
            -10 -1 -44 1 3 18 3 18 15 51 12 35 10 34 rcurveline
            19 61 13 37 16 33 rrcurveto
            return
          </CharString>
          <CharString index="41">
            348 -4 26 514 66 callgsubr
            31 11 53 14 76 hvcurveto
            20 92 rlineto
            214 43 14 7 52 4 4 -1 4 hhcurveto
            14 14 80 callgsubr
            -10 -16 13 callgsubr
            9 hhcurveto
            23 18 -4 -27 -30 -10 -58 -18 -89 hvcurveto
            -18 -87 rlineto
            -187 -39 -9 -27 -84 50 callgsubr
            -11 -16 rlineto
            5 79 44 3 10 hhcurveto
            68 -1 40 83 callsubr
            351 25 rmoveto
            -1 -4 -4 0 -4 hhcurveto
            -72 -80 78 79 -51 hvcurveto
            -49 75 -27 39 -3 5 rrcurveto
            181 215 71 41 42 hhcurveto
            10 11 -43 -4 -38 -2 -32 -2 rlinecurve
            -57 3 -32 4 -10 1 -13 -14 rcurveline
            1 7 7 0 8 hhcurveto
            28 15 -8 -16 -18 -64 -64 -169 -134 hvcurveto
            23 -39 22 -35 18 -30 69 -116 rcurveline
            -41 24 40 -21 52 hhcurveto
            23 30 4 7 37 hvcurveto
            return
          </CharString>
          <CharString index="42">
            -12 -24 -27 -51 -47 callgsubr
            return
          </CharString>
          <CharString index="43">
            -77 callsubr
            -8 -16 -41 -107 -27 -65 -7 -17 -6 -15 -6 -12 -10 return
          </CharString>
          <CharString index="44">
            35 85 4 10 -11 4 -4 -10 -13 -34 -14 -31 7 -21 return
          </CharString>
          <CharString index="45">
            2 -2 4 -1 2 vhcurveto
            -3 -3 -9 -13 -9 -10 rrcurveto
            -39 -32 return
          </CharString>
          <CharString index="46">
            rmoveto
            9 26 8 29 26 vvcurveto
            40 -17 32 -53 -14 -25 -4 -9 -12 vhcurveto
            -18 -10 -9 -4 -8 -5 -4 -4 rlinecurve
            -30 -20 -22 -41 -35 vvcurveto
            -35 19 -28 47 15 23 2 7 11 vhcurveto
            15 8 20 11 -3 -14 -6 -5 -6 -14 rlinecurve
            1 hlineto
            -3 -5 rlineto
            -42 -21 -44 -49 -47 hhcurveto
            -11 -9 2 5 -6 hvcurveto
            1 hlineto
            -5 5 -2 13 2 9 rrcurveto
            1 vlineto
            2 7 2 10 4 4 -4 6 rcurveline
            -15 -7 -3 -14 -11 -28 -3 -8 rlinecurve
            -5 -8 6 -4 3 -2 rrcurveto
            -8 15 16 -3 16 hhcurveto
            92 61 85 78 28 hvcurveto
            -37 30 rmoveto
            -16 -32 -33 -21 -34 9 rrcurveto
            -25 7 -10 17 22 vvcurveto
            16 5 17 9 17 vhcurveto
            -1 hlineto
            30 15 23 17 26 hhcurveto
            7 7 -1 -2 7 hvcurveto
            23 -7 10 -18 -22 vvcurveto
            -14 -5 -18 -9 -17 vhcurveto
            endchar
          </CharString>
          <CharString index="47">
            27 50 42 80 -43 callsubr
            return
          </CharString>
          <CharString index="48">
            vvcurveto
            -24 8 -18 42 17 vhcurveto
            39 16 39 32 16 23 rrcurveto
            return
          </CharString>
          <CharString index="49">
            15 66 -4 -8 118 hvcurveto
            -1 4 3 0 4 hhcurveto
            47 10 70 46 28 hvcurveto
            return
          </CharString>
          <CharString index="50">
            -3 callgsubr
            -66 -47 -92 -56 hvcurveto
            -30 -50 -50 -95 -22 -54 rrcurveto
            -12 hlineto
            -13 -31 -14 -14 -3 hvcurveto
            2 -1 rlineto
            1 7 8 2 7 hhcurveto
            23 hlineto
            20 callgsubr
            rrcurveto
            -34 12 37 -16 52 hhcurveto
            return
          </CharString>
          <CharString index="51">
            -11 -59 -75 8 -14 -2 rrcurveto
            -3 -6 -2 -4 hvcurveto
            -4 -1 3 -4 4 hhcurveto
            49 81 22 54 10 hvcurveto
            6 38 -41 18 31 vvcurveto
            return
          </CharString>
          <CharString index="52">
            -33 callsubr
            -10 -14 rcurveline
            2 13 98 callsubr
            29 15 -12 -23 -26 -53 -266 -28 -93 hvcurveto
            -118 141 -71 67 -117 222 rrcurveto
            -2 -22 -18 0 -17 hhcurveto
            -16 -15 0 2 -12 hvcurveto
            -10 -16 rlineto
            21 callsubr
            19 -4 -26 -32 -11 -70 -23 -107 hvcurveto
            -5 -21 -23 -80 -36 -136 rrcurveto
            -19 -5 -26 -13 -34 hhcurveto
            -11 -16 rlineto
            4 22 29 3 35 hhcurveto
            39 38 -3 -4 35 hvcurveto
            14 17 rlineto
            -1 -7 -8 0 -7 hhcurveto
            -37 -16 15 30 29 27 194 44 126 hvcurveto
            53 -76 43 -58 31 -40 109 -144 rcurveline
            return
          </CharString>
          <CharString index="53">
            rmoveto
            2 8 1 7 7 vvcurveto
            31 -24 15 -33 -46 -54 -38 -49 -14 vhcurveto
            -3 -8 -2 -9 -9 vvcurveto
            -22 12 -15 18 -13 vhcurveto
            -37 -22 -42 -29 -13 -42 rrcurveto
            -45 -13 36 -20 39 hhcurveto
            53 57 33 56 17 hvcurveto
            3 8 1 9 8 vvcurveto
            26 -17 18 -21 15 vhcurveto
            31 20 38 26 11 34 rrcurveto
            -28 6 rmoveto
            -9 -27 -33 -31 -26 -17 -19 15 -19 20 9 31 rrcurveto
            30 10 26 23 30 hhcurveto
            25 15 -18 -26 -9 hvcurveto
            -67 -184 rmoveto
            -35 -11 -31 -20 -34 hhcurveto
            -21 -10 11 18 5 1 7 2 7 hvcurveto
            11 34 29 25 32 20 rrcurveto
            hintmask 11010000
            19 -14 17 -14 -24 vvcurveto
            -6 -1 -6 -3 -8 vhcurveto
            endchar
          </CharString>
          <CharString index="54">
            rmoveto
            -8 -10 32 -2 8 9 107 121 308 328 171 117 25 4 36 50 -29 3 -47 -13 -77 -15 -56 -3 -69 -4 -74 -1 -62 18 -11 3 -9 -6 -7 -7 28 -10 7 -25 -3 -26 rrcurveto
            -7 -59 -58 -86 -53 -40 rrcurveto
            -8 -10 -17 -11 -13 hhcurveto
            -56 63 101 12 7 hvcurveto
            38 55 51 58 1 10 rrcurveto
            8 1 -11 3 -6 hhcurveto
            -22 -62 -85 -15 -9 hvcurveto
            -9 -14 -9 -15 -7 -15 rrcurveto
            -33 -16 -21 -81 65 86 callgsubr
            32 14 23 37 68 -45 15 65 -14 88 -2 106 16 -168 -117 -265 -303 -123 -155 rrcurveto
            return
          </CharString>
          <CharString index="55">
            -86 475 25 hstem
            414 545 rmoveto
            -108 hlineto
            -80 -191 2 -104 36 hvcurveto
            6 -18 31 -36 17 -9 7 -3 12 9 -7 3 -27 13 -16 44 20 29 26 38 85 9 76 2 rrcurveto
            11 19 3 1 22 hvcurveto
            -73 -29 -5 -20 -30 -67 -34 -73 -42 -111 -15 -33 -41 -93 -52 -91 -62 -68 27 callsubr
            -46 hhcurveto
            -48 -35 32 63 hvcurveto
            8 88 callgsubr
            -20 46 callgsubr
            19 41 -24 41 hhcurveto
            46 57 30 36 34 hvcurveto
            80 86 33 89 52 121 28 65 56 126 16 31 20 41 36 69 56 3 rrcurveto
            4 18 16 -1 -9 hvcurveto
            return
          </CharString>
          <CharString index="56">
            85 -4 20 228 28 156 18 hstem
            62 50 194 53 vstem
            399 434 rmoveto
            -17 9 -23 5 -39 -2 -130 -7 -87 -113 -41 -113 rrcurveto
            -96 -34 -14 -121 121 hhcurveto
            19 35 5 12 17 hvcurveto
            21 14 18 8 19 12 rrcurveto
            57 85 27 168 -132 hhcurveto
            -55 -34 -23 -29 -46 hvcurveto
            5 21 11 26 11 22 30 62 81 74 71 6 38 3 31 -6 12 -6 rrcurveto
            -113 -235 rmoveto
            10 -46 -15 -74 -63 -33 -25 -12 -26 -3 -28 8 -65 19 0 67 31 60 14 28 24 23 28 12 59 24 46 -28 10 -45 rrcurveto
            endchar
          </CharString>
          <CharString index="57">
            hhcurveto
            78 68 81 71 -53 hvcurveto
            -15 20 -35 30 -5 21 -11 51 74 27 18 -50 6 -14 1 -18 -3 -14 -3 -9 return
          </CharString>
          <CharString index="58">
            61 -148 18 hstem
            75 47 200 50 vstem
            -30 -138 rmoveto
            17 -9 23 -5 39 2 130 7 87 113 41 113 rrcurveto
            96 34 14 121 -121 hhcurveto
            -19 -35 -5 -12 -17 hvcurveto
            -21 -14 -18 -8 -19 -12 rrcurveto
            -57 -85 -27 -168 132 hhcurveto
            55 34 23 29 46 hvcurveto
            -5 -21 -11 -26 -11 -22 -30 -62 -81 -74 -71 -6 -38 -3 -31 6 -12 6 rrcurveto
            113 235 rmoveto
            -10 46 15 74 63 33 25 12 26 3 28 -8 65 -19 0 -67 -31 -60 -14 -28 -24 -23 -28 -12 -59 -24 -46 28 -10 45 rrcurveto
            endchar
          </CharString>
          <CharString index="59">
            -32 callgsubr
            9 -4 14 return
          </CharString>
          <CharString index="60">
            19 30 2 24 -43 -7 -34 -5 -60 -51 -23 -24 -47 -47 rcurveline
            15 28 22 40 8 16 13 24 9 26 -43 -7 -34 -5 -60 -51 -23 -24 -8 -9 -24 -26 -21 -25 -60 callsubr
            rrcurveto
            -41 callgsubr
            -64 callsubr
            -21 28 23 26 2 8 20 13 33 11 24 rrcurveto
            18 40 29 34 32 33 -8 callgsubr
            return
          </CharString>
          <CharString index="61">
            -16 288 20 hstem
            236 300 rmoveto
            -12 6 -22 3 -22 -1 -33 -1 -29 -9 -8 -3 rrcurveto
            -6 -2 -9 -6 -9 vvcurveto
            -18 -72 20 10 -1 4 5 17 1 7 rlinecurve
            33 12 29 11 32 hhcurveto
            61 2 -8 -72 -24 -36 -47 -71 -155 -82 21 -31 rrcurveto
            3 46 11 1 24 hhcurveto
            20 53 -3 -1 15 hvcurveto
            25 -1 5 13 10 21 9 18 16 39 2 2 -12 -1 rcurveline
            -5 -12 -13 -27 -13 -7 rrcurveto
            -18 -34 -67 10 -39 hhcurveto
            45 59 85 28 45 69 22 34 7 58 -44 17 rrcurveto
            endchar
          </CharString>
          <CharString index="62">
            4 4 -1 4 hhcurveto
            return
          </CharString>
          <CharString index="63">
            138 106 59 83 81 hhcurveto
            15 hlineto
            13 18 rlineto
            -3 -71 -36 -2 -2 hhcurveto
            -30 -17 -29 -77 -60 hvcurveto
            -44 -57 -36 -51 -29 -45 rrcurveto
            81 -18 -45 179 -13 hhcurveto
            return
          </CharString>
          <CharString index="64">
            13 15 44 callgsubr
            -37 -6 -14 -2 return
          </CharString>
          <CharString index="65">
            hhcurveto
            4 5 3 5 return
          </CharString>
          <CharString index="66">
            7 6 8 2 10 rrcurveto
            return
          </CharString>
          <CharString index="67">
            -78 -32 -79 24 -35 77 -13 53 30 63 40 42 62 66 66 7 83 25 7 2 1 10 -8 -2 -76 -23 -104 -10 -64 -69 rrcurveto
            -48 -50 -18 -75 33 -60 34 -92 110 -29 81 35 1 callgsubr
            return
          </CharString>
          <CharString index="68">
            -63 callgsubr
            -567 -499 rmoveto
            29 61 28 69 28 71 rrcurveto
            134 hlineto
            -39 -96 -29 -101 -47 -89 -31 -58 -37 -57 -62 -32 -46 -23 -54 6 -32 26 71 56 53 94 34 73 rrcurveto
            183 423 rmoveto
            38 66 29 26 36 15 43 18 52 -16 6 -34 -19 -20 -18 -24 -17 -28 -30 -50 -50 -95 -22 -54 rrcurveto
            -136 hlineto
            26 61 35 87 27 48 rrcurveto
            return
          </CharString>
          <CharString index="69">
            -45 callsubr
            14 14 -34 -4 return
          </CharString>
          <CharString index="70">
            -42 -16 17 285 16 hstem
            82 36 vstem
            203 15 rmoveto
            -7 -1 -24 -2 -13 1 -23 2 -7 5 1 8 4 39 10 57 10 49 rrcurveto
            105 22 6 8 29 hhcurveto
            21 hlineto
            9 16 -19 -2 -35 -2 -25 -1 rlinecurve
            -28 1 -40 2 -10 2 -9 -18 rcurveline
            2 8 27 1 4 hhcurveto
            11 8 -4 -10 -9 -32 -189 -19 -45 hvcurveto
            -12 -4 -16 -5 -21 hhcurveto
            -2 -10 0 1 -13 hvcurveto
            -9 -15 60 3 56 3 69 -6 rlinecurve
            endchar
          </CharString>
          <CharString index="71">
            vvcurveto
            -15 10 -4 14 return
          </CharString>
          <CharString index="72">
            hhcurveto
            -59 -44 32 62 hvcurveto
            9 return
          </CharString>
          <CharString index="73">
            -44 -90 -32 -92 -39 -95 -54 -130 -75 -130 -125 -54 rrcurveto
            5 callgsubr
            3 8 8 vvcurveto
            2 -2 0 -1 -15 61 callgsubr
            8 -17 vhcurveto
            -48 23 52 -23 51 hhcurveto
            26 26 5 10 23 hvcurveto
            127 54 74 148 43 127 rrcurveto
            -3 3 14 0 7 hhcurveto
            112 102 148 100 13 hvcurveto
            25 callsubr
            return
          </CharString>
          <CharString index="74">
            742 538 rmoveto
            -16 -4 -33 -4 -49 -2 -56 3 -32 3 -10 2 return
          </CharString>
          <CharString index="75">
            hhcurveto
            -47 -35 32 63 hvcurveto
            8 return
          </CharString>
          <CharString index="76">
            -3 9 8 -5 2 -19 12 -1 31 14 26 27 50 155 15 77 -4 -23 -8 -27 -15 -9 -17 return
          </CharString>
          <CharString index="77">
            rmoveto
            -42 -138 -167 -39 -7 -2 6 6 42 69 -3 callsubr
            27 20 21 hhcurveto
            13 10 -4 -15 hvcurveto
            endchar
          </CharString>
          <CharString index="78">
            16 5 -1 13 -7 -3 -23 -11 -32 3 -8 -1 -8 -1 -2 -10 -3 -5 -22 -42 -46 -87 -62 -59 -85 callsubr
            return
          </CharString>
          <CharString index="79">
            -34 -4 -39 -2 -42 -2 return
          </CharString>
          <CharString index="80">
            29 -19 10 -21 -26 -43 -20 -13 -21 vhcurveto
            return
          </CharString>
          <CharString index="81">
            -36 callgsubr
            53 117 15 20 return
          </CharString>
          <CharString index="82">
            -47 -21 -19 -18 -77 hhcurveto
            -26 -28 4 3 -4 hvcurveto
            -1 -1 rlineto
            -3 2 -2 4 7 vvcurveto
            1 19 8 49 15 74 rrcurveto
            18 79 6 -24 hvcurveto
            -3 vlineto
            -7 -18 20 4 rlineto
            return
          </CharString>
          <CharString index="83">
            -54 2 -35 3 -18 2 return
          </CharString>
          <CharString index="84">
            rrcurveto
            -30 -15 -41 0 41 vvcurveto
            15 6 16 7 14 vhcurveto
            4 12 -9 3 -6 -11 rrcurveto
            return
          </CharString>
          <CharString index="85">
            8 8 vvcurveto
            2 -1 0 -1 return
          </CharString>
          <CharString index="86">
            154 rmoveto
            3 16 2 14 14 vvcurveto
            68 -43 39 -84 -107 -79 -70 -133 -74 41 -37 84 100 62 55 108 21 vhcurveto
            -164 -143 rmoveto
            -1 -4 -6 0 -4 hhcurveto
            -52 -34 44 65 84 49 71 74 10 hvcurveto
            -1 hlineto
            1 6 4 0 6 hhcurveto
            54 33 -41 -64 -82 -51 -75 -74 -12 hvcurveto
            endchar
          </CharString>
          <CharString index="87">
            95 95 53 81 47 hvcurveto
            14 24 -21 27 -14 -36 -28 -77 -112 -62 -76 2 return
          </CharString>
          <CharString index="88">
            rmoveto
            -9 -18 -5 -19 -16 vvcurveto
            -1 -21 8 -17 14 -9 14 -8 21 0 28 13 return
          </CharString>
          <CharString index="89">
            rmoveto
            -42 -69 -111 -31 -29 vhcurveto
            -14 -14 -30 -21 -20 hhcurveto
            -13 -8 5 15 32 49 64 21 25 hvcurveto
            19 16 67 2 callsubr
            return
          </CharString>
          <CharString index="90">
            -13 1 -31 callgsubr
            return
          </CharString>
          <CharString index="91">
            rmoveto
            -5 -78 -1 -46 hhcurveto
            -5 hlineto
            -9 2 -5 1 -5 -10 -11 -30 rcurveline
            -6 -14 -1 -2 -1 -4 -1 -1 rlinecurve
            -7 -17 -12 -33 -12 -25 -3 -5 rcurveline
            -9 -16 -1 -1 17 6 rrcurveto
            6 19 24 3 21 hhcurveto
            16 15 -4 -10 8 hvcurveto
            6 -7 3 -9 -11 vvcurveto
            -8 -2 -11 -4 -11 vhcurveto
            return
          </CharString>
          <CharString index="92">
            29 73 37 -1 27 -2 33 18 rrcurveto
            5 2 10 5 6 vvcurveto
            16 callsubr
            return
          </CharString>
          <CharString index="93">
            -47 callgsubr
            64 63 68 50 39 vhcurveto
            4 5 16 23 -10 5 -20 -26 rcurveline
            -26 callsubr
            14 20 44 -7 34 10 rrcurveto
            6 21 -3 5 -14 hhcurveto
            -81 hlineto
            38 78 49 75 15 16 rrcurveto
            endchar
          </CharString>
          <CharString index="94">
            34 34 23 30 37 32 6 -26 23 -57 27 -12 rrcurveto
            -3 6 7 -2 7 hhcurveto
            45 33 69 46 10 hvcurveto
            2 11 -9 4 -3 -10 -10 -38 -45 -94 -36 71 -14 26 -9 35 -2 12 39 33 64 53 47 21 10 5 22 10 19 1 rrcurveto
            4 1 15 -4 hhcurveto
            return
          </CharString>
          <CharString index="95">
            -9 -2 -12 return
          </CharString>
          <CharString index="96">
            rmoveto
            -5 -21 3 -18 21 -3 4 -1 6 8 5 4 6 4 14 9 24 callgsubr
            28 18 26 22 19 8 6 -1 1 1 4 97 callgsubr
            -27 -33 -37 -11 -49 rrcurveto
            endchar
          </CharString>
          <CharString index="97">
            10 9 -2 -6 7 hvcurveto
            -1 hlineto
            5 -5 3 -12 -3 -9 -2 -8 -7 -19 -2 -4 22 9 rcurveline
            3 15 10 29 3 7 rrcurveto
            -83 -159 rmoveto
            7 -31 -9 -49 -40 -21 rrcurveto
            -5 -9 -9 -2 -11 hhcurveto
            -6 -7 0 2 -7 hvcurveto
            return
          </CharString>
          <CharString index="98">
            2 -1 2 -1 1 vhcurveto
            -33 27 -32 21 -23 37 -6 3 rcurveline
            -7 -3 -5 -5 -1 hvcurveto
            -2 -14 56 -74 11 -15 -14 -15 -89 -95 -1 -8 rrcurveto
            -3 -1 3 -2 3 hhcurveto
            7 5 4 4 5 hvcurveto
            18 17 103 105 3 13 rrcurveto
            return
          </CharString>
          <CharString index="99">
            1 59 40 123 23 34 6 7 -3 9 -9 -8 return
          </CharString>
          <CharString index="100">
            -12 -39 -35 -38 -49 -2 -15 -1 -17 4 -7 7 -6 5 -4 15 3 11 rrcurveto
            3 1 1 1 2 vhcurveto
            1 7 3 10 3 3 -3 6 rcurveline
            -18 -7 -5 -17 -9 -33 -4 -8 rlinecurve
            -5 -8 7 -6 4 -3 rrcurveto
            return
          </CharString>
          <CharString index="101">
            31 48 32 46 54 22 rrcurveto
            9 23 24 5 24 hhcurveto
            17 24 -6 -21 -2 2 0 1 2 4 1 3 hvcurveto
            return
          </CharString>
          <CharString index="102">
            18 callsubr
            2 28 rlineto
            14 1 -14 7 -12 hhcurveto
            -47 -48 -41 -83 -41 hvcurveto
            return
          </CharString>
          <CharString index="103">
            5 -32 rrcurveto
            -1 1 1 -1 1 hhcurveto
            1 4 2 2 hvcurveto
            return
          </CharString>
          <CharString index="104">
            111 31 29 vhcurveto
            14 15 return
          </CharString>
          <CharString index="105">
            vstem
            450 543 rmoveto
            -89 -141 -1 0 hvcurveto
            -44 -107 15 -32 -38 hvcurveto
            -19 -16 1 -25 1 -79 callgsubr
            return
          </CharString>
          <CharString index="106">
            -11 -24 -22 -42 -27 vvcurveto
            -15 16 -10 19 17 vhcurveto
            15 54 63 76 34 35 1 callsubr
            return
          </CharString>
          <CharString index="107">
            46 callgsubr
            18 42 -23 41 hhcurveto
            46 return
          </CharString>
          <CharString index="108">
            11 12 89 77 -20 -43 return
          </CharString>
          <CharString index="109">
            70 23 hhcurveto
            7 2 -7 -6 hvcurveto
            return
          </CharString>
          <CharString index="110">
            15 -42 callsubr
            return
          </CharString>
          <CharString index="111">
            32 -3 -25 11 -31 hhcurveto
            -70 -59 -30 -43 -49 hvcurveto
            return
          </CharString>
          <CharString index="112">
            hhcurveto
            -8 -9 8 14 2 hvcurveto
            return
          </CharString>
          <CharString index="113">
            -9 17 41 -2 21 hhcurveto
            59 6 53 35 19 62 rrcurveto
            4 12 2 13 11 vvcurveto
            37 -25 20 -54 -14 -25 -4 -6 -17 vhcurveto
            41 85 rlineto
            4 3 5 3 8 hhcurveto
            return
          </CharString>
          <CharString index="114">
            307 2 -21 198 27 337 -20 return
          </CharString>
          <CharString index="115">
            128 1 -21 143 25 233 -20 return
          </CharString>
          <CharString index="116">
            -17 -56 rcurveline
            -2 -4 -5 -10 -4 vvcurveto
            -11 -1 7 -2 11 hhcurveto
            6 33 13 5 5 hvcurveto
            3 4 1 9 3 5 38 66 47 61 48 60 92 117 return
          </CharString>
          <CharString index="117">
            -29 -7 -41 10 3 41 1 15 6 15 8 12 5 11 -8 5 -7 -9 rrcurveto
            return
          </CharString>
          <CharString index="118">
            582 14 rmoveto
            26 callgsubr
            -14 callgsubr
            return
          </CharString>
          <CharString index="119">
            hhcurveto
            -8 -4 6 8 return
          </CharString>
          <CharString index="120">
            -6 -9 43 -1 6 9 87 119 352 423 89 94 3 3 -68 2 -4 -5 -98 -105 -256 -324 -148 -206 rrcurveto
            endchar
          </CharString>
          <CharString index="121">
            3 -2 30 21 -1 2 -7 8 -11 9 -11 1 -10 1 -11 -12 -10 -8 -8 -8 2 -4 7 2 10 1 9 -6 8 -5 rrcurveto
            endchar
          </CharString>
          <CharString index="122">
            -3 2 -30 -21 1 -2 7 -8 11 -9 11 -1 10 -1 11 12 10 8 8 8 -2 4 -7 -2 -10 -1 -9 6 -8 5 rrcurveto
            endchar
          </CharString>
          <CharString index="123">
            -2 -9 -11 0 -9 hhcurveto
            -72 hlineto
            return
          </CharString>
          <CharString index="124">
            rmoveto
            -3 2 -38 -25 3 -3 8 -10 13 -11 15 -1 11 -1 14 14 12 10 11 10 -3 5 -10 -88 callgsubr
            return
          </CharString>
          <CharString index="125">
            25 callsubr
            91 25 47 145 92 hhcurveto
            10 15 -5 -16 -1 1 0 0 1 3 1 2 hvcurveto
            return
          </CharString>
          <CharString index="126">
            12 53 0 -2 14 hvcurveto
            6 4 -2 -4 -1 hvcurveto
            -2 -12 -65 -76 -57 -66 -46 -53 -39 -46 -1 -8 rrcurveto
            -4 1 8 0 5 hhcurveto
            return
          </CharString>
          <CharString index="127">
            3 callgsubr
            -23 21 -4 14 45 44 32 37 35 vhcurveto
            16 16 13 17 12 16 6 -41 callsubr
            endchar
          </CharString>
          <CharString index="128">
            2 10 74 callgsubr
            return
          </CharString>
          <CharString index="129">
            8 24 callgsubr
            29 18 25 22 19 8 7 -1 1 1 3 2 8 rcurveline
            0 -7 -3 return
          </CharString>
          <CharString index="130">
            -9 19 -13 7 -17 1 -59 2 -60 -70 -33 -38 return
          </CharString>
          <CharString index="131">
            20 2 -19 10 -17 hhcurveto
            -81 -65 -61 -93 -55 hvcurveto
            return
          </CharString>
          <CharString index="132">
            13 2 -1 20 -17 hhcurveto
            -58 -92 -103 -17 -18 hvcurveto
            return
          </CharString>
          <CharString index="133">
            1 1 1 1 hhcurveto
            1 return
          </CharString>
          <CharString index="134">
            rrcurveto
            -41 -38 -44 -30 return
          </CharString>
          <CharString index="135">
            288 34 callsubr
            return
          </CharString>
          <CharString index="136">
            27 -24 -21 287 27 210 29 return
          </CharString>
          <CharString index="137">
            rrcurveto
            21 10 22 11 34 hhcurveto
            return
          </CharString>
          <CharString index="138">
            -37 -11 -26 -24 -3 -33 -2 -15 2 -15 3 -3 4 -4 4 2 -1 9 -4 45 30 24 127 15 rrcurveto
            return
          </CharString>
          <CharString index="139" raw="1">
            917d8c79 887d88bc 0a929992 9d9b1aae
            8a6f8f6f 1b730b  
          </CharString>
          <CharString index="140">
            rmoveto
            -12 hlineto
            -10 -20 -8 -10 -11 hvcurveto
            -30 31 33 32 51 15 33 9 rcurveline
            -14 -25 -12 -24 -8 -20 rrcurveto
            return
          </CharString>
          <CharString index="141">
            15 rmoveto
            -13 hlineto
            -40 -30 13 22 24 11 59 18 93 hvcurveto
            260 49 14 34 60 4 5 -1 5 hhcurveto
            return
          </CharString>
          <CharString index="142">
            hvcurveto
            -61 -46 -63 -97 return
          </CharString>
          <CharString index="143">
            100 58 367 38 return
          </CharString>
          <CharString index="144">
            hhcurveto
            -57 -136 2 -95 26 hvcurveto
            4 -17 22 -33 12 -7 5 -3 8 7 -4 3 -15 11 -5 32 return
          </CharString>
          <CharString index="145">
            25 70 65 76 53 49 return
          </CharString>
          <CharString index="146">
            -24 -3 15 252 15 return
          </CharString>
          <CharString index="147">
            -40 -1 15 249 15 return
          </CharString>
          <CharString index="148">
            -23 -29 -26 -27 -18 -24 return
          </CharString>
          <CharString index="149">
            53 callsubr
            -56 -129 -73 -131 -125 -54 rrcurveto
            -9 -23 -26 -6 -24 hhcurveto
            return
          </CharString>
          <CharString index="150">
            7 19 1 37 -29 1 rrcurveto
            -35 -27 -35 -13 -34 hvcurveto
            return
          </CharString>
          <CharString index="151">
            287 208 15 244 16 return
          </CharString>
          <CharString index="152">
            286 -10 35 481 32 return
          </CharString>
          <CharString index="153">
            -47 rrcurveto
            -49 -33 5 -31 -41 35 callsubr
            -9 -77 rrcurveto
            -1 -2 0 -3 -2 vvcurveto
            -12 return
          </CharString>
          <CharString index="154">
            -74 callsubr
            38 return
          </CharString>
          <CharString index="155">
            185 -5 29 callsubr
            return
          </CharString>
          <CharString index="156">
            -9 13 5 4 9 rrcurveto
            return
          </CharString>
          <CharString index="157">
            -64 -88 -116 -66 -106 -5 33 76 55 88 57 58 rrcurveto
            41 41 35 25 57 hhcurveto
            return
          </CharString>
          <CharString index="158">
            -63 -5 -59 -67 47 -60 19 -24 41 -12 33 2 rrcurveto
            11 1 7 3 -11 hvcurveto
            return
          </CharString>
          <CharString index="159">
            2 callgsubr
            371 18 return
          </CharString>
          <CharString index="160">
            -6 -7 -25 -103 -47 -111 return
          </CharString>
          <CharString index="161">
            -12 59 callgsubr
            return
          </CharString>
          <CharString index="162">
            140 rmoveto
            -62 callsubr
            return
          </CharString>
          <CharString index="163">
            -31 -58 -37 -57 -62 -32 -45 -22 -56 6 -31 25 71 56 53 94 34 73 return
          </CharString>
          <CharString index="164">
            -2 -2 1 -2 hhcurveto
            -7 hlineto
            -12 -18 41 2 rlineto
            1 31 19 2 6 hhcurveto
            return
          </CharString>
          <CharString index="165">
            -51 -1 15 241 15 return
          </CharString>
          <CharString index="166">
            -97 -1 15 254 -20 return
          </CharString>
          <CharString index="167">
            9 -1 -8 23 -12 hhcurveto
            return
          </CharString>
          <CharString index="168">
            2 10 9 1 return
          </CharString>
          <CharString index="169">
            -10 154 171 231 182 -14 126 -10 52 -54 5 -82 return
          </CharString>
          <CharString index="170">
            -34 -350 38 324 -21 247 34 return
          </CharString>
          <CharString index="171">
            112 51 hvcurveto
            return
          </CharString>
          <CharString index="172">
            26 338 -20 hstem
            479 581 rmoveto
            -18 callgsubr
            return
          </CharString>
          <CharString index="173">
            -9 -17 -22 hvcurveto
            return
          </CharString>
          <CharString index="174">
            -10 11 290 11 237 25 hstem
            138 23 215 23 return
          </CharString>
          <CharString index="175">
            -44 -59 callsubr
            return
          </CharString>
          <CharString index="176">
            -8 1 -23 -29 5 1 rrcurveto
            return
          </CharString>
          <CharString index="177">
            7 9 14 15 -9 9 rrcurveto
            return
          </CharString>
          <CharString index="178">
            -137 2 -95 26 hvcurveto
            return
          </CharString>
          <CharString index="179">
            104 -5 15 246 15 return
          </CharString>
          <CharString index="180">
            -57 282 16 hstem
            return
          </CharString>
          <CharString index="181">
            hstem
            144 58 vstem
            return
          </CharString>
          <CharString index="182">
            20 301 -20 hstemhm
            99 131 -49 49 hintmask 11100000
            272 return
          </CharString>
          <CharString index="183">
            -36 7 -30 19 -11 27 -14 30 -8 38 58 4 rrcurveto
            2 return
          </CharString>
          <CharString index="184">
            -3 -33 -2 -31 -2 rlinecurve
            -36 2 -27 2 -13 2 -11 return
          </CharString>
          <CharString index="185">
            30 253 33 hstem
            42 42 157 40 vstem
            220 return
          </CharString>
          <CharString index="186">
            vstem
            479 581 rmoveto
            -3 callgsubr
            return
          </CharString>
          <CharString index="187">
            -3 7 -32 8 -57 22 -156 rcurveline
            1 vlineto
            5 -34 return
          </CharString>
          <CharString index="188">
            42 -23 41 hhcurveto
            45 return
          </CharString>
          <CharString index="189">
            -1 15 218 22 return
          </CharString>
          <CharString index="190">
            -3 13 -4 rrcurveto
            return
          </CharString>
          <CharString index="191">
            18 451 18 return
          </CharString>
          <CharString index="192">
            535 rmoveto
            -80 -8 -32 4 -2 vvcurveto
            1 hlineto
            -2 return
          </CharString>
          <CharString index="193">
            81 206 219 114 78 17 3 24 33 return
          </CharString>
          <CharString index="194">
            51 2 -21 555 -20 return
          </CharString>
          <CharString index="195">
            -62 -32 -77 -39 -109 return
          </CharString>
          <CharString index="196">
            hvcurveto
            9 hlineto
            10 7 2 4 5 hvcurveto
            -1 hlineto
            return
          </CharString>
          <CharString index="197">
            -36 2 -28 2 -12 2 -12 -20 rcurveline
            2 9 return
          </CharString>
          <CharString index="198">
            150 -149 -21 170 26 -26 140 return
          </CharString>
          <CharString index="199">
            rmoveto
            83 -43 -86 -43 -32 hvcurveto
            return
          </CharString>
          <CharString index="200">
            369 -16 25 527 -20 return
          </CharString>
          <CharString index="201">
            hintmask 100110000000100000001010
            return
          </CharString>
          <CharString index="202">
            -9 -25 -6 -14 -2 return
          </CharString>
          <CharString index="203">
            3 -22 -10 -19 return
          </CharString>
          <CharString index="204">
            572 rmoveto
            32 -3 -25 11 -31 hhcurveto
            -70 return
          </CharString>
          <CharString index="205">
            9 1 7 hhcurveto
            return
          </CharString>
        <CharString name=".notdef">
          -120 endchar
        </CharString>
        <CharString name="A">
          52 callsubr
          -107 callgsubr
          endchar
        </CharString>
        <CharString name="A.roman">
          7 callsubr
          hstem
          11 callsubr
          -102 callsubr
          endchar
        </CharString>
        <CharString name="A.roman_acute">
          7 callsubr
          hstem
          11 callsubr
          -102 callsubr
          171 245 -102 callgsubr
        </CharString>
        <CharString name="A.roman_breve">
          7 callsubr
          59 15 hstem
          11 callsubr
          -102 callsubr
          140 201 -82 callgsubr
        </CharString>
        <CharString name="A.roman_circumflex">
          7 callsubr
          hstem
          11 callsubr
          -102 callsubr
          -61 155 -107 callsubr
        </CharString>
        <CharString name="A.roman_dieresis">
          307 2 -21 198 27 314 20 3 -20 hstemhm
          hintmask 11100000
          11 callsubr
          hintmask 11010000
          -102 callsubr
          -16 215 rmoveto
          -106 callsubr
          116 hmoveto
          -95 callsubr
        </CharString>
        <CharString name="A.roman_grave">
          307 2 -21 198 27 332 20 -15 -20 hstemhm
          hintmask 11100000
          11 callsubr
          hintmask 11010000
          -102 callsubr
          -34 228 -94 callsubr
        </CharString>
        <CharString name="A.roman_macron">
          7 callsubr
          68 24 hstem
          11 callsubr
          -102 callsubr
          146 176 -97 callsubr
        </CharString>
        <CharString name="A.roman_ogonek">
          307 -117 22 97 -21 198 27 337 -20 hstem
          542 -94 47 callsubr
          24 57 23 16 vhcurveto
          17 26 -1 -2 36 hvcurveto
          11 16 26 callgsubr
          rlinecurve
          -14 callgsubr
          -9 60 -10 78 -9 94 rrcurveto
          -23 -14 -40 -23 -15 vvcurveto
          -3 vlineto
          -12 -10 -22 -14 -24 vhcurveto
          -215 -355 -27 -44 -10 -8 -64 -9 rlinecurve
          -10 -16 rlineto
          3 23 29 1 35 hhcurveto
          36 29 -2 -2 20 hvcurveto
          12 16 rlineto
          -41 -21 7 13 10 26 46 53 83 hvcurveto
          4 3 3 2 3 hhcurveto
          184 hlineto
          3 2 -1 -3 hvcurveto
          -2 vlineto
          8 -78 4 -43 -9 vvcurveto
          -20 -24 -9 -40 vhcurveto
          -9 -16 rlineto
          -5 109 4 8 hhcurveto
          3 hlineto
          -29 -22 -45 -76 68 callsubr
          -129 306 rmoveto
          -2 vlineto
          -3 -2 -1 -4 vhcurveto
          -162 hlineto
          -2 -1 1 1 1 0 1 1 2 hvcurveto
          132 218 rlineto
          2 26 callsubr
          1 -1 -3 1 hvcurveto
          endchar
        </CharString>
        <CharString name="A.roman_ring">
          7 callsubr
          22 15 84 14 hstem
          11 callsubr
          -102 callsubr
          114 189 -92 callsubr
        </CharString>
        <CharString name="A.roman_tilde">
          307 2 -21 198 27 285 19 13 18 2 -20 hstemhm
          hintmask 11110000
          11 callsubr
          hintmask 11101000
          -102 callsubr
          138 211 -96 callgsubr
        </CharString>
        <CharString name="A.sm">
          8 callsubr
          hstem
          -104 callgsubr
          endchar
        </CharString>
        <CharString name="A.sm_E.sm">
          263 -4 26 -23 -21 23 -21 143 25 34 25 137 28 9 -20 hstemhm
          492 47 hintmask 10011011
          540 83 rmoveto
          -9 4 rlineto
          -25 callsubr
          1 8 1 6 2 vvcurveto
          5 13 rlineto
          9 9 12 3 16 callgsubr
          hintmask 00111101
          9 callgsubr
          -24 -33 2 4 -19 hvcurveto
          -11 -20 rlineto
          6 6 1 5 5 5 -1 4 hhcurveto
          -235 -299 -26 -30 3 -3 -54 -7 rlinecurve
          -14 -19 rlineto
          3 20 21 0 25 hhcurveto
          hintmask 01011011
          26 21 -1 -1 13 hvcurveto
          17 18 rlineto
          -29 -16 2 8 hvcurveto
          0 1 1 1 vvcurveto
          1 2 9 13 22 30 39 47 rlinecurve
          -1 hlineto
          6 callgsubr
          133 hlineto
          -104 -24 -7 -3 -46 62 callgsubr
          hintmask 10011011
          35 callgsubr
          -199 180 rmoveto
          -7 -7 -34 -14 -62 vhcurveto
          -2 -7 rlineto
          -121 hlineto
          154 195 rlineto
          -9 vlineto
          -15 -3 -26 -7 -35 vhcurveto
          endchar
        </CharString>
        <CharString name="A.sm_acute">
          8 callsubr
          hstem
          -104 callgsubr
          113 191 -102 callgsubr
        </CharString>
        <CharString name="A.sm_breve">
          8 callsubr
          74 15 hstem
          -104 callgsubr
          136 189 -82 callgsubr
        </CharString>
        <CharString name="A.sm_circumflex">
          8 callsubr
          hstem
          -104 callgsubr
          -69 124 -107 callsubr
        </CharString>
        <CharString name="A.sm_dieresis">
          128 1 -21 143 25 210 20 3 -20 hstemhm
          hintmask 11010000
          -104 callgsubr
          hintmask 00100000
          -26 188 rmoveto
          -106 callsubr
          116 hmoveto
          -95 callsubr
        </CharString>
        <CharString name="A.sm_grave">
          128 1 -21 143 25 230 20 -17 -20 hstemhm
          hintmask 11010000
          -104 callgsubr
          hintmask 00100000
          -42 203 -94 callsubr
        </CharString>
        <CharString name="A.sm_macron">
          8 callsubr
          85 24 hstemhm
          hintmask 11100000
          -104 callgsubr
          hintmask 00010000
          127 166 -97 callsubr
        </CharString>
        <CharString name="A.sm_ogonek">
          128 -119 22 98 -21 143 25 233 -20 hstem
          381 -96 -74 callsubr
          39 25 60 24 14 vhcurveto
          10 20 -1 -1 34 hvcurveto
          12 17 rlineto
          1 -14 -10 3 -8 hhcurveto
          -13 1 -8 7 -2 10 -6 16 -8 45 -9 61 -9 59 rcurveline
          -19 164 -15 -9 -14 -10 -14 -10 rlinecurve
          -3 -2 -2 -3 -1 -3 -1 -2 -1 -2 1 -2 -1 -4 rcurveline
          -2 -9 -6 -13 -8 -13 -146 -244 rcurveline
          -11 -16 -9 -10 -9 -6 -6 -3 -13 -2 -22 -3 -11 -19 rcurveline
          3 20 21 0 25 hhcurveto
          26 21 -1 -1 13 hvcurveto
          14 18 rlineto
          -32 -16 3 9 2 hvcurveto
          2 vlineto
          7 13 17 30 30 47 rrcurveto
          -1 hlineto
          6 callgsubr
          127 -1 hlineto
          7 -60 1 -30 -1 vvcurveto
          -10 -1 -14 -4 -27 hhcurveto
          -10 -18 rlineto
          2 18 0 1 22 hvcurveto
          9 8 1 6 hhcurveto
          5 hlineto
          -29 -21 -46 -78 68 callsubr
          -100 249 rmoveto
          -3 1 -2 0 vhcurveto
          -110 hlineto
          89 146 rlineto
          endchar
        </CharString>
        <CharString name="A.sm_ring">
          8 callsubr
          48 15 84 14 hstemhm
          hintmask 11100000
          -104 callgsubr
          hintmask 00011000
          96 188 -92 callsubr
        </CharString>
        <CharString name="A.sm_tilde">
          128 1 -21 143 25 182 19 13 18 1 -20 hstemhm
          hintmask 11001000
          -104 callgsubr
          hintmask 00110000
          119 185 -96 callgsubr
        </CharString>
        <CharString name="AE">
          790 -136 22 18 25 243 29 92 -21 21 15 69 34 60 27 15 27 43 18 hstemhm
          360 32 hintmask 1111011111000000
          1088 439 rmoveto
          17 callgsubr
          rrcurveto
          5 -80 -22 -4 -59 hhcurveto
          26 23 10 -8 19 3 rrcurveto
          3 13 -14 10 -10 hhcurveto
          -26 -39 -17 -15 -32 hvcurveto
          -113 hlineto
          -80 -190 2 -104 -15 hvcurveto
          -3 -18 13 -36 13 -9 5 -3 16 9 -5 3 -20 13 6 44 33 29 rrcurveto
          40 47 95 6 71 hhcurveto
          55 hlineto
          -55 -15 -53 -37 -47 -49 -34 -36 -55 -58 -63 -61 rrcurveto
          2 -41 -36 1 -25 hhcurveto
          -48 -47 -13 -19 -44 hvcurveto
          -32 -14 -48 -15 9 -40 4 -15 19 1 5 -2 -7 21 11 30 12 12 rrcurveto
          22 22 49 3 30 hhcurveto
          34 47 -4 -2 52 hvcurveto
          -109 -117 -137 -107 -97 hhcurveto
          -48 -26 29 63 31 hvcurveto
          4 8 -6 8 -11 -22 -9 -19 -9 -20 -1 -17 rrcurveto
          -48 -5 30 -24 41 hhcurveto
          127 146 128 128 124 hvcurveto
          45 -2 47 0 46 3 rrcurveto
          41 3 16 41 0 vvcurveto
          -11 -23 -28 -4 -21 hhcurveto
          -31 -31 1 1 -30 hvcurveto
          62 67 55 64 42 43 52 53 73 39 32 1 -41 -56 -101 -184 -55 -115 -48 -86 rcurveline
          -34 -62 23 -26 66 -6 117 -13 141 8 44 13 39 12 38 55 41 51 4 5 -5 14 -5 -7 rrcurveto
          -94 -74 -118 -31 -115 hhcurveto
          -56 1 -44 13 41 vvcurveto
          36 33 62 16 31 vhcurveto
          15 27 8 17 13 24 3 5 4 2 7 1 rrcurveto
          3 83 36 -6 83 hhcurveto
          hintmask 1110111111000000
          36 27 57 -14 -23 hvcurveto
          -17 -9 -45 -3 -13 -1 rrcurveto
          -1 -41 -60 2 -46 hhcurveto
          -8 -3 3 8 3 hvcurveto
          37 64 41 75 44 62 10 13 15 6 29 2 41 2 48 1 18 -6 38 -12 -4 -47 -8 -34 -3 -12 17 7 6 11 rrcurveto
          endchar
        </CharString>
        <CharString name="AE.roman">
          498 -5 27 -24 -21 25 -21 198 27 58 27 210 29 5 -20 28 -20 hstemhm
          454 58 hintmask 1001100110000000
          778 -13 callgsubr
          hintmask 0011110010000000
          1 13 22 2 29 hhcurveto
          78 24 -8 -21 -5 -4 -11 -18 -34 hvcurveto
          16 -3 18 47 rlineto
          3 23 50 2 vvcurveto
          6 -3 3 -3 vhcurveto
          -80 -76 -2 -72 hhcurveto
          hintmask 0101101010000000
          -45 -35 2 5 -27 hvcurveto
          -10 -16 rlineto
          7 6 1 6 hhcurveto
          8 7 -1 -1 7 hvcurveto
          -346 -443 -35 -45 -11 -8 -66 -8 rlinecurve
          -4 -16 rlineto
          hintmask 0011100110000000
          3 24 29 1 35 hhcurveto
          hintmask 0101100110000000
          36 28 -2 -2 20 hvcurveto
          6 16 rlineto
          -40 -19 6 12 9 34 45 72 87 hvcurveto
          4 3 4 2 3 hhcurveto
          198 hlineto
          hintmask 1001100110000000
          -27 -126 -4 -16 -41 -15 rrcurveto
          -6 -15 -16 -3 -17 50 callgsubr
          hintmask 0101100110000000
          -9 -16 rlineto
          8 143 -22 1 45 hhcurveto
          hintmask 1001100110000000
          -58 callsubr
          -498 102 rmoveto
          230 292 rlineto
          2 -4 1 -7 -10 vvcurveto
          -23 -5 -37 -10 -54 vhcurveto
          -1 -10 -11 -49 -19 -90 -3 -14 rcurveline
          -183 hlineto
          -2 -1 0 2 1 0 1 2 2 hvcurveto
          endchar
        </CharString>
        <CharString name="Aacute">
          52 callsubr
          -107 callgsubr
          286 418 -102 callgsubr
        </CharString>
        <CharString name="Abreve">
          52 callsubr
          0 15 -107 callgsubr
          299 373 -82 callgsubr
        </CharString>
        <CharString name="Acircumflex">
          52 callsubr
          -107 callgsubr
          96 347 -107 callsubr
        </CharString>
        <CharString name="Adieresis">
          2 callgsubr
          362 20 -11 18 -107 callgsubr
          243 422 rmoveto
          -106 callsubr
          -116 hmoveto
          -95 callsubr
        </CharString>
        <CharString name="Agrave">
          2 callgsubr
          363 20 -12 18 -107 callgsubr
          80 418 -94 callsubr
        </CharString>
        <CharString name="Amacron">
          52 callsubr
          22 24 -107 callgsubr
          323 361 -97 callsubr
        </CharString>
        <CharString name="Aogonek">
          479 -136 22 -10 22 282 32 371 18 hstem
          713 -101 -74 callsubr
          36 21 53 22 20 vhcurveto
          10 1 11 3 10 4 57 25 53 77 15 20 8 11 -9 7 -7 -10 -5 -7 -26 -37 -35 -33 -18 -17 -19 -14 -17 -7 -78 -31 69 155 8 19 56 125 117 209 46 46 rrcurveto
          32 33 10 -10 21 3 rrcurveto
          3 13 -14 10 -10 hhcurveto
          -27 -40 -18 -15 -33 hvcurveto
          1 1 -1 0 -1 hhcurveto
          -109 hlineto
          -80 -190 2 -104 -15 hvcurveto
          -3 -18 13 -36 13 -9 5 -3 16 9 -5 3 -20 13 6 44 33 29 rrcurveto
          40 47 95 6 71 hhcurveto
          55 hlineto
          -55 -15 -53 -37 -47 -49 -34 -36 -55 -58 -63 -61 rrcurveto
          2 -41 -36 1 -25 hhcurveto
          -48 -47 -13 -19 -44 hvcurveto
          -32 -14 -48 -15 9 -40 4 -15 19 1 5 -2 -7 21 11 30 12 12 rrcurveto
          22 22 49 3 30 hhcurveto
          34 47 -4 -2 52 hvcurveto
          -109 -117 -137 -107 -97 hhcurveto
          -48 -26 29 63 31 hvcurveto
          4 8 -6 8 -11 -22 -9 -19 -9 -20 -1 -17 rrcurveto
          -48 -5 30 -24 41 hhcurveto
          127 146 128 128 124 hvcurveto
          45 -2 47 0 46 3 rrcurveto
          41 3 16 41 0 vvcurveto
          -11 -23 -28 -4 -21 hhcurveto
          -31 -31 1 1 -30 hvcurveto
          62 67 55 64 42 43 52 53 73 39 32 1 -42 -57 -104 -191 -54 -114 -15 -32 -24 -62 8 -41 5 -26 16 -12 19 -3 rrcurveto
          -29 -25 -42 -72 -42 -59 callsubr
          endchar
        </CharString>
        <CharString name="Aring">
          52 callsubr
          13 15 84 14 -107 callgsubr
          303 411 -92 callsubr
        </CharString>
        <CharString name="Atilde">
          2 callgsubr
          321 19 13 18 0 18 -107 callgsubr
          289 406 -96 callgsubr
        </CharString>
        <CharString name="B">
          273 565 16 hstem
          36 35 vstem
          572 499 rmoveto
          -34 53 -100 -6 -55 -1 rrcurveto
          -47 -60 -1 -42 hhcurveto
          -56 71 callsubr
          4 -17 22 -33 12 -7 5 -31 callsubr
          -13 -23 -24 -56 -31 -55 -96 -177 rcurveline
          -25 -48 -27 -47 -28 -47 -14 -25 -21 -18 -29 -5 -6 -4 10 -7 13 3 26 9 22 18 14 6 28 14 14 -6 17 -9 rrcurveto
          -23 44 57 -8 49 hhcurveto
          41 37 6 12 32 hvcurveto
          76 28 77 65 87 vvcurveto
          50 -36 30 -46 10 vhcurveto
          -14 3 -20 2 -6 1 rrcurveto
          -3 1 6 2 hhcurveto
          32 7 22 11 20 14 20 13 16 15 12 15 28 36 21 61 -28 44 rrcurveto
          -50 -98 rmoveto
          -101 -36 -66 -8 -98 hhcurveto
          -5 -11 -8 -3 -3 hvcurveto
          -11 -9 -26 -19 9 -3 14 4 18 4 18 3 rrcurveto
          56 11 112 9 -85 vvcurveto
          -88 -65 -64 -73 -28 vhcurveto
          -53 -20 -82 -11 -49 36 -23 17 -9 18 13 27 31 62 32 62 31 60 38 74 43 98 51 66 19 24 51 2 24 -3 58 -8 13 -61 -21 -58 rrcurveto
          endchar
        </CharString>
        <CharString name="B.roman">
          233 -2 19 274 16 199 26 1 -20 hstemhm
          114 58 188 50 9 61 hintmask 11101110
          515 167 rmoveto
          3 15 2 14 12 vvcurveto
          62 -45 33 -84 4 vhcurveto
          65 25 47 58 63 vvcurveto
          53 -50 26 -88 vhcurveto
          -36 -44 -5 -39 hhcurveto
          hintmask 11011110
          -33 -32 2 4 -31 hvcurveto
          -10 -15 rlineto
          21 callsubr
          17 -5 -26 -22 -65 -364 -27 -54 hvcurveto
          -24 -12 -30 -12 -45 hhcurveto
          -11 -16 rlineto
          8 99 34 -2 27 44 29 -4 25 hhcurveto
          124 94 61 106 22 hvcurveto
          -61 hmoveto
          -88 -17 -70 -62 -90 hhcurveto
          -85 -4 5 29 hvcurveto
          4 37 8 52 15 67 18 84 rcurveline
          118 hlineto
          62 44 -34 -59 -10 -1 -10 -2 -11 hvcurveto
          -199 226 rmoveto
          13 62 12 44 29 5 rrcurveto
          hintmask 11101110
          2 8 17 0 26 hhcurveto
          54 35 -31 -45 -47 -49 -74 -86 hvcurveto
          -78 hlineto
          12 53 3 16 4 15 rrcurveto
          endchar
        </CharString>
        <CharString name="B.sm">
          76 -1 20 181 18 130 25 1 -20 hstemhm
          76 47 123 41 hintmask 11101100
          360 118 rmoveto
          2 11 1 11 9 vvcurveto
          39 -26 23 -52 7 vhcurveto
          39 18 28 41 37 vvcurveto
          41 -36 18 -62 vhcurveto
          -27 -31 -3 -24 hhcurveto
          hintmask 11011100
          -21 -23 1 3 -25 hvcurveto
          69 callgsubr
          15 11 -1 -13 -7 -42 -250 -21 -48 hvcurveto
          -14 -6 -23 -7 -29 hhcurveto
          -13 -19 rlineto
          6 86 9 -1 20 40 5 -4 20 hhcurveto
          86 70 41 78 17 hvcurveto
          -49 hmoveto
          -61 -12 -50 -38 -55 hhcurveto
          -49 -10 1 19 hvcurveto
          2 25 8 37 9 45 11 54 rcurveline
          78 hlineto
          41 29 -23 -39 -6 -1 -7 -1 -7 hvcurveto
          -130 160 rmoveto
          hintmask 11101100
          55 11 7 15 50 hhcurveto
          35 23 -19 -30 -34 -34 -45 -54 hvcurveto
          -50 hlineto
          endchar
        </CharString>
        <CharString name="C">
          238 568 18 hstem
          -90 callgsubr
          endchar
        </CharString>
        <CharString name="C.roman">
          45 callsubr
          hstem
          26 72 vstem
          -82 callsubr
          endchar
        </CharString>
        <CharString name="C.roman_acute">
          45 callsubr
          hstem
          26 72 vstem
          -82 callsubr
          -87 152 -102 callgsubr
        </CharString>
        <CharString name="C.roman_caron">
          45 callsubr
          hstem
          26 72 vstem
          -82 callsubr
          -65 167 -103 callgsubr
        </CharString>
        <CharString name="C.roman_cedilla">
          45 callsubr
          hstem
          26 72 vstem
          662 501 rmoveto
          24 -61 -69 13 -76 hhcurveto
          -216 -162 -128 -209 -127 87 -76 145 -7 hvcurveto
          -27 -10 -18 -26 -27 vvcurveto
          -30 37 -29 -4 -24 vhcurveto
          -56 callsubr
          21 17 19 22 9 vhcurveto
          75 1 22 8 121 62 4 15 rcurveline
          -34 -83 -74 -17 -63 hhcurveto
          -115 -74 76 122 187 115 96 154 111 64 -40 -47 -12 -1 -16 -7 -16 hvcurveto
          11 -2 rlineto
          -1 0 1 1 33 51 87 10 hvcurveto
          endchar
        </CharString>
        <CharString name="C.roman_circumflex">
          45 callsubr
          hstem
          26 72 vstem
          -82 callsubr
          -275 86 -107 callsubr
        </CharString>
        <CharString name="C.roman_dotaccent">
          45 callsubr
          43 20 hstemhm
          26 72 hintmask 11010000
          -82 callsubr
          hintmask 00100000
          -166 134 rmoveto
          -95 callsubr
        </CharString>
        <CharString name="C.sm">
          113 -7 31 324 29 hstem
          16 57 vstem
          463 350 rmoveto
          17 -43 -50 10 -53 hhcurveto
          -17 hlineto
          -141 -7 -107 -89 -138 vvcurveto
          -95 66 -55 114 56 15 3 47 86 vhcurveto
          3 18 rlineto
          -25 -60 -51 -12 -42 hhcurveto
          -82 -45 54 84 125 77 61 102 74 44 -26 -32 -10 0 1 -7 -23 hvcurveto
          20 -1 rlineto
          -4 5 0 0 1 vvcurveto
          22 5 22 56 13 hhcurveto
          endchar
        </CharString>
        <CharString name="Cacute">
          238 568 18 hstem
          -90 callgsubr
          -2 226 -102 callgsubr
        </CharString>
        <CharString name="Ccaron">
          238 568 18 hstem
          -90 callgsubr
          -3 197 -103 callgsubr
        </CharString>
        <CharString name="Ccedilla">
          238 -33 30 449 27 95 18 hstem
          58 50 vstem
          586 468 rmoveto
          6 28 -19 21 -30 14 rrcurveto
          15 -31 -28 3 -33 hhcurveto
          -80 -86 -33 -46 -61 hvcurveto
          -104 -79 -82 -126 -130 vvcurveto
          -112 85 -43 96 -7 vhcurveto
          -19 -13 -12 -21 -22 vvcurveto
          -30 37 -29 -4 -24 vhcurveto
          -56 callsubr
          16 10 15 15 10 vhcurveto
          59 61 13 18 44 hvcurveto
          65 27 58 40 46 61 14 19 -6 11 -10 -12 -49 -61 -56 -36 -70 -27 rrcurveto
          -112 -43 -195 -13 169 vvcurveto
          103 68 129 94 83 vhcurveto
          34 29 38 23 39 14 45 17 89 14 28 -47 19 -30 -7 -59 -18 -29 -3 -6 20 5 2 6 10 29 26 29 5 21 rrcurveto
          endchar
        </CharString>
        <CharString name="Ccircumflex">
          238 568 18 hstem
          -90 callgsubr
          -205 132 -107 callsubr
        </CharString>
        <CharString name="Cdotaccent">
          238 568 18 8 20 hstemhm
          hintmask 10000000
          -90 callgsubr
          hintmask 01000000
          -85 174 rmoveto
          -95 callsubr
        </CharString>
        <CharString name="D">
          -70 callgsubr
          endchar
        </CharString>
        <CharString name="D.roman">
          -60 callgsubr
          endchar
        </CharString>
        <CharString name="D.roman_caron">
          -60 callgsubr
          -42 384 -103 callgsubr
        </CharString>
        <CharString name="D.roman_croat">
          320 -1 20 -17 -21 260 22 247 22 hstemhm
          113 57 330 74 hintmask 01111100
          623 412 rmoveto
          80 -32 -79 40 -127 -34 -44 -8 -55 hhcurveto
          -29 -34 3 4 -39 hvcurveto
          -11 -17 rlineto
          2 10 10 1 8 hhcurveto
          22 16 -4 -23 -32 -12 -75 -25 -120 hvcurveto
          -19 1 -17 1 -13 2 -8 1 -25 -30 6 1 rrcurveto
          2 25 23 1 24 hhcurveto
          -2 -7 -2 -8 -1 -7 -34 -164 -2 -18 -45 -17 -14 -6 -16 -3 -16 1 rrcurveto
          -5 -4 0 1 -3 hvcurveto
          -11 -16 rlineto
          4 57 48 2 39 hhcurveto
          hintmask 10111100
          54 30 -5 36 hhcurveto
          156 161 75 197 41 hvcurveto
          4 21 2 19 20 vvcurveto
          29 -5 27 -9 25 vhcurveto
          -321 -146 rmoveto
          -1 -18 -26 -2 -33 hhcurveto
          27 137 21 78 14 20 rrcurveto
          8 9 25 4 41 hhcurveto
          110 91 -63 -121 -16 -2 -17 -3 -18 hvcurveto
          -158 -31 -82 -98 -160 hhcurveto
          -58 -31 14 27 -7 hvcurveto
          11 68 11 61 10 52 53 -3 rcurveline
          -1 9 24 29 -5 hhcurveto
          endchar
        </CharString>
        <CharString name="D.sm">
          137 -1 21 -19 -21 371 22 hstemhm
          76 46 220 58 hintmask 01111000
          434 289 rmoveto
          55 -22 -55 29 -89 -24 -29 -5 -38 hhcurveto
          -22 -25 2 2 -26 hvcurveto
          -14 -20 rlineto
          2 10 8 1 7 hhcurveto
          15 9 -2 -12 -10 -42 -251 -18 -41 hvcurveto
          -14 -6 -24 -9 -24 hhcurveto
          -2 -2 0 2 -6 hvcurveto
          -13 -20 rlineto
          3 39 39 2 27 hhcurveto
          hintmask 10111000
          30 24 -4 28 hhcurveto
          120 136 74 159 20 -4 19 -7 18 hvcurveto
          -52 -97 rmoveto
          -105 -19 -56 -67 -108 hhcurveto
          -38 -21 9 16 -4 hvcurveto
          9 54 6 45 9 38 6 27 rcurveline
          122 26 -10 20 68 hhcurveto
          75 61 -44 -79 -11 -1 -12 -3 -13 hvcurveto
          endchar
        </CharString>
        <CharString name="DEL">
          557 endchar
        </CharString>
        <CharString name="Dcaron">
          -70 callgsubr
          -28 295 -103 callgsubr
        </CharString>
        <CharString name="Dcroat">
          337 -2 18 227 24 247 -74 callgsubr
          -48 -89 rcurveline
          -22 -1 -33 -1 -11 -3 -1 -2 rcurveline
          -5 -1 9 -13 6 hhcurveto
          13 14 0 1 14 hvcurveto
          -37 -69 -38 -70 -41 -67 -59 callgsubr
          -384 -114 rmoveto
          1 -2 33 callgsubr
          -8 3 -22 3 -21 1 rrcurveto
          1 vlineto
          42 callgsubr
          -46 -13 -47 -17 -43 hvcurveto
          -34 callgsubr
          56 109 rcurveline
          2 18 19 1 19 hhcurveto
          3 3 2 3 1 hvcurveto
          endchar
        </CharString>
        <CharString name="Delta">
          320 0 53 645 -20 hstem
          465 104 vstem
          594 1 rmoveto
          -44 125 -95 387 28 62 rrcurveto
          -58 hlineto
          -3 -3 0 -1 -2 hvcurveto
          -37 -6 -17 -39 -20 -34 -88 -149 -169 -279 -37 -67 rrcurveto
          82 hlineto
          0 257 1 206 vhcurveto
          -445 43 rmoveto
          48 113 112 225 83 121 1 -55 46 -258 48 -146 rrcurveto
          endchar
        </CharString>
        <CharString name="E">
          -7 callgsubr
          hstem
          -104 callsubr
          endchar
        </CharString>
        <CharString name="E.roman">
          -95 callgsubr
          endchar
        </CharString>
        <CharString name="E.roman_acute">
          -95 callgsubr
          -21 539 -102 callgsubr
        </CharString>
        <CharString name="E.roman_caron">
          -95 callgsubr
          -13 543 -103 callgsubr
        </CharString>
        <CharString name="E.roman_circumflex">
          -95 callgsubr
          -225 478 -107 callsubr
        </CharString>
        <CharString name="E.roman_dieresis">
          48 callsubr
          -17 20 2 -20 hstemhm
          112 58 hintmask 10101010
          469 -13 callgsubr
          hintmask 10110010
          1 13 22 2 29 hhcurveto
          78 24 -8 -21 -5 -4 -11 -18 -34 hvcurveto
          16 -3 18 47 rlineto
          3 23 50 2 vvcurveto
          6 -3 3 -3 vhcurveto
          -80 -76 -2 -72 hhcurveto
          hintmask 01100110
          -89 callsubr
          hintmask 10101010
          -58 callsubr
          -60 527 rmoveto
          -106 callsubr
          -116 hmoveto
          -95 callsubr
        </CharString>
        <CharString name="E.roman_dotaccent">
          48 callsubr
          5 -20 61 20 hstemhm
          112 58 hintmask 10110110
          469 110 rmoveto
          -99 callsubr
          hintmask 01101110
          -89 callsubr
          hintmask 10110110
          -58 callsubr
          -118 514 rmoveto
          -95 callsubr
        </CharString>
        <CharString name="E.roman_grave">
          48 callsubr
          3 20 -18 -20 hstemhm
          112 58 hintmask 10111010
          469 110 rmoveto
          -99 callsubr
          hintmask 01100110
          -89 callsubr
          hintmask 10111010
          -58 callsubr
          -201 542 -94 callsubr
        </CharString>
        <CharString name="E.roman_macron">
          435 -5 29 callsubr
          5 -20 72 24 hstemhm
          112 58 hintmask 10110110
          469 110 rmoveto
          -99 callsubr
          hintmask 01101110
          -89 callsubr
          hintmask 10110110
          -58 callsubr
          -30 491 -97 callsubr
        </CharString>
        <CharString name="E.roman_ogonek">
          185 -114 22 87 29 callsubr
          5 -20 hstemhm
          112 58 hintmask 11011010
          303 -91 -74 callsubr
          37 22 55 23 18 vhcurveto
          31 -2 41 -2 50 -4 rrcurveto
          -1 4 3 0 4 hhcurveto
          47 10 70 46 28 hvcurveto
          -99 callsubr
          hintmask 10110110
          -89 callsubr
          7 20 -1 -2 31 hvcurveto
          -29 -22 -44 -76 -43 -59 callsubr
          endchar
        </CharString>
        <CharString name="E.sm">
          43 -4 26 -23 -21 204 25 137 28 3 -20 hstemhm
          75 47 hintmask 01101100
          326 83 rmoveto
          -9 4 rlineto
          hintmask 10101100
          -25 callsubr
          3 26 13 13 14 16 callgsubr
          hintmask 01110100
          10 13 1 19 hhcurveto
          51 16 -3 -13 -3 -3 -8 -14 -26 hvcurveto
          19 -3 13 35 4 9 4 10 rlineto
          5 10 3 8 4 vvcurveto
          5 -3 3 -3 vhcurveto
          -50 -63 -2 -45 hhcurveto
          -24 -33 2 4 -19 hvcurveto
          -11 -20 rlineto
          6 5 1 5 hhcurveto
          24 8 -4 -20 -44 5 30 -36 -164 hvcurveto
          -133 -29 -4 -6 -51 62 callgsubr
          hintmask 10101100
          35 callgsubr
          endchar
        </CharString>
        <CharString name="Eacute">
          -7 callgsubr
          hstem
          -104 callsubr
          21 255 -102 callgsubr
        </CharString>
        <CharString name="Ecaron">
          -7 callgsubr
          hstem
          -104 callsubr
          9 222 -103 callgsubr
        </CharString>
        <CharString name="Ecircumflex">
          -7 callgsubr
          hstem
          -104 callsubr
          -203 184 -107 callsubr
        </CharString>
        <CharString name="Edieresis">
          -7 callgsubr
          -17 20 hstemhm
          hintmask 11100000
          -104 callsubr
          hintmask 00010000
          -153 259 rmoveto
          -106 callsubr
          116 hmoveto
          -95 callsubr
        </CharString>
        <CharString name="Edotaccent">
          -7 callgsubr
          -13 20 hstemhm
          hintmask 11100000
          -104 callsubr
          hintmask 00010000
          -99 187 rmoveto
          -95 callsubr
        </CharString>
        <CharString name="Egrave">
          -7 callgsubr
          -16 20 hstemhm
          hintmask 11100000
          -104 callsubr
          hintmask 00010000
          -189 255 -94 callsubr
        </CharString>
        <CharString name="Emacron">
          -7 callgsubr
          28 24 hstemhm
          hintmask 11100000
          -104 callsubr
          hintmask 00010000
          -46 194 -97 callsubr
        </CharString>
        <CharString name="Eng">
          432 475 25 hstem
          751 419 rmoveto
          -36 -89 -29 -78 -62 -163 -52 130 -54 181 -9 101 11 8 34 7 14 -1 7 -1 23 32 -9 -1 rrcurveto
          -121 hlineto
          -79 -191 2 -104 36 hvcurveto
          6 -18 31 -36 17 -9 7 -3 11 9 -6 3 -27 13 -16 44 19 29 rrcurveto
          40 28 92 6 71 hhcurveto
          55 hlineto
          -48 -9 -37 -42 -20 -50 -50 -120 -40 -123 -90 -99 rrcurveto
          -40 -38 -49 -24 -46 hhcurveto
          -48 -40 46 63 hvcurveto
          8 82 callgsubr
          2 -20 6 -17 vhcurveto
          -48 19 81 callsubr
          70 27 38 31 hvcurveto
          85 100 56 161 35 92 4 12 11 33 10 7 43 -139 58 -165 26 -140 rrcurveto
          -147 -68 -86 -269 -190 hhcurveto
          -58 -43 42 81 hvcurveto
          10 -12 10 -28 vvcurveto
          -24 2 -26 8 -22 vhcurveto
          -62 23 49 -31 50 hhcurveto
          216 78 317 141 64 hvcurveto
          6 3 5 3 4 3 6 5 3 6 -2 8 -4 15 rcurveline
          3 9 158 514 102 -2 rrcurveto
          9 20 -7 -17 -1 hvcurveto
          -1 -2 10 3 1 vvcurveto
          1 36 2 39 -65 -7 -31 -29 rlinecurve
          -32 -29 -33 -65 -32 -76 rrcurveto
          endchar
        </CharString>
        <CharString name="Eng.roma">
          356 -325 21 842 -20 hstem
          -71 callsubr
        </CharString>
        <CharString name="Eng.roman">
          356 -325 21 260 -21 289 -20 334 -20 hstem
          74 48 -35 35 305 63 24 36 vstem
          -71 callsubr
        </CharString>
        <CharString name="Eogonek">
          189 -132 22 403 -21 199 27 75 18 hstem
          305 -109 -74 callsubr
          40 26 61 24 13 vhcurveto
          66 1 57 6 25 7 39 12 38 55 41 51 4 5 -5 14 -5 -7 rrcurveto
          -94 -74 -118 -31 -115 hhcurveto
          -56 1 -44 13 41 vvcurveto
          36 33 62 16 31 vhcurveto
          15 27 8 17 13 24 3 5 4 2 7 1 rrcurveto
          3 83 36 -6 83 hhcurveto
          36 27 57 -14 -23 hvcurveto
          -17 -9 -45 -3 -13 -1 rrcurveto
          -1 -41 -60 2 -46 hhcurveto
          -8 -3 3 8 3 hvcurveto
          37 64 41 75 44 62 10 13 15 6 29 2 41 2 48 1 18 -6 38 -12 -4 -47 -8 -34 -3 -12 17 7 6 11 17 callgsubr
          rrcurveto
          6 -97 -98 -7 -97 hhcurveto
          -57 -136 2 -95 26 hvcurveto
          4 -17 22 -33 12 -7 5 -3 8 8 -4 2 -19 12 -1 31 14 26 28 53 132 3 57 3 -24 -6 -25 -22 -12 -19 -26 -40 -27 -49 -16 -29 -52 -92 -54 -91 -51 -92 rrcurveto
          -34 -62 23 -26 66 -6 rrcurveto
          -5 43 46 -1 44 hhcurveto
          -29 -20 -47 -79 -45 -59 callsubr
          endchar
        </CharString>
        <CharString name="Eth">
          337 -2 18 152 -21 367 -74 callgsubr
          -51 -95 rcurveline
          -23 1 -22 1 -13 3 -10 1 -25 -35 5 1 27 2 23 1 25 1 -36 -68 -37 -67 -39 -65 -59 callgsubr
          -363 -105 rmoveto
          -2 -19 -26 -2 -33 hhcurveto
          3 5 28 55 26 57 31 54 rlinecurve
          0 callgsubr
          -46 -13 -47 -17 -43 hvcurveto
          -34 callgsubr
          49 98 rcurveline
          25 -1 19 -3 18 -1 rrcurveto
          -1 9 26 34 -6 hhcurveto
          endchar
        </CharString>
        <CharString name="Euro">
          205 -1 22 143 22 57 22 154 15 hstem
          100 53 vstem
          400 267 rmoveto
          -23 -76 -2 -44 hhcurveto
          -63 hlineto
          20 33 28 33 34 30 24 21 27 15 27 10 32 12 62 10 20 -33 13 -21 -2 -41 -13 -22 -3 -4 15 4 2 4 6 21 20 22 3 15 5 21 -14 15 -22 11 rrcurveto
          10 -23 -20 3 -25 hhcurveto
          -58 -74 -26 -34 -45 hvcurveto
          -42 -32 -32 -37 -22 -39 rrcurveto
          1 -15 -11 1 -5 hhcurveto
          2 -9 -24 -31 5 hhcurveto
          46 3 -8 -19 -6 -18 -4 -18 rlinecurve
          -26 1 -23 1 -8 1 rrcurveto
          1 -9 -24 -30 5 hhcurveto
          81 3 -9 -76 32 -65 73 -18 rlinecurve
          115 -27 113 63 62 99 3 5 -5 14 -7 -10 -53 -79 -108 -71 -93 28 -56 18 -24 54 10 65 rrcurveto
          43 hlineto
          32 65 -2 -2 21 hvcurveto
          -1 9 24 30 -5 hhcurveto
          -1 -24 -76 -2 -44 hhcurveto
          -40 1 5 18 7 18 10 19 rlinecurve
          1 29 27 0 16 hhcurveto
          33 -1 65 -2 20 -2 rrcurveto
          9 24 29 -5 hhcurveto
          endchar
        </CharString>
        <CharString name="Euro.taboldstyle">
          115 135 83 -20 158 hstemhm
          hintmask 10000000
          292 219 rmoveto
          -18 -60 -1 -35 hhcurveto
          -50 hlineto
          16 27 22 27 27 24 19 17 21 12 21 9 26 9 48 8 16 -26 10 -18 -1 -33 -10 -18 -3 -3 12 3 2 3 4 17 16 18 3 13 4 17 -12 12 -17 9 rrcurveto
          hintmask 01000000
          8 -18 -16 3 -19 hhcurveto
          -46 -58 -22 -27 -36 hvcurveto
          hintmask 10000000
          -33 -27 -25 -30 -18 -32 rrcurveto
          1 -11 -9 1 -4 hhcurveto
          2 -7 -19 -26 4 hhcurveto
          36 3 -6 -16 -5 -14 -3 -15 rlinecurve
          1 -20 -19 1 -6 hhcurveto
          1 -7 -19 -24 4 hhcurveto
          14 1 25 0 25 1 -7 -62 25 -53 57 -15 91 -22 89 52 49 81 2 4 -4 11 -5 -8 -42 -64 -85 -58 -73 22 -44 15 -19 44 8 53 rrcurveto
          33 hlineto
          26 51 -1 -2 16 hvcurveto
          -1 8 18 25 -3 hhcurveto
          -1 -19 -60 -2 -35 hhcurveto
          -31 1 3 15 6 14 8 16 rlinecurve
          1 23 21 0 13 hhcurveto
          93 -4 rlineto
          7 19 23 -4 hhcurveto
          endchar
        </CharString>
        <CharString name="F">
          293 205 29 303 15 hstem
          753 439 rmoveto
          22 39 41 63 -77 4 rrcurveto
          6 -96 -70 -3 -136 hhcurveto
          -79 -197 -1 -104 37 hvcurveto
          6 -18 30 -36 17 -9 7 -3 12 9 -6 3 -27 13 -13 37 19 29 26 38 86 16 77 5 rrcurveto
          2 30 73 3 14 hhcurveto
          -25 -10 -43 -23 -21 -41 -56 -110 -98 -218 -53 -58 rrcurveto
          -41 -38 -44 -31 -47 hhcurveto
          -47 -35 33 63 hvcurveto
          8 1 -22 callsubr
          -12 96 callsubr
          1 -21 0 callsubr
          46 25 36 34 hvcurveto
          59 63 42 96 39 78 rrcurveto
          5 3 4 3 7 hhcurveto
          156 hlineto
          25 -15 -41 -21 -9 hvcurveto
          -3 -6 16 6 2 6 6 16 13 14 10 21 rrcurveto
          29 15 -20 3 -38 -40 -74 1 -27 hhcurveto
          -9 -2 3 8 3 hvcurveto
          29 62 46 107 42 32 35 26 87 5 39 -13 37 -12 -3 -47 -9 -34 -3 -12 18 7 5 11 rrcurveto
          endchar
        </CharString>
        <CharString name="F.roman">
          158 2 -21 283 27 210 29 5 -20 hstemhm
          113 58 hintmask 11101000
          524 530 rmoveto
          -94 -90 -2 -86 hhcurveto
          hintmask 11011000
          -34 -36 2 5 -37 hvcurveto
          -10 -16 rlineto
          1 4 4 0 6 hhcurveto
          34 20 -6 -30 hvcurveto
          -1 -33 -8 -67 -23 -101 -21 -91 rcurveline
          -145 -30 -12 -34 -81 50 callgsubr
          -11 -16 rlineto
          5 68 45 3 20 hhcurveto
          62 41 -3 -5 19 hvcurveto
          12 17 rlineto
          -12 hlineto
          -40 -30 15 23 24 3 29 7 33 hvcurveto
          25 127 rlineto
          22 hlineto
          33 101 5 -32 -6 -3 -6 -5 -9 hvcurveto
          15 -3 rlineto
          7 38 15 27 7 vvcurveto
          3 -2 2 -4 vhcurveto
          -174 -2 23 109 19 69 14 30 rlinecurve
          hintmask 11101000
          1 15 43 2 60 hhcurveto
          67 22 -5 -21 -12 -9 -15 -14 -25 hvcurveto
          16 -3 18 47 rlineto
          4 9 21 45 4 vvcurveto
          3 -2 2 -4 vhcurveto
          endchar
        </CharString>
        <CharString name="F.sm">
          24 1 -21 202 25 137 28 3 -20 hstem
          76 46 vstem
          364 372 rmoveto
          -60 -73 -2 -54 hhcurveto
          -19 -31 2 4 -26 hvcurveto
          -13 -20 rlineto
          1 6 6 1 5 hhcurveto
          24 11 -5 -17 -22 -7 -45 -15 -71 hvcurveto
          -15 -62 rlineto
          -92 -20 -7 -28 -53 -3 -2 1 -1 hhcurveto
          -5 hlineto
          -12 -19 rlineto
          3 47 36 3 13 hhcurveto
          42 30 -2 -4 14 hvcurveto
          13 19 rlineto
          -27 -31 4 17 16 2 21 5 24 hvcurveto
          16 84 rlineto
          18 82 5 -21 -2 -2 -11 -4 -4 hvcurveto
          19 -3 4 30 -4 -14 7 14 rlinecurve
          9 8 12 4 vvcurveto
          4 -2 2 -5 vhcurveto
          -38 -40 -2 -38 hhcurveto
          15 69 13 47 8 21 rrcurveto
          1 9 18 0 30 hhcurveto
          22 hlineto
          43 15 -1 -14 -7 -7 -14 -10 -16 hvcurveto
          18 -4 13 35 rlineto
          10 18 8 19 6 vvcurveto
          4 -2 2 -4 vhcurveto
          endchar
        </CharString>
        <CharString name="G">
          44 callsubr
          hstem
          -100 callsubr
          endchar
        </CharString>
        <CharString name="G.roman">
          21 callgsubr
          -101 callgsubr
          endchar
        </CharString>
        <CharString name="G.roman_breve">
          21 callgsubr
          48 15 -101 callgsubr
          -62 388 -82 callgsubr
        </CharString>
        <CharString name="G.roman_circumflex">
          21 callgsubr
          -101 callgsubr
          -282 349 -107 callsubr
        </CharString>
        <CharString name="G.roman_circumflex.001">
          21 callgsubr
          -101 callgsubr
          -282 349 -107 callsubr
        </CharString>
        <CharString name="G.roman_commaaccent">
          21 callgsubr
          -101 callgsubr
          -300 -332 -103 callsubr
        </CharString>
        <CharString name="G.roman_commaacent">
          21 callgsubr
          -101 callgsubr
          -300 -332 -103 callsubr
        </CharString>
        <CharString name="G.roman_dotaccent">
          21 callgsubr
          50 20 -101 callgsubr
          -174 390 rmoveto
          -95 callsubr
        </CharString>
        <CharString name="G.roman_dotaccent.001">
          21 callgsubr
          50 20 -101 callgsubr
          -174 390 rmoveto
          -95 callsubr
        </CharString>
        <CharString name="G.sm">
          171 -1 24 323 28 hstem
          30 55 256 47 vstem
          465 185 rmoveto
          -7 -26 -31 -4 -35 hhcurveto
          -21 -19 1 5 -16 hvcurveto
          -7 -20 rlineto
          14 hlineto
          19 24 3 -23 -27 -17 -64 -7 -19 hvcurveto
          -4 -24 -25 -3 -20 hhcurveto
          -96 -56 50 84 129 82 60 98 75 42 -25 -34 -8 1 -3 -8 -18 hvcurveto
          15 -2 1 6 rlineto
          24 6 22 53 13 hhcurveto
          3 10 rlineto
          17 -43 -49 8 -53 hhcurveto
          -16 hlineto
          -141 -5 -104 -92 -134 vvcurveto
          -52 19 -39 37 -24 vhcurveto
          -1 hlineto
          -20 30 40 -9 50 44 79 11 13 hhcurveto
          4 3 0 -1 8 hvcurveto
          6 6 rlineto
          -1 3 0 3 5 vvcurveto
          1 12 0 19 6 22 5 20 rcurveline
          42 7 7 26 33 hhcurveto
          endchar
        </CharString>
        <CharString name="Gbreve">
          44 callsubr
          118 15 hstem
          -100 callsubr
          -58 388 -82 callgsubr
        </CharString>
        <CharString name="Gcircumflex">
          44 callsubr
          hstem
          -100 callsubr
          -254 344 -107 callsubr
        </CharString>
        <CharString name="Gcommaaccent">
          44 callsubr
          hstem
          -100 callsubr
          -405 -386 -103 callsubr
        </CharString>
        <CharString name="Gdotaccent">
          44 callsubr
          106 20 hstemhm
          hintmask 11000000
          -100 callsubr
          hintmask 00100000
          -147 376 rmoveto
          -95 callsubr
        </CharString>
        <CharString name="H">
          -80 callgsubr
          endchar
        </CharString>
        <CharString name="H.roman">
          -72 callsubr
          endchar
        </CharString>
        <CharString name="H.roman_bar">
          434 2 -21 283 25 119 31 97 -20 hstem
          111 59 346 58 vstem
          711 442 rmoveto
          -6 -1 -14 0 -19 -1 9 32 7 23 6 7 36 callgsubr
          21 4 4 -1 4 hhcurveto
          14 14 80 callgsubr
          -10 -16 13 callgsubr
          9 hhcurveto
          23 18 -4 -27 -12 -2 -18 -3 -22 hvcurveto
          -1 -67 -78 0 -30 hhcurveto
          -23 -79 0 1 -62 hvcurveto
          88 25 16 -4 36 -38 callsubr
          -40 -2 -41 -2 rlinecurve
          -55 2 -35 3 -17 2 -11 -16 rcurveline
          2 11 74 callgsubr
          17 -5 -23 -4 -3 -20 -5 -29 hvcurveto
          -5 1 -5 0 -2 1 -10 1 -29 -37 6 1 rrcurveto
          8 15 1 17 hhcurveto
          -19 -114 -35 -194 -23 -48 rrcurveto
          -23 -11 -36 -17 -39 -5 -4 1 -4 hhcurveto
          -10 -16 rlineto
          5 78 44 3 11 hhcurveto
          68 -1 40 -3 12 -4 14 17 rcurveline
          -13 hlineto
          -42 -28 14 21 hvcurveto
          1 24 8 58 19 90 8 38 rcurveline
          2 60 42 2 19 hhcurveto
          226 hlineto
          -1 -3 -3 -8 -2 -14 -3 -17 rcurveline
          -170 -37 -1 -39 -90 -6 -5 1 -4 hhcurveto
          -11 -16 rlineto
          5 79 44 3 10 hhcurveto
          69 -1 39 -3 13 -4 13 17 rcurveline
          -13 hlineto
          -40 -30 13 22 29 39 204 31 124 hvcurveto
          15 hlineto
          -2 11 28 37 -6 hhcurveto
          -133 -149 rmoveto
          -11 -184 -7 -33 hhcurveto
          -19 -99 8 0 hvcurveto
          10 48 8 38 8 30 rrcurveto
          1 67 75 1 27 hhcurveto
          24 -2 84 -1 65 -1 -5 -31 -8 -39 -9 -45 rrcurveto
          endchar
        </CharString>
        <CharString name="H.roman_circumflex">
          -72 callsubr
          -303 583 -107 callsubr
        </CharString>
        <CharString name="H.sm">
          200 1 -21 202 24 170 -20 hstem
          86 48 231 47 vstem
          485 17 rmoveto
          -27 -32 2 19 18 7 41 12 59 hvcurveto
          7 34 15 72 21 78 6 7 rlinecurve
          -1 vlineto
          9 7 12 4 15 hhcurveto
          9 hlineto
          18 18 -25 77 callsubr
          -20 rcurveline
          2 9 7 1 7 hhcurveto
          19 8 -3 -17 -21 -6 -44 -14 -65 hvcurveto
          -5 -9 0 -1 -10 hvcurveto
          -49 -2 rlineto
          -2 -38 -27 0 -15 hhcurveto
          -8 -1 -17 1 -18 2 -24 2 rcurveline
          1 -6 -4 0 -1 hhcurveto
          17 81 12 46 8 11 rrcurveto
          -1 vlineto
          8 8 13 5 15 hhcurveto
          8 hlineto
          18 18 -24 -3 -35 -2 -29 -2 rlinecurve
          -34 2 -27 2 -15 2 -14 -20 13 callgsubr
          7 hhcurveto
          16 10 -3 -16 -10 -39 -244 -24 -45 hvcurveto
          -9 -17 -24 -9 -21 1 rrcurveto
          -2 -2 1 -1 hhcurveto
          -6 hlineto
          -12 -19 35 3 35 3 20 -1 6 1 rlinecurve
          46 -1 30 -2 8 -3 16 19 rcurveline
          -37 -22 3 21 hvcurveto
          1 19 6 40 12 56 5 23 rcurveline
          37 2 19 1 14 -1 9 1 rlinecurve
          152 hlineto
          -5 -26 rlineto
          -106 -23 1 -34 -62 57 callsubr
          46 -1 29 -2 9 -3 rrcurveto
          endchar
        </CharString>
        <CharString name="HT">
          -289 endchar
        </CharString>
        <CharString name="Hbar">
          481 203 18 33 27 171 33 41 33 hstem
          303 38 vstem
          866 471 rmoveto
          2 -5 0 -3 1 vhcurveto
          -10 2 -16 2 -20 1 17 27 16 21 11 11 32 33 11 -10 21 3 rrcurveto
          85 callgsubr
          -9 -11 -12 -18 -13 -23 rrcurveto
          3 -55 -59 1 -29 hhcurveto
          -23 -46 0 -1 -45 hvcurveto
          23 28 28 18 29 3 rrcurveto
          6 11 18 -4 -19 hvcurveto
          -6 -37 -79 2 -97 37 callsubr
          14 26 10 20 26 13 31 8 68 19 78 -4 71 3 -25 -5 -25 -18 -20 -22 -30 -1 -27 -2 -14 -1 -3 -3 rcurveline
          -7 -3 26 -18 16 hhcurveto
          10 hlineto
          -5 -7 -3 -7 -3 -6 -24 -48 -28 -58 -29 -53 -93 3 rcurveline
          -21 -2 -57 -46 24 4 38 6 50 2 43 1 -32 -62 -30 -56 -30 -33 27 callsubr
          -47 -32 callsubr
          1 -22 callsubr
          -12 96 callsubr
          1 -21 7 -17 vhcurveto
          -47 18 42 -24 41 hhcurveto
          46 50 25 36 34 hvcurveto
          43 46 39 79 38 76 rrcurveto
          48 hlineto
          83 48 0 -4 41 hvcurveto
          16 -1 19 11 13 12 -35 -69 -29 -61 -12 -31 -21 -59 40 -52 54 2 25 1 25 5 20 11 55 30 42 55 25 36 5 8 -1 17 -8 -11 -24 -32 -40 -54 -48 -27 rrcurveto
          -9 -17 -24 -10 -21 hhcurveto
          -45 4 41 31 7 hvcurveto
          15 62 105 204 74 116 rrcurveto
          15 14 1 15 hhcurveto
          8 9 2 4 2 hvcurveto
          -223 -190 rmoveto
          -8 -18 -41 -4 -12 hhcurveto
          -1 -41 -60 1 -46 hhcurveto
          -3 -18 1 1 -25 hvcurveto
          31 61 48 90 13 23 4 7 rcurveline
          89 2 90 6 89 3 -30 -51 -37 -67 -33 -64 rrcurveto
          endchar
        </CharString>
        <CharString name="Hcircumflex">
          -80 callgsubr
          -322 59 -107 callsubr
        </CharString>
        <CharString name="I">
          76 -10 38 491 23 -99 callgsubr
          endchar
        </CharString>
        <CharString name="I.roman">
          87 callsubr
          hstem
          128 58 vstem
          28 callsubr
          14 17 80 callgsubr
          -11 -18 rcurveline
          2 11 10 2 9 hhcurveto
          21 18 -5 -25 -21 -59 -347 -34 -73 hvcurveto
          -24 -11 -27 -13 -43 -6 -5 1 -4 hhcurveto
          -11 -16 rlineto
          5 79 44 3 10 hhcurveto
          68 -1 40 83 callsubr
          endchar
        </CharString>
        <CharString name="I.roman_acute">
          51 2 -21 555 -20 hstem
          144 58 vstem
          304 34 callsubr
          14 17 80 callgsubr
          -11 -18 rcurveline
          2 11 10 2 9 hhcurveto
          21 18 -5 -25 -21 -59 -347 -34 -73 hvcurveto
          -24 -11 -27 -13 -43 -6 -5 1 -4 hhcurveto
          -11 -16 rlineto
          5 79 44 3 10 hhcurveto
          68 -1 40 83 callsubr
          106 661 -102 callgsubr
        </CharString>
        <CharString name="I.roman_circumflex">
          51 2 -21 555 -20 hstem
          144 58 vstem
          304 34 callsubr
          14 17 80 callgsubr
          -11 -18 rcurveline
          2 11 10 2 9 hhcurveto
          21 18 -5 -25 -21 -59 -347 -34 -73 hvcurveto
          -24 -11 -27 -13 -43 -6 -5 1 -4 hhcurveto
          -11 -16 rlineto
          5 79 44 3 10 hhcurveto
          68 -1 40 83 callsubr
          -99 596 -107 callsubr
        </CharString>
        <CharString name="I.roman_dieresis">
          51 2 -21 542 20 -7 -20 hstemhm
          128 58 hintmask 11010000
          28 callsubr
          hintmask 10110000
          14 17 80 callgsubr
          -11 -18 rcurveline
          2 11 10 2 9 hhcurveto
          21 18 -5 -25 -21 -59 -347 -34 -73 hvcurveto
          -24 -11 -27 -13 -43 -6 -5 1 -4 hhcurveto
          -11 -16 rlineto
          5 79 44 3 10 hhcurveto
          68 -1 40 83 callsubr
          71 649 rmoveto
          -106 callsubr
          -116 hmoveto
          -95 callsubr
        </CharString>
        <CharString name="I.roman_dotaccent">
          87 callsubr
          74 20 hstem
          128 58 vstem
          28 callsubr
          14 17 80 callgsubr
          -11 -18 rcurveline
          2 11 10 2 9 hhcurveto
          21 18 -5 -25 -21 -59 -347 -34 -73 hvcurveto
          -24 -11 -27 -13 -43 -6 -5 1 -4 hhcurveto
          -11 -16 rlineto
          5 79 44 3 10 hhcurveto
          68 -1 40 83 callsubr
          9 640 rmoveto
          -95 callsubr
        </CharString>
        <CharString name="I.roman_grave">
          87 callsubr
          28 20 74 callsubr
          304 34 callsubr
          14 17 80 callgsubr
          -11 -18 rcurveline
          2 11 10 2 9 hhcurveto
          21 18 -5 -25 -21 -59 -347 -34 -73 hvcurveto
          -24 -11 -27 -13 -43 -6 -5 1 -4 hhcurveto
          -11 -16 rlineto
          5 79 44 3 10 hhcurveto
          68 -1 40 83 callsubr
          -74 665 -94 callsubr
        </CharString>
        <CharString name="I.roman_macron">
          87 callsubr
          79 24 74 callsubr
          304 34 callsubr
          14 17 80 callgsubr
          -11 -18 rcurveline
          2 11 10 2 9 hhcurveto
          21 18 -5 -25 -21 -59 -347 -34 -73 hvcurveto
          -24 -11 -27 -13 -43 -6 -5 1 -4 hhcurveto
          -11 -16 rlineto
          5 79 44 3 10 hhcurveto
          68 -1 40 83 callsubr
          99 611 -97 callsubr
        </CharString>
        <CharString name="I.roman_ogonek">
          51 -112 22 92 -21 555 -20 74 callsubr
          239 -89 32 callgsubr
          57 -1 34 -4 12 -3 13 17 rcurveline
          -13 hlineto
          -40 -30 13 22 24 11 59 18 93 hvcurveto
          260 49 14 34 60 4 5 -1 5 hhcurveto
          14 17 80 callgsubr
          -11 -18 rcurveline
          2 11 10 2 9 hhcurveto
          21 18 -5 -25 -21 -59 -347 -34 -73 hvcurveto
          -24 -11 -27 -13 -43 -6 -5 1 -4 hhcurveto
          -11 -16 rlineto
          5 75 43 3 13 hhcurveto
          -29 -23 -44 -75 -43 -59 callsubr
          endchar
        </CharString>
        <CharString name="I.roman_tilde">
          51 2 -21 522 19 13 18 -17 -20 hstemhm
          128 58 hintmask 11101000
          28 callsubr
          hintmask 10011000
          14 17 12 callgsubr
          hintmask 11101000
          -24 callsubr
          -11 -18 rcurveline
          2 11 10 2 9 hhcurveto
          21 18 -5 -25 -21 -59 -347 -34 -73 hvcurveto
          -24 -11 -27 -13 -43 -6 -5 1 -4 hhcurveto
          -11 -16 rlineto
          5 79 44 3 10 hhcurveto
          68 -1 40 83 callsubr
          97 654 -96 callgsubr
        </CharString>
        <CharString name="I.sm">
          -51 1 -21 396 -20 hstem
          97 46 vstem
          216 17 rmoveto
          -28 -30 2 19 18 7 41 11 62 hvcurveto
          12 57 rlineto
          131 27 7 10 37 hhcurveto
          10 hlineto
          17 20 -24 77 callsubr
          -22 rcurveline
          2 10 12 2 5 hhcurveto
          13 10 -5 -13 -11 -40 -235 -23 -56 hvcurveto
          -15 -6 -19 -7 -27 57 callsubr
          45 -1 29 -2 10 -3 rrcurveto
          endchar
        </CharString>
        <CharString name="Iacute">
          76 -10 38 491 23 183 -20 -99 callgsubr
          -18 166 -102 callgsubr
        </CharString>
        <CharString name="Icircumflex">
          76 -10 38 491 23 165 -20 -99 callgsubr
          -232 95 -107 callsubr
        </CharString>
        <CharString name="Idieresis">
          76 574 20 -99 callgsubr
          -72 170 rmoveto
          -106 callsubr
          -116 hmoveto
          -95 callsubr
        </CharString>
        <CharString name="Idotaccent">
          76 594 20 -99 callgsubr
          -110 114 rmoveto
          -95 callsubr
        </CharString>
        <CharString name="Igrave">
          76 575 20 -99 callgsubr
          -249 166 -94 callsubr
        </CharString>
        <CharString name="Imacron">
          76 596 24 -99 callgsubr
          -20 82 -97 callsubr
        </CharString>
        <CharString name="Iogonek">
          76 -122 22 hstem
          200 -99 -74 callsubr
          35 20 52 22 21 vhcurveto
          40 7 44 25 27 30 90 96 60 179 40 90 9 15 rcurveline
          29 49 47 32 32 5 rrcurveto
          5 26 28 2 13 hhcurveto
          13 15 -160 -1 rlineto
          -43 -108 15 -32 -38 hvcurveto
          -18 -16 0 -25 1 -13 2 -31 callgsubr
          10 8 rcurveline
          -2 4 -9 23 -1 11 rrcurveto
          73 -6 123 4 39 hhcurveto
          30 hlineto
          -33 -22 -28 -37 -19 -40 -55 -118 -44 -104 -90 -99 27 callsubr
          -47 -32 callsubr
          -11 8 -22 vvcurveto
          -19 2 -20 46 callgsubr
          18 42 -23 41 hhcurveto
          2 hlineto
          -29 -28 -37 -67 -40 -59 callsubr
          endchar
        </CharString>
        <CharString name="Itilde">
          76 502 19 13 18 -99 callgsubr
          -19 123 -96 callgsubr
        </CharString>
        <CharString name="J">
          -52 callsubr
          endchar
        </CharString>
        <CharString name="J.roman">
          -42 callgsubr
          endchar
        </CharString>
        <CharString name="J.roman_circumflex">
          -42 callgsubr
          -188 77 -107 callsubr
        </CharString>
        <CharString name="J.sm">
          -63 -9 22 363 -20 hstem
          124 50 vstem
          314 377 rmoveto
          -24 -3 -34 -2 -30 -2 90 callsubr
          8 1 7 hhcurveto
          16 10 -3 -14 -19 -17 -124 -30 -114 hvcurveto
          -50 -13 -20 -22 -34 hhcurveto
          -17 -9 9 19 17 2 12 8 18 hvcurveto
          -14 4 rlineto
          -51 -15 -10 -25 -7 hhcurveto
          -2 -6 rlineto
          -20 32 27 1 21 hhcurveto
          97 -11 59 210 50 hvcurveto
          109 22 13 -10 27 hhcurveto
          8 hlineto
          endchar
        </CharString>
        <CharString name="Jcircumflex">
          -52 callsubr
          -189 78 -107 callsubr
        </CharString>
        <CharString name="K">
          -72 callgsubr
          endchar
        </CharString>
        <CharString name="K.roman">
          -66 callsubr
          endchar
        </CharString>
        <CharString name="K.roman_commaaccent">
          -66 callsubr
          -255 -83 -103 callsubr
        </CharString>
        <CharString name="K.sm">
          157 -3 25 354 -20 hstem
          98 46 vstem
          452 24 rmoveto
          -2 -9 -4 0 -2 hhcurveto
          -47 -54 50 57 -37 hvcurveto
          -52 79 rlineto
          129 153 39 21 30 hhcurveto
          14 15 -85 -6 -34 2 -22 2 -8 1 rlinecurve
          -6 hlineto
          -17 -18 rlineto
          2 12 5 0 6 hhcurveto
          20 7 -5 -10 hvcurveto
          -2 -13 -54 -49 -106 -84 92 -154 rcurveline
          -28 17 31 -16 35 hhcurveto
          15 23 3 6 27 hvcurveto
          -221 11 rmoveto
          -36 -22 4 17 -2 hvcurveto
          1 22 6 38 10 50 13 63 rcurveline
          16 78 14 46 8 12 rrcurveto
          -1 vlineto
          9 9 12 4 14 hhcurveto
          9 hlineto
          18 18 -25 -3 -34 -2 -29 -2 rlinecurve
          -36 2 -28 2 -12 2 -13 -20 rcurveline
          2 9 8 1 7 hhcurveto
          18 10 -2 -18 -19 -7 -40 -12 -60 hvcurveto
          -12 -60 rlineto
          -125 -25 -10 -19 -52 -2 -2 1 -2 hhcurveto
          -5 hlineto
          -13 -18 41 2 rlineto
          1 32 19 2 5 hhcurveto
          46 -1 29 -2 10 -3 rrcurveto
          endchar
        </CharString>
        <CharString name="Kcommaaccent">
          -72 callgsubr
          -203 -584 -103 callsubr
        </CharString>
        <CharString name="L">
          258 -4 37 513 -86 callsubr
          endchar
        </CharString>
        <CharString name="L.roman">
          -77 callgsubr
          endchar
        </CharString>
        <CharString name="L.roman_acute">
          171 -2 24 -7 -21 697 -20 hstemhm
          hintmask 10100000
          469 110 rmoveto
          -9 4 -7 -15 -37 -48 -18 -11 rlinecurve
          -12 -21 -36 -6 -52 hhcurveto
          -74 -23 9 27 44 14 66 12 58 hvcurveto
          277 55 10 20 60 4 4 -1 4 hhcurveto
          14 14 80 callgsubr
          -10 -16 13 callgsubr
          9 hhcurveto
          22 18 -5 -24 -21 -65 -364 -25 -55 hvcurveto
          -24 -11 -38 -16 -36 -5 -4 1 -4 hhcurveto
          94 callgsubr
          2 35 hhcurveto
          26 70 -4 -8 114 hvcurveto
          hintmask 01100000
          -1 6 5 0 3 hhcurveto
          44 13 77 39 25 hvcurveto
          -91 550 -102 callgsubr
        </CharString>
        <CharString name="L.roman_caron">
          -77 callgsubr
          -13 390 -103 callsubr
        </CharString>
        <CharString name="L.roman_commaaccent">
          -77 callgsubr
          -232 -184 -103 callsubr
        </CharString>
        <CharString name="L.sm">
          33 -4 26 -23 -21 398 -20 hstemhm
          75 47 hintmask 01110000
          326 83 rmoveto
          -9 4 rlineto
          hintmask 10110000
          -42 -19 -19 -23 -78 hhcurveto
          -27 -27 4 4 -5 hvcurveto
          1 hlineto
          -4 4 -1 7 8 vvcurveto
          48 19 75 10 46 vhcurveto
          140 29 9 1 33 hhcurveto
          9 hlineto
          18 18 -24 -3 -34 -2 -30 -2 rlinecurve
          90 callsubr
          9 1 6 hhcurveto
          18 8 -3 -17 -16 -44 -246 -18 -36 hvcurveto
          -17 -8 -25 -8 -21 -2 -1 1 -1 hhcurveto
          -7 hlineto
          -11 -19 61 5 rlineto
          14 9 1 4 hhcurveto
          10 hlineto
          4 6 1 5 hhcurveto
          18 48 -3 -6 79 89 callsubr
          11 8 15 48 12 20 rrcurveto
          endchar
        </CharString>
        <CharString name="Lacute">
          258 -4 37 513 -20 199 -86 callsubr
          54 217 -102 callgsubr
        </CharString>
        <CharString name="Lcaron">
          325 515 -86 callsubr
          79 -4 -78 callgsubr
          endchar
        </CharString>
        <CharString name="Lcommaaccent">
          258 -147 -21 164 37 513 -86 callsubr
          -270 -542 -103 callsubr
        </CharString>
        <CharString name="Lslash">
          258 148 23 hstem
          311 249 rmoveto
          -17 -6 -41 -15 -36 -11 136 251 rcurveline
          49 26 39 18 35 hhcurveto
          63 -1 -88 -40 -26 hvcurveto
          -6 -11 15 -1 3 10 11 32 25 19 4 21 rrcurveto
          52 12 -64 17 -49 hhcurveto
          -119 -47 -97 -94 -38 hvcurveto
          -60 -150 -29 -8 -42 -12 -15 -2 rlinecurve
          -8 -1 -13 -34 4 2 25 10 38 11 30 10 -22 -56 rcurveline
          -17 -42 -51 -59 -56 -3 -23 -2 5 -32 6 6 14 13 31 12 28 -2 rrcurveto
          -5 109 142 -15 113 hhcurveto
          56 25 22 37 -13 hvcurveto
          -6 18 -36 45 -17 8 -7 4 -5 -9 6 -3 28 -13 8 -26 -19 -28 rrcurveto
          -21 -15 -100 3 -78 hhcurveto
          -187 hlineto
          18 7 30 23 35 64 35 65 rcurveline
          91 23 8 2 13 33 -4 -1 rlinecurve
          endchar
        </CharString>
        <CharString name="M">
          541 732 39 vstem
          577 545 rmoveto
          -108 hlineto
          -80 -191 2 -104 36 hvcurveto
          6 -18 31 -36 17 -9 7 -3 12 9 -7 3 -27 13 -16 44 20 29 rrcurveto
          40 27 92 6 71 hhcurveto
          55 hlineto
          -1 -1 -48 -14 -34 -38 -22 -48 rlinecurve
          -55 -118 -44 -104 -91 -99 rrcurveto
          -41 -37 8 callgsubr
          -11 8 -22 vvcurveto
          -19 2 -20 46 callgsubr
          18 81 callsubr
          58 29 36 33 hvcurveto
          96 102 61 197 40 83 14 29 23 25 23 17 rrcurveto
          -14 -17 -10 -24 -32 vvcurveto
          0 0 -155 -5 -112 vhcurveto
          -1 -24 -1 -39 -9 -30 -17 -22 rlinecurve
          -2 -3 11 -4 2 3 5 6 20 24 10 4 17 7 7 10 2 11 288 304 rcurveline
          -35 -58 -27 -60 -17 -36 -27 -57 -61 -111 12 -60 10 -47 50 -1 34 15 57 25 53 77 16 20 8 11 -6 12 -7 -10 -5 -6 -30 -43 -35 -33 -18 -17 -23 -14 -17 -7 rrcurveto
          -126 -51 244 462 45 74 24 39 27 32 35 -1 rrcurveto
          1 8 8 12 -5 hhcurveto
          -47 4 -42 -39 -44 -46 -347 -366 rcurveline
          6 vlineto
          -3 83 -5 210 0 vvcurveto
          -2 62 17 26 33 7 rrcurveto
          4 18 16 -1 -9 hvcurveto
          endchar
        </CharString>
        <CharString name="M.roman">
          477 -22 -21 564 -20 hstem
          118 28 vstem
          737 16 rmoveto
          -1 -6 -6 0 -5 hhcurveto
          -35 -29 13 22 42 45 360 20 36 hvcurveto
          12 12 16 7 20 hhcurveto
          4 5 0 -1 5 hvcurveto
          13 15 -49 -6 -37 -3 -24 -1 rlinecurve
          0 -36 1 -9 -16 -19 -63 -151 -90 vhcurveto
          -122 -72 -60 -102 -10 hhcurveto
          -17 -32 306 61 -4 hvcurveto
          -1 13 0 11 10 vvcurveto
          17 1 12 1 8 vhcurveto
          2 -23 -20 1 -15 hhcurveto
          -14 hlineto
          -60 4 -10 -15 rlineto
          1 4 6 0 7 hhcurveto
          25 13 -9 -17 hvcurveto
          -4 vlineto
          -60 -205 -25 -84 -27 -76 -30 -66 rlinecurve
          -22 -10 -22 -9 -32 hhcurveto
          -11 -16 16 3 32 4 48 2 rlinecurve
          55 -3 33 -2 8 -2 12 17 rcurveline
          -1 -5 -7 0 -5 hhcurveto
          -37 -17 13 24 26 31 139 74 229 hvcurveto
          40 -244 12 -91 6 -71 1 -15 33 -43 1 -8 9 4 rcurveline
          25 64 189 308 68 85 -41 -392 -4 -4 -47 -18 rrcurveto
          -6 -15 -16 -2 -17 hhcurveto
          -4 -4 0 1 -4 hvcurveto
          -11 -16 rlineto
          5 77 43 3 10 hhcurveto
          65 -1 39 83 callsubr
          endchar
        </CharString>
        <CharString name="M.sm">
          247 -15 -21 401 -20 hstem
          91 26 vstem
          528 19 rmoveto
          -1 -8 -7 -1 -6 hhcurveto
          -20 -17 7 14 -1 hvcurveto
          38 34 241 10 21 vhcurveto
          5 8 12 6 12 3 2 -1 3 hhcurveto
          16 18 -37 -5 -27 -2 -18 -1 rlinecurve
          -1 -5 0 1 -7 hvcurveto
          -18 hlineto
          -16 -7 -34 -115 -68 hvcurveto
          -46 -79 -30 -50 -17 -23 rrcurveto
          0 -1 1 -1 2 vhcurveto
          1 hlineto
          -23 144 -10 53 79 vvcurveto
          9 0 7 2 6 vhcurveto
          1 -17 -14 1 -11 hhcurveto
          -11 hlineto
          1 -6 -7 1 -5 -8 -7 -1 -5 -2 -2 1 -1 hhcurveto
          -14 -18 rlineto
          2 9 4 0 6 hhcurveto
          15 8 -5 -12 1 hvcurveto
          -31 -102 -30 -108 -37 -86 rrcurveto
          -12 -7 -14 -6 -22 hhcurveto
          -13 -20 14 3 26 4 32 1 rlinecurve
          38 -2 22 -1 8 -2 15 21 rcurveline
          -3 -11 -4 0 -3 hhcurveto
          -26 -8 9 15 20 19 94 48 142 hvcurveto
          18 -116 8 -54 5 -50 3 -11 rcurveline
          3 -37 1 -7 4 -7 8 -10 rlinecurve
          -2 vlineto
          7 -9 4 -5 -9 vvcurveto
          14 6 19 49 121 198 46 59 rlinecurve
          -13 -59 2 -47 -7 -31 rrcurveto
          -126 -16 2 -13 -59 hhcurveto
          -3 -2 0 1 -5 hvcurveto
          -13 -18 39 2 rlineto
          2 32 18 1 5 hhcurveto
          45 -1 28 -2 10 -3 rrcurveto
          endchar
        </CharString>
        <CharString name="N">
          432 -10 24 507 24 -101 callsubr
          endchar
        </CharString>
        <CharString name="N.roman">
          356 -44 -21 603 -20 hstem
          74 48 -35 35 392 36 vstem
          -55 callsubr
          54 -72 31 -46 7 -20 8 5 rcurveline
          3 99 106 422 8 18 30 callsubr
          endchar
        </CharString>
        <CharString name="N.roman_acute">
          356 -44 -21 603 -20 hstem
          74 48 -35 35 392 36 vstem
          -55 callsubr
          54 -72 31 -46 7 -20 8 5 rcurveline
          3 99 106 422 8 18 30 callsubr
          -210 105 -102 callgsubr
        </CharString>
        <CharString name="N.roman_caron">
          356 -44 -21 603 -20 hstem
          74 48 -35 35 392 36 vstem
          -55 callsubr
          54 -72 31 -46 7 -20 8 5 rcurveline
          3 99 106 422 8 18 30 callsubr
          -178 120 -103 callgsubr
        </CharString>
        <CharString name="N.roman_commaaccent">
          356 -44 -21 603 -20 hstem
          74 48 -35 35 392 36 vstem
          -55 callsubr
          54 -72 31 -46 7 -20 8 5 rcurveline
          3 99 106 422 8 18 30 callsubr
          -395 -619 -103 callsubr
        </CharString>
        <CharString name="N.roman_tilde">
          356 -44 -21 555 19 13 18 -2 -20 hstemhm
          74 48 392 36 hintmask 11011100
          -33 callsubr
          rrcurveto
          hintmask 11101100
          -10 -14 rlineto
          2 13 98 callsubr
          29 15 -12 -23 -26 -53 -266 -28 -93 hvcurveto
          -118 141 -71 67 -117 222 rrcurveto
          -2 -22 -18 0 -17 hhcurveto
          -16 -15 0 2 -12 hvcurveto
          -10 -16 rlineto
          21 callsubr
          19 -4 -26 -32 -11 -70 -23 -107 hvcurveto
          -5 -21 -23 -80 -36 -136 rrcurveto
          -19 -5 -26 -13 -34 hhcurveto
          -11 -16 rlineto
          4 22 29 3 35 hhcurveto
          39 38 -3 -4 35 hvcurveto
          14 17 rlineto
          -1 -7 -8 0 -7 hhcurveto
          -37 -16 15 30 29 27 194 44 126 hvcurveto
          53 -76 43 -58 31 -40 109 -144 rcurveline
          54 -72 31 -46 7 -20 8 5 rcurveline
          3 99 106 422 8 18 30 callsubr
          hintmask 11011100
          -223 111 -96 callgsubr
        </CharString>
        <CharString name="N.sm">
          162 -30 -21 428 -20 hstem
          50 40 -32 32 262 32 vstem
          522 379 rmoveto
          -16 -4 -25 -3 -35 -2 -35 2 -24 2 -9 3 -12 -19 rcurveline
          2 13 8 1 3 hhcurveto
          21 6 -8 -13 -20 -33 -175 -20 -62 hvcurveto
          -18 21 -18 24 -19 22 -36 43 rcurveline
          1 hlineto
          -35 46 -61 93 -21 43 rrcurveto
          -1 -15 -13 0 -12 hhcurveto
          -11 -10 0 2 -11 hvcurveto
          -13 -20 rlineto
          2 9 8 1 7 hhcurveto
          16 11 -2 -14 -20 -7 -49 -16 -76 hvcurveto
          -3 -15 -16 -54 -24 -94 rrcurveto
          -10 -2 -15 -8 -27 hhcurveto
          -13 -20 rlineto
          4 20 22 2 23 hhcurveto
          28 28 -2 -2 24 hvcurveto
          16 20 rlineto
          -2 -13 -5 0 -4 hhcurveto
          -24 -10 8 20 20 16 121 29 90 hvcurveto
          37 -53 26 -34 22 -27 74 -99 rcurveline
          37 -50 22 -33 5 -14 13 7 rcurveline
          76 74 281 6 14 vhcurveto
          12 5 15 7 23 hhcurveto
          endchar
        </CharString>
        <CharString name="Nacute">
          432 -10 24 507 24 180 -20 -101 callsubr
          -119 144 -102 callgsubr
        </CharString>
        <CharString name="Ncaron">
          432 -10 24 507 24 -101 callsubr
          -121 110 -103 callgsubr
        </CharString>
        <CharString name="Ncommaaccent">
          432 -134 -21 145 24 507 24 -101 callsubr
          -519 -602 -103 callsubr
        </CharString>
        <CharString name="Ntilde">
          432 533 19 13 18 -101 callsubr
          -152 132 -96 callgsubr
        </CharString>
        <CharString name="O">
          305 9 -21 566 -20 hstem
          7 53 531 57 vstem
          -91 callsubr
          endchar
        </CharString>
        <CharString name="O.roman">
          22 callgsubr
          hstem
          9 69 436 68 vstem
          640 -94 callgsubr
          endchar
        </CharString>
        <CharString name="O.roman_acute">
          22 callgsubr
          hstem
          33 69 436 68 vstem
          664 -94 callgsubr
          196 644 -102 callgsubr
        </CharString>
        <CharString name="O.roman_circumflex">
          22 callgsubr
          hstem
          33 69 436 68 vstem
          664 -94 callgsubr
          2 576 -107 callsubr
        </CharString>
        <CharString name="O.roman_dieresis">
          22 callgsubr
          -18 20 hstemhm
          33 69 436 68 hintmask 11011000
          664 -94 callgsubr
          hintmask 00100000
          52 637 rmoveto
          -106 callsubr
          116 hmoveto
          -95 callsubr
        </CharString>
        <CharString name="O.roman_grave">
          22 callgsubr
          -15 20 hstemhm
          33 69 436 68 hintmask 11011000
          664 -94 callgsubr
          hintmask 00100000
          18 635 -94 callsubr
        </CharString>
        <CharString name="O.roman_hungarumlaut">
          22 callgsubr
          hstem
          9 69 436 68 vstem
          640 -94 callgsubr
          113 702 -91 callgsubr
        </CharString>
        <CharString name="O.roman_macron">
          22 callgsubr
          73 24 hstemhm
          9 69 436 68 hintmask 11011000
          640 -94 callgsubr
          hintmask 00100000
          195 618 -97 callsubr
        </CharString>
        <CharString name="O.roman_slash">
          22 callgsubr
          hstem
          33 69 436 68 vstem
          229 -43 rmoveto
          -3 -9 28 1 3 9 11 29 rcurveline
          -2 15 16 -1 17 hhcurveto
          190 117 97 193 41 hvcurveto
          6 27 3 26 23 vvcurveto
          102 -57 63 -107 19 vhcurveto
          6 12 5 11 5 8 1 3 -36 0 -1 -5 -4 -7 -4 -9 -5 -8 rrcurveto
          1 -14 -15 1 -15 hhcurveto
          -204 -148 -124 -237 -108 53 -63 108 -19 hvcurveto
          112 20 rmoveto
          -1 -10 -9 -1 -9 hhcurveto
          -16 -15 2 4 -15 hvcurveto
          53 129 102 236 60 125 rrcurveto
          65 -25 40 -64 -92 vvcurveto
          -159 -110 -136 -136 -18 vhcurveto
          -200 199 rmoveto
          164 114 143 160 12 13 -2 -2 11 vhcurveto
          -56 -115 -87 -204 -66 -170 rrcurveto
          -62 29 -39 68 89 vvcurveto
          endchar
        </CharString>
        <CharString name="O.roman_tilde">
          347 -16 24 482 19 7 25 -19 18 hstemhm
          33 69 436 68 hintmask 10101100
          664 -94 callgsubr
          hintmask 01010000
          193 629 -96 callgsubr
        </CharString>
        <CharString name="O.sm">
          156 -11 24 342 24 hstem
          21 55 293 53 vstem
          462 192 rmoveto
          4 19 2 18 17 vvcurveto
          85 -56 48 -112 -140 -106 -87 -165 -92 54 -46 111 133 82 68 135 28 vhcurveto
          -217 -178 rmoveto
          -1 -6 -7 0 -5 hhcurveto
          57 callgsubr
          72 44 -51 -80 -102 -69 -94 -97 -14 hvcurveto
          endchar
        </CharString>
        <CharString name="O.sm_E.sm">
          324 -11 24 -17 26 -23 -21 204 25 137 28 -17 24 hstemhm
          21 55 293 53 98 47 hintmask 0011011110000000
          604 83 rmoveto
          -9 4 rlineto
          hintmask 0101101110000000
          -25 callsubr
          1 8 1 6 2 vvcurveto
          5 13 rlineto
          9 9 12 3 16 callgsubr
          9 callgsubr
          hintmask 0011011110000000
          -57 -40 9 -58 hhcurveto
          -140 -106 -87 -165 hvcurveto
          hintmask 1001011110000000
          -92 54 -46 111 31 26 4 7 23 vhcurveto
          41 3 rlineto
          40 -3 2 22 hhcurveto
          hintmask 0101011110000000
          35 callgsubr
          hintmask 1001011110000000
          -378 -65 rmoveto
          57 callgsubr
          56 48 -13 -55 -29 -5 -49 -9 -54 hvcurveto
          -114 -20 -49 -28 -89 hhcurveto
          endchar
        </CharString>
        <CharString name="OE">
          621 293 -21 199 27 75 18 hstem
          946 439 rmoveto
          17 callgsubr
          -97 6 -98 -10 -97 3 -37 1 13 -24 23 3 21 3 20 -1 17 1 -18 -30 -18 -30 -17 -30 rrcurveto
          80 -18 -71 37 -137 hhcurveto
          -273 -138 -271 -137 -131 118 -27 107 70 65 18 31 58 hvcurveto
          -1 -28 27 -9 48 -5 117 -13 141 8 44 13 39 12 38 55 41 51 4 5 -5 14 -5 -7 rrcurveto
          -94 -74 -118 -31 -115 hhcurveto
          -56 1 -44 13 41 vvcurveto
          36 33 62 16 31 vhcurveto
          15 27 8 17 13 24 3 5 4 2 7 1 rrcurveto
          3 83 36 -6 83 hhcurveto
          36 27 57 -14 -23 hvcurveto
          -17 -9 -45 -3 -13 -1 rrcurveto
          -1 -41 -60 2 -46 hhcurveto
          -8 -3 3 8 3 hvcurveto
          37 64 41 75 44 62 10 13 15 6 29 2 41 2 48 1 18 -6 38 -12 -4 -47 -8 -34 -3 -12 17 7 6 11 rrcurveto
          -355 -34 rmoveto
          -24 -2 -24 -5 -23 vhcurveto
          -46 -79 -45 -80 -44 -78 rrcurveto
          -57 -62 -78 -37 -85 hhcurveto
          -119 -45 50 84 155 182 247 178 124 47 -51 -83 hvcurveto
          endchar
        </CharString>
        <CharString name="OE.roman">
          564 -16 24 -13 29 callsubr
          -14 25 -6 -20 hstemhm
          33 69 408 58 -30 68 hintmask 0011001110000000
          844 110 rmoveto
          -9 4 rlineto
          hintmask 0101001110000000
          -55 -25 -33 -37 -115 hhcurveto
          -88 -9 12 16 25 11 72 25 119 hvcurveto
          22 hlineto
          30 99 7 -36 -11 -8 -13 -1 -2 hvcurveto
          17 4 rlineto
          7 38 15 27 7 vvcurveto
          3 -2 2 -4 vhcurveto
          hintmask 0011001101000000
          -170 -2 23 109 19 69 14 30 rlinecurve
          hintmask 0011100110000000
          1 13 22 2 29 hhcurveto
          78 24 -8 -21 -5 -4 -11 -18 -34 hvcurveto
          16 -3 18 47 rlineto
          3 23 50 2 vvcurveto
          6 -3 3 -3 vhcurveto
          -80 -76 -2 -72 hhcurveto
          hintmask 0011010110000000
          -48 -102 13 -47 hhcurveto
          -204 -148 -124 -237 hvcurveto
          hintmask 1001001110000000
          -130 78 -66 158 50 45 8 13 39 vhcurveto
          12 hlineto
          54 1 2 32 hhcurveto
          hintmask 0101001110000000
          -58 callsubr
          hintmask 1001001110000000
          -519 -102 rmoveto
          -101 -71 82 119 hvcurveto
          hintmask 0011010110000000
          164 114 143 160 71 77 -17 -79 -5 0 -6 -1 -6 vhcurveto
          -17 -107 -44 -161 -7 -23 rrcurveto
          hintmask 1001001110000000
          -82 -24 -79 -22 -78 hhcurveto
          endchar
        </CharString>
        <CharString name="Oacute">
          305 9 -21 566 -20 191 -20 hstem
          7 53 531 57 vstem
          -91 callsubr
          -1 289 -102 callgsubr
        </CharString>
        <CharString name="Ocircumflex">
          305 9 -21 566 -20 173 -20 hstem
          7 53 531 57 vstem
          -91 callsubr
          -207 218 -107 callsubr
        </CharString>
        <CharString name="Odieresis">
          305 574 20 hstem
          -91 callsubr
          -143 293 rmoveto
          -106 callsubr
          116 hmoveto
          -95 callsubr
        </CharString>
        <CharString name="Ograve">
          305 575 20 hstem
          -91 callsubr
          -201 289 -94 callsubr
        </CharString>
        <CharString name="Ohungarumlaut">
          305 9 -21 566 -20 hstem
          7 53 531 57 vstem
          -91 callsubr
          -90 342 -91 callgsubr
        </CharString>
        <CharString name="Omacron">
          305 609 24 hstem
          -91 callsubr
          26 218 -97 callsubr
        </CharString>
        <CharString name="Omega">
          376 0 46 520 29 hstem
          98 86 362 86 vstem
          274 hmoveto
          7 11 -22 44 -85 126 10 140 rlinecurve
          151 11 73 94 115 hhcurveto
          114 60 -100 -142 -11 hvcurveto
          -11 -151 -101 -119 -31 -42 4 -12 rcurveline
          205 hlineto
          26 112 -16 2 rlineto
          -63 -27 -8 -5 -41 hhcurveto
          -83 hlineto
          40 49 120 106 9 124 rrcurveto
          164 13 -107 106 -153 hhcurveto
          -149 -126 -111 -163 -12 hvcurveto
          -9 -123 102 -104 38 -48 rrcurveto
          -90 hlineto
          -34 -11 8 60 -17 hvcurveto
          -13 -2 5 -112 rlineto
          endchar
        </CharString>
        <CharString name="Oslash">
          305 9 -21 566 -20 hstem
          7 53 531 57 vstem
          5 -28 rmoveto
          -7 -8 33 -1 8 9 11 12 14 16 17 17 rrcurveto
          -22 43 55 -7 53 hhcurveto
          228 188 197 211 56 -20 41 -41 26 hvcurveto
          22 21 19 17 14 12 3 3 -43 2 -4 -5 -40 -36 rcurveline
          14 -35 -47 7 -58 hhcurveto
          -273 -138 -271 -137 -55 20 -37 32 -24 hvcurveto
          -19 -20 -18 -19 -17 -19 rrcurveto
          586 433 rmoveto
          -186 -162 -216 -205 -58 -40 11 22 -26 vhcurveto
          119 122 214 214 128 122 rrcurveto
          21 -22 9 -31 -36 vvcurveto
          -531 -268 rmoveto
          155 182 247 178 52 38 -9 -17 27 vhcurveto
          -116 -109 -190 -192 -149 -157 rrcurveto
          -15 21 -7 28 33 vvcurveto
          endchar
        </CharString>
        <CharString name="Otilde">
          305 533 19 13 18 hstem
          -91 callsubr
          -6 277 -96 callgsubr
        </CharString>
        <CharString name="P">
          252 -8 33 186 28 271 15 hstem
          575 499 rmoveto
          -34 53 -100 -6 -55 -1 rrcurveto
          -47 -59 -1 -42 hhcurveto
          -57 71 callsubr
          5 -17 21 -33 13 -7 4 -31 callsubr
          -12 -23 -25 -56 -31 -55 -32 -59 -32 -59 -31 -59 rrcurveto
          -26 -48 -27 -47 -28 -47 -14 -25 -21 -18 -29 -5 -6 -4 10 -7 13 3 27 9 21 18 14 6 20 10 13 -7 12 -3 5 -2 11 -4 -4 9 -13 31 105 184 18 34 rrcurveto
          38 74 43 98 51 66 19 24 51 2 24 -3 58 -8 22 -67 -22 -64 -44 -128 -130 -9 -75 6 -8 1 -19 -20 8 -1 38 -5 86 4 58 22 88 34 105 104 -65 102 rrcurveto
          endchar
        </CharString>
        <CharString name="P.roman">
          187 -2 16 492 27 0 -20 hstem
          114 58 198 55 vstem
          467 317 rmoveto
          29 34 19 47 43 vvcurveto
          58 -39 34 -95 vhcurveto
          -41 -87 -7 2 hhcurveto
          -53 3 -36 2 -16 2 -10 -15 rcurveline
          21 callsubr
          17 -5 -26 -22 -65 -364 -27 -54 hvcurveto
          -24 -12 -31 -12 -46 hhcurveto
          94 callgsubr
          1 19 hhcurveto
          28 49 -4 -3 37 hvcurveto
          11 17 rlineto
          -1 -3 -4 0 -4 hhcurveto
          -53 -29 17 10 hvcurveto
          1 23 7 56 19 86 6 29 rcurveline
          56 hlineto
          75 67 25 56 48 hvcurveto
          -242 -65 rmoveto
          36 169 9 76 39 7 rrcurveto
          2 7 17 0 26 hhcurveto
          60 36 -38 -53 -79 -75 -84 -106 hvcurveto
          endchar
        </CharString>
        <CharString name="P.sm">
          35 -1 18 331 26 0 -20 hstem
          76 47 130 44 vstem
          325 220 rmoveto
          22 23 12 34 29 vvcurveto
          41 -25 27 -70 vhcurveto
          -34 -54 -5 2 hhcurveto
          -75 5 69 callgsubr
          17 8 -2 -14 -12 -43 -246 -19 -45 hvcurveto
          -14 -6 -23 -7 -31 hhcurveto
          -11 -18 101 5 rlineto
          19 43 -5 19 hhcurveto
          14 21 rlineto
          -2 -5 -6 0 -6 hhcurveto
          -34 -17 9 5 hvcurveto
          -1 18 8 37 12 59 3 16 rcurveline
          16 16 1 4 hhcurveto
          57 43 19 38 32 hvcurveto
          -155 5 rmoveto
          94 21 -6 29 63 hhcurveto
          41 22 -26 -38 -51 -51 -52 -68 hvcurveto
          -1 -17 -1 -13 hhcurveto
          endchar
        </CharString>
        <CharString name="Q">
          310 510 15 hstem
          669 -180 rmoveto
          6 7 -8 8 -6 -7 -22 -24 -116 -93 -65 90 -40 55 -71 104 -19 40 rrcurveto
          183 45 137 171 180 vvcurveto
          108 -70 50 -160 -273 -138 -271 -137 -131 118 -27 107 18 18 1 2 17 vhcurveto
          16 -29 70 -119 42 -68 64 -102 151 99 41 48 rrcurveto
          -78 585 rmoveto
          -186 -162 -216 -205 -119 -45 50 84 155 182 247 178 124 47 -51 -83 vhcurveto
          endchar
        </CharString>
        <CharString name="Q.roman">
          340 -170 34 122 24 508 24 hstem
          2 69 436 69 vstem
          711 -131 rmoveto
          -3 -15 -15 -2 -14 hhcurveto
          -55 -61 28 56 -65 hvcurveto
          -22 19 -25 19 -31 17 rrcurveto
          130 38 105 127 186 vvcurveto
          125 -86 63 -154 -208 -146 -122 -237 -131 79 -66 158 28 25 3 4 25 vhcurveto
          20 -16 14 -14 9 -9 80 -87 rcurveline
          -25 23 30 -12 37 hhcurveto
          29 41 8 16 54 hvcurveto
          -378 158 rmoveto
          -1 -9 -10 -1 -8 hhcurveto
          -101 -72 81 119 170 118 138 155 107 66 -77 -114 -157 -108 -140 -138 -18 hvcurveto
          endchar
        </CharString>
        <CharString name="Q.sm">
          151 -117 30 77 24 342 24 hstem
          20 54 293 54 vstem
          518 -82 rmoveto
          -3 -14 -13 -2 -10 hhcurveto
          -60 -20 39 53 -89 hvcurveto
          85 28 71 87 125 vvcurveto
          91 -61 44 -107 -145 -102 -87 -166 -91 55 -46 109 21 16 2 3 17 vhcurveto
          13 -10 9 -10 7 -6 54 -60 rcurveline
          -19 16 23 -7 26 hhcurveto
          21 28 6 11 38 hvcurveto
          -262 115 rmoveto
          -5 -8 -1 -5 hhcurveto
          -67 -49 56 78 105 71 103 112 75 42 -51 -79 -105 -72 -95 -94 -11 hvcurveto
          endchar
        </CharString>
        <CharString name="R">
          -98 callsubr
          endchar
        </CharString>
        <CharString name="R.roman">
          -45 callgsubr
          -28 -114 -8 1 11 vhcurveto
          -87 callgsubr
          endchar
        </CharString>
        <CharString name="R.roman_acute">
          -45 callgsubr
          vhcurveto
          -26 -97 -7 -8 hhcurveto
          -87 callgsubr
          -143 645 -102 callgsubr
        </CharString>
        <CharString name="R.roman_circumflex">
          -45 callgsubr
          vhcurveto
          -26 -97 -7 -8 hhcurveto
          -87 callgsubr
          -344 595 -107 callsubr
        </CharString>
        <CharString name="R.roman_commaacent">
          -45 callgsubr
          vhcurveto
          -26 -97 -7 -8 hhcurveto
          -87 callgsubr
          -259 -62 -103 callsubr
        </CharString>
        <CharString name="R.sm">
          135 -1 -21 370 26 0 -20 hstem
          78 47 126 49 vstem
          425 15 rmoveto
          -59 -67 78 96 -29 hvcurveto
          46 12 47 60 49 vvcurveto
          45 -32 19 -61 vhcurveto
          -20 -65 -5 -5 hhcurveto
          -76 5 69 callgsubr
          16 10 -1 -14 -10 -40 -245 -22 -47 hvcurveto
          -16 -7 -23 -8 -25 hhcurveto
          -2 -3 0 1 -6 hvcurveto
          -12 -19 rlineto
          3 50 40 3 20 hhcurveto
          24 24 -2 -4 23 hvcurveto
          16 19 -39 1 -21 5 -2 11 rlinecurve
          -1 13 7 36 13 63 16 79 rcurveline
          91 18 -3 32 62 hhcurveto
          23 18 -7 -14 11 hvcurveto
          1 vlineto
          7 -10 3 -10 -13 vvcurveto
          -64 -54 -44 -66 vhcurveto
          -12 -16 rlineto
          7 16 0 1 9 hvcurveto
          11 -7 4 -11 12 -25 38 -82 rcurveline
          -31 17 32 -21 44 hhcurveto
          13 15 1 2 15 hvcurveto
          endchar
        </CharString>
        <CharString name="Racute">
          -98 callsubr
          -99 579 -102 callgsubr
        </CharString>
        <CharString name="Rcaron">
          -98 callsubr
          -52 548 -103 callgsubr
        </CharString>
        <CharString name="Rcommaaccent">
          -98 callsubr
          -376 -164 -103 callsubr
        </CharString>
        <CharString name="S">
          162 -34 28 547 21 -93 callsubr
          endchar
        </CharString>
        <CharString name="S.roman">
          -92 callgsubr
          endchar
        </CharString>
        <CharString name="S.roman_acute">
          -92 callgsubr
          17 151 -102 callgsubr
        </CharString>
        <CharString name="S.roman_caron">
          -92 callgsubr
          29 158 -103 callgsubr
        </CharString>
        <CharString name="S.roman_cedilla">
          60 -15 23 507 23 hstem
          42 53 162 66 vstem
          412 503 rmoveto
          1 1 0 2 2 vvcurveto
          14 -37 16 -49 vhcurveto
          -1 hlineto
          -107 -99 -85 -95 -25 9 -21 17 -17 hvcurveto
          76 -53 rlineto
          43 -30 18 -31 -41 vvcurveto
          -89 -61 -43 -63 -47 -45 25 29 7 4 21 7 36 vhcurveto
          -19 -7 -5 -29 -9 -36 -11 -43 rlinecurve
          -3 vlineto
          -15 46 -8 46 6 6 0 1 6 vhcurveto
          -17 -13 -11 -20 -21 vvcurveto
          -30 37 -29 -4 -24 vhcurveto
          -56 callsubr
          18 13 17 19 10 vhcurveto
          92 17 80 60 102 vvcurveto
          38 -11 31 -59 40 vhcurveto
          -100 68 -3 9 43 vvcurveto
          67 57 50 61 36 39 -16 -36 -19 -9 -20 -6 -10 vhcurveto
          16 -7 7 34 11 32 18 30 rlinecurve
          endchar
        </CharString>
        <CharString name="S.roman_circumflex">
          -92 callgsubr
          -201 78 -107 callsubr
        </CharString>
        <CharString name="S.roman_commaaccent">
          -92 callgsubr
          -251 -592 -103 callsubr
        </CharString>
        <CharString name="S.sm">
          -45 -11 24 341 23 hstem
          27 43 104 53 vstem
          288 348 rmoveto
          1 3 rlineto
          3 vlineto
          13 -29 10 -32 -75 -72 -58 -70 -18 6 -15 13 -12 vhcurveto
          -1 hlineto
          0 19 -14 34 -23 vhcurveto
          28 -19 12 -21 -27 vvcurveto
          -60 -37 -27 -43 -27 -34 13 21 vhcurveto
          1 6 3 16 6 26 -22 -7 rcurveline
          -3 -21 -14 -30 -29 vvcurveto
          -4 1 -2 3 -1 vhcurveto
          -1 hlineto
          -8 12 21 -4 29 hhcurveto
          74 89 44 85 27 -7 24 -43 28 hvcurveto
          -68 49 -2 3 28 vvcurveto
          44 37 33 40 23 26 -11 -22 -11 -5 -12 -7 -12 vhcurveto
          19 -8 5 26 7 24 13 20 rlinecurve
          endchar
        </CharString>
        <CharString name="Sacute">
          162 -34 28 547 21 163 -20 -93 callsubr
          51 175 -102 callgsubr
        </CharString>
        <CharString name="Scaron">
          162 -34 28 547 21 -93 callsubr
          53 163 -103 callgsubr
        </CharString>
        <CharString name="Scedilla">
          162 -240 234 -28 28 547 21 hstemhm
          139 35 hintmask 10110000
          524 519 rmoveto
          -30 33 -40 12 -39 -2 -53 -3 -53 -27 -30 -41 -32 -46 2 -54 25 -48 29 -54 41 -55 21 -57 37 -98 -51 -91 -108 6 -55 3 -61 29 -31 44 -22 32 -15 59 33 30 rrcurveto
          5 3 -8 10 -3 -2 -32 -24 -24 -56 10 -47 15 -65 62 -30 60 -10 rrcurveto
          -23 -12 -15 -24 -24 vvcurveto
          -30 37 -29 -4 -24 vhcurveto
          -56 callsubr
          17 12 16 17 11 vhcurveto
          hintmask 01110000
          -1 6 6 0 6 hhcurveto
          116 142 99 130 -50 hvcurveto
          -30 78 -77 56 -30 72 rrcurveto
          60 -26 39 80 92 hhcurveto
          36 25 -12 -15 16 hvcurveto
          17 -14 -3 -19 -15 vvcurveto
          -23 -13 -34 -5 -10 vhcurveto
          3 -4 13 5 3 2 3 10 18 35 12 18 8 13 3 28 -9 13 rrcurveto
          endchar
        </CharString>
        <CharString name="Scircumflex">
          162 -34 28 547 21 123 -20 -93 callsubr
          -178 82 -107 callsubr
        </CharString>
        <CharString name="Scommaaccent">
          162 -190 -21 177 28 547 21 -93 callsubr
          -291 -627 -103 callsubr
        </CharString>
        <CharString name="T">
          143 531 15 hstem
          564 493 rmoveto
          54 -7 65 -8 26 6 23 5 9 19 7 14 4 5 2 5 2 8 2 4 -7 4 -3 -5 -25 -32 -155 13 -44 4 -159 13 rcurveline
          -48 4 -48 2 -42 3 -79 6 -171 -7 41 -107 7 -18 31 -38 18 -9 7 -4 11 8 -6 4 -28 14 -14 38 18 28 45 65 186 -10 68 -6 141 -14 rcurveline
          26 -3 -34 -10 -43 -22 -13 -30 rlinecurve
          -45 -105 -58 -177 -75 -83 rrcurveto
          -41 -38 8 callgsubr
          1 9 8 vvcurveto
          84 callgsubr
          -12 2 -23 -10 -18 2 -21 0 callsubr
          46 24 36 34 hvcurveto
          44 48 28 62 28 61 28 60 15 45 29 60 24 51 34 75 60 10 rrcurveto
          endchar
        </CharString>
        <CharString name="T.roman">
          214 2 -21 524 23 8 -20 hstemhm
          212 65 hintmask 11010000
          323 219 rmoveto
          23 107 rlineto
          180 38 0 -1 32 hhcurveto
          106 25 -10 -24 -16 -7 -20 -12 -26 hvcurveto
          14 -5 rlineto
          hintmask 10110000
          2 10 36 91 18 31 rrcurveto
          hintmask 11010000
          -5 -72 -80 -3 -89 hhcurveto
          hintmask 10110000
          -71 -69 3 5 -70 hvcurveto
          -42 -125 14 -6 8 32 14 26 18 21 rlinecurve
          hintmask 11010000
          14 12 42 7 75 hhcurveto
          18 5 -5 -9 -10 -21 -126 -6 -29 hvcurveto
          -24 -113 -15 -69 -13 -54 -13 -39 rlinecurve
          -25 -12 -27 -13 -44 -6 -5 1 -3 hhcurveto
          -11 -16 rlineto
          5 67 45 3 21 hhcurveto
          61 40 -3 -5 20 hvcurveto
          12 17 rlineto
          -13 hlineto
          -44 -27 14 21 -1 hvcurveto
          4 33 10 56 17 80 rrcurveto
          endchar
        </CharString>
        <CharString name="T.roman_bar">
          214 2 -21 369 27 128 23 8 -20 hstemhm
          212 65 hintmask 11101000
          446 381 rmoveto
          -2 -22 -29 -2 -38 hhcurveto
          128 27 3 0 29 hhcurveto
          106 25 -10 -24 -16 -7 -20 -12 -26 hvcurveto
          14 -5 rlineto
          hintmask 11011000
          2 10 36 91 18 31 rrcurveto
          hintmask 11101000
          -5 -72 -80 -3 -89 hhcurveto
          hintmask 11011000
          -71 -69 3 5 -70 hvcurveto
          -42 -125 14 -6 8 32 14 26 18 21 rlinecurve
          hintmask 11101000
          14 12 42 7 75 hhcurveto
          18 5 -5 -9 -7 -10 -60 -8 -47 hvcurveto
          -24 1 -22 1 -15 3 -11 1 -28 -37 6 2 rrcurveto
          2 32 28 1 30 hhcurveto
          -5 -25 -24 -113 -15 -69 -13 -54 -13 -39 rlinecurve
          -25 -12 -27 -13 -44 -6 -5 1 -3 hhcurveto
          -11 -16 rlineto
          5 67 45 3 21 hhcurveto
          61 40 -3 -5 20 hvcurveto
          12 17 rlineto
          -13 hlineto
          -44 -27 14 21 -1 hvcurveto
          4 33 10 56 17 80 23 107 rcurveline
          2 9 2 7 1 8 25 -1 19 -2 18 -1 rrcurveto
          -1 11 28 36 -6 hhcurveto
          endchar
        </CharString>
        <CharString name="T.roman_caron">
          214 2 -21 524 23 8 -20 hstemhm
          212 65 hintmask 11010000
          323 219 rmoveto
          23 107 rlineto
          180 38 0 -1 32 hhcurveto
          106 25 -10 -24 -16 -7 -20 -12 -26 hvcurveto
          14 -5 rlineto
          hintmask 10110000
          2 10 36 91 18 31 rrcurveto
          hintmask 11010000
          -5 -72 -80 -3 -89 hhcurveto
          hintmask 10110000
          -71 -69 3 5 -70 hvcurveto
          -42 -125 14 -6 8 32 14 26 18 21 rlinecurve
          hintmask 11010000
          14 12 42 7 75 hhcurveto
          18 5 -5 -9 -10 -21 -126 -6 -29 hvcurveto
          -24 -113 -15 -69 -13 -54 -13 -39 rlinecurve
          -25 -12 -27 -13 -44 -6 -5 1 -3 hhcurveto
          -11 -16 rlineto
          5 67 45 3 21 hhcurveto
          61 40 -3 -5 20 hvcurveto
          12 17 rlineto
          -13 hlineto
          -44 -27 14 21 -1 hvcurveto
          4 33 10 56 17 80 rrcurveto
          158 441 -103 callgsubr
        </CharString>
        <CharString name="T.roman_commaaccent">
          214 2 -21 524 23 8 -20 hstemhm
          212 65 hintmask 11010000
          323 219 rmoveto
          23 107 rlineto
          180 38 0 -1 32 hhcurveto
          106 25 -10 -24 -16 -7 -20 -12 -26 hvcurveto
          14 -5 rlineto
          hintmask 10110000
          2 10 36 91 18 31 rrcurveto
          hintmask 11010000
          -5 -72 -80 -3 -89 hhcurveto
          hintmask 10110000
          -71 -69 3 5 -70 hvcurveto
          -42 -125 14 -6 8 32 14 26 18 21 rlinecurve
          hintmask 11010000
          14 12 42 7 75 hhcurveto
          18 5 -5 -9 -10 -21 -126 -6 -29 hvcurveto
          -24 -113 -15 -69 -13 -54 -13 -39 rlinecurve
          -25 -12 -27 -13 -44 -6 -5 1 -3 hhcurveto
          -11 -16 rlineto
          5 67 45 3 21 hhcurveto
          61 40 -3 -5 20 hvcurveto
          12 17 rlineto
          -13 hlineto
          -44 -27 14 21 -1 hvcurveto
          4 33 10 56 17 80 rrcurveto
          -49 -313 -103 callsubr
        </CharString>
        <CharString name="T.sm">
          63 1 -21 367 23 6 -20 hstemhm
          144 51 hintmask 11010000
          227 154 rmoveto
          16 73 15 67 8 38 5 9 rlinecurve
          -1 vlineto
          4 4 4 3 8 hhcurveto
          67 21 -5 -12 -13 -5 -13 -9 -22 hvcurveto
          16 -5 3 12 21 57 20 31 rlinecurve
          -4 -50 -62 -3 -61 hhcurveto
          hintmask 10110000
          -49 -49 2 4 -49 hvcurveto
          -31 -93 16 -7 7 26 9 19 12 14 rlinecurve
          hintmask 11010000
          8 7 27 4 51 hhcurveto
          8 6 -2 -3 -4 -2 -14 -4 -24 hvcurveto
          -1 -7 -12 -66 -17 -77 rlineto
          -75 -15 1 -59 -66 -3 -1 1 -3 hhcurveto
          -6 hlineto
          -12 -19 rlineto
          3 46 36 3 15 hhcurveto
          41 29 -2 -4 15 hvcurveto
          14 19 rlineto
          -35 -26 4 17 23 10 40 10 53 hvcurveto
          endchar
        </CharString>
        <CharString name="T_h">
          437 531 15 hstem
          959 97 callsubr
          -69 -36 -43 -49 hvcurveto
          -22 -20 -162 4 -151 19 -150 11 rlinecurve
          -79 6 -171 -7 41 -107 7 -18 31 -38 18 -9 7 -4 11 8 -6 4 -28 14 -14 38 18 28 45 65 186 -10 235 -23 -34 -10 -43 -22 -13 -30 -45 -105 -58 -177 -75 -83 rrcurveto
          -41 -38 8 callgsubr
          1 9 8 vvcurveto
          84 callgsubr
          -12 2 -23 -10 -18 2 -21 0 callsubr
          46 24 36 34 hvcurveto
          44 48 28 62 28 61 28 60 15 45 29 60 24 51 34 75 60 10 38 -3 33 -1 34 -3 -58 -69 -46 -88 -35 -77 -41 -88 99 callgsubr
          41 callgsubr
          rrcurveto
          38 callsubr
          -85 callgsubr
          19 49 32 87 44 90 58 63 92 -3 108 -2 16 4 23 5 9 19 7 14 11 25 1 14 -1 11 rrcurveto
          -238 -56 rmoveto
          35 44 61 29 62 hhcurveto
          26 21 -7 -17 8 hvcurveto
          8 -17 -14 -3 -13 -3 rrcurveto
          -8 -38 -87 -9 -78 hhcurveto
          endchar
        </CharString>
        <CharString name="Tbar">
          143 330 32 169 15 hstem
          555 349 rmoveto
          1 -3 33 callgsubr
          -16 6 -51 4 -36 1 24 51 34 70 58 10 54 -7 65 -8 26 6 23 5 9 19 7 14 4 5 2 5 2 8 2 4 -7 4 -3 -5 -25 -32 -155 13 -44 4 -159 13 rcurveline
          -48 4 -48 2 -42 3 -79 6 -171 -7 41 -107 7 -18 31 -38 18 -9 7 -4 11 8 -6 4 -28 14 -14 38 18 28 45 65 186 -10 68 -6 141 -14 rcurveline
          26 -3 -34 -10 -43 -22 -13 -30 rlinecurve
          -30 -72 rlineto
          -31 -61 -2 -4 -19 hvcurveto
          -1 -3 rlineto
          -7 -2 13 -17 9 hhcurveto
          27 27 1 2 27 hvcurveto
          -38 -95 -45 -109 -54 -59 rrcurveto
          -41 -38 8 callgsubr
          1 9 8 vvcurveto
          84 callgsubr
          -12 2 -23 -10 -18 2 -21 0 callsubr
          46 24 36 34 hvcurveto
          44 48 28 62 28 61 24 53 15 41 23 50 rrcurveto
          3 36 37 3 36 hhcurveto
          4 5 3 4 1 hvcurveto
          endchar
        </CharString>
        <CharString name="Tcaron">
          143 531 15 hstem
          564 493 rmoveto
          54 -7 65 -8 26 6 23 5 9 19 7 14 4 5 2 5 2 8 2 4 -7 4 -3 -5 -25 -32 -155 13 -44 4 -159 13 rcurveline
          -48 4 -48 2 -42 3 -79 6 -171 -7 41 -107 7 -18 31 -38 18 -9 7 -4 11 8 -6 4 -28 14 -14 38 18 28 45 65 186 -10 68 -6 141 -14 rcurveline
          26 -3 -34 -10 -43 -22 -13 -30 rlinecurve
          -45 -105 -58 -177 -75 -83 rrcurveto
          -41 -38 8 callgsubr
          1 9 8 vvcurveto
          84 callgsubr
          -12 2 -23 -10 -18 2 -21 0 callsubr
          46 24 36 34 hvcurveto
          44 48 28 62 28 61 28 60 15 45 29 60 24 51 34 75 60 10 rrcurveto
          85 174 -103 callgsubr
        </CharString>
        <CharString name="Tcaron_h">
          437 -39 38 16 -21 491 31 64 35 hstemhm
          hintmask 10110000
          959 97 callsubr
          -69 -36 -43 -49 hvcurveto
          -22 -20 -162 4 -151 19 -150 11 rlinecurve
          -79 6 -171 -7 41 -107 7 -18 31 -38 18 -9 7 -4 11 8 -6 4 -28 14 -14 38 18 28 45 65 186 -10 235 -23 -34 -10 -43 -22 -13 -30 -45 -105 -58 -177 -75 -83 rrcurveto
          -41 -38 8 callgsubr
          1 9 8 vvcurveto
          84 callgsubr
          -12 2 -23 -10 -18 2 -21 0 callsubr
          46 24 36 34 hvcurveto
          44 48 28 62 28 61 28 60 15 45 29 60 24 51 34 75 60 10 38 -3 33 -1 34 -3 -58 -69 -46 -88 -35 -77 -41 -88 99 callgsubr
          41 callgsubr
          rrcurveto
          38 callsubr
          13 11 55 44 -24 -48 -19 -40 -45 -86 -17 -46 rrcurveto
          hintmask 01110000
          -38 -14 23 -10 25 hhcurveto
          44 35 32 30 26 hvcurveto
          15 17 15 18 15 20 8 9 2 21 -3 -3 -24 -30 -37 -43 -36 -27 rrcurveto
          -11 -8 -37 -19 29 vvcurveto
          32 70 126 19 30 vhcurveto
          39 61 -48 0 -41 -23 -41 -24 -58 -60 -60 -80 16 42 18 52 19 49 32 87 44 90 58 63 92 -3 108 -2 16 4 23 5 9 19 7 14 11 25 1 14 -1 11 rrcurveto
          -238 -56 rmoveto
          35 44 61 29 62 hhcurveto
          26 21 -7 -17 8 hvcurveto
          8 -17 -14 -3 -13 -3 rrcurveto
          -8 -38 -87 -9 -78 hhcurveto
          -72 151 -103 callgsubr
        </CharString>
        <CharString name="Tcommaaccent">
          143 531 15 hstem
          564 493 rmoveto
          54 -7 65 -8 26 6 23 5 9 19 7 14 4 5 2 5 2 8 2 4 -7 4 -3 -5 -25 -32 -155 13 -44 4 -159 13 rcurveline
          -48 4 -48 2 -42 3 -79 6 -171 -7 41 -107 7 -18 31 -38 18 -9 7 -4 11 8 -6 4 -28 14 -14 38 18 28 45 65 186 -10 68 -6 141 -14 rcurveline
          26 -3 -34 -10 -43 -22 -13 -30 rlinecurve
          -45 -105 -58 -177 -75 -83 rrcurveto
          -41 -38 8 callgsubr
          1 9 8 vvcurveto
          84 callgsubr
          -12 2 -23 -10 -18 2 -21 0 callsubr
          46 24 36 34 hvcurveto
          44 48 28 62 28 61 28 60 15 45 29 60 24 51 34 75 60 10 rrcurveto
          -424 -590 -103 callsubr
        </CharString>
        <CharString name="Thorn">
          252 -8 33 178 18 -10 28 15 27 229 15 1 33 hstem
          303 38 vstem
          515 605 rmoveto
          3 13 -13 10 -10 hhcurveto
          -35 -53 -28 -14 -36 hvcurveto
          -4 19 -156 -297 -35 -62 -32 -59 -32 -59 -31 -59 -26 -48 -27 -47 -28 -47 -14 -25 -21 -18 -29 -5 -6 -4 10 -7 13 3 27 9 21 18 14 6 20 10 13 -7 12 -3 rrcurveto
          5 -2 11 -4 -4 9 -11 26 48 99 50 93 47 -4 105 -1 69 28 88 35 105 103 -65 102 rrcurveto
          50 -33 -91 -4 -57 hhcurveto
          46 73 43 61 23 21 35 33 10 -10 21 3 rrcurveto
          -318 -440 rmoveto
          41 72 60 111 26 36 18 25 52 1 24 -3 58 -8 22 -67 -22 -64 -43 -125 -181 -15 -71 8 rrcurveto
          endchar
        </CharString>
        <CharString name="U">
          54 callsubr
          hstem
          -106 callgsubr
          endchar
        </CharString>
        <CharString name="U.roman">
          93 callsubr
          hstem
          36 callsubr
          vstem
          -105 callsubr
          endchar
        </CharString>
        <CharString name="U.roman_acute">
          93 callsubr
          hstem
          36 callsubr
          vstem
          -105 callsubr
          -201 125 -102 callgsubr
        </CharString>
        <CharString name="U.roman_breve">
          93 callsubr
          67 15 hstem
          36 callsubr
          vstem
          -105 callsubr
          -207 109 -82 callgsubr
        </CharString>
        <CharString name="U.roman_circumflex">
          93 callsubr
          hstem
          36 callsubr
          vstem
          -105 callsubr
          -389 68 -107 callsubr
        </CharString>
        <CharString name="U.roman_dieresis">
          369 -16 25 508 20 -1 -20 hstemhm
          36 callsubr
          hintmask 10111000
          -105 callsubr
          hintmask 01000000
          -350 119 rmoveto
          -106 callsubr
          116 hmoveto
          -95 callsubr
        </CharString>
        <CharString name="U.roman_grave">
          369 -16 25 516 20 -9 -20 hstemhm
          36 callsubr
          hintmask 10111000
          -105 callsubr
          hintmask 01000000
          -387 122 -94 callsubr
        </CharString>
        <CharString name="U.roman_hung">
          93 callsubr
          hstem
          36 callsubr
          vstem
          -105 callsubr
          -269 180 -91 callgsubr
        </CharString>
        <CharString name="U.roman_hungarumlaut">
          93 callsubr
          hstem
          36 callsubr
          vstem
          -105 callsubr
          -269 180 -91 callgsubr
        </CharString>
        <CharString name="U.roman_macron">
          93 callsubr
          72 24 hstemhm
          36 callsubr
          hintmask 11011000
          -105 callsubr
          hintmask 00100000
          -190 80 -97 callsubr
        </CharString>
        <CharString name="U.roman_ogonek">
          369 -131 22 93 25 527 -20 hstem
          36 callsubr
          vstem
          393 -108 -74 callsubr
          36 21 52 21 20 vhcurveto
          141 4 98 84 31 143 35 165 rcurveline
          135 28 19 8 45 -38 callsubr
          -39 -2 -42 -2 rlinecurve
          -49 2 -34 3 -20 2 -10 -16 rcurveline
          2 7 8 0 8 hhcurveto
          53 5 -10 -41 -31 -5 -47 -14 -62 hvcurveto
          -28 -128 rlineto
          -125 -25 -88 -68 -123 hhcurveto
          -94 -45 42 82 19 2 21 5 24 hvcurveto
          48 217 4 49 26 39 36 callgsubr
          22 -38 callsubr
          -40 -2 -41 -2 rlinecurve
          -55 2 -35 3 -17 2 -11 -16 rcurveline
          2 11 65 callgsubr
          25 16 -4 -30 -30 -8 -60 -19 -87 hvcurveto
          -29 -133 rlineto
          -5 -21 -2 -19 -18 vvcurveto
          -88 54 -46 134 -2 vhcurveto
          -29 -26 -40 -70 -42 -59 callsubr
          endchar
        </CharString>
        <CharString name="U.roman_ring">
          93 callsubr
          65 15 84 14 hstemhm
          36 callsubr
          hintmask 11001100
          -105 callsubr
          hintmask 00110000
          -229 132 -92 callsubr
        </CharString>
        <CharString name="U.roman_tilde">
          369 -16 25 477 19 13 18 0 -20 hstemhm
          36 callsubr
          hintmask 10011100
          -105 callsubr
          hintmask 01100000
          -213 113 -96 callgsubr
        </CharString>
        <CharString name="U.sm">
          172 -11 24 363 -20 hstem
          67 47 246 33 vstem
          536 377 rmoveto
          -25 -3 -34 -2 -29 -2 -74 5 rcurveline
          -12 -20 rlineto
          2 10 98 callsubr
          26 7 -4 -30 hvcurveto
          1 -21 -6 -31 -8 -42 -18 -88 rcurveline
          -88 -18 -62 -41 -79 hhcurveto
          -62 -31 27 55 13 1 15 4 16 hvcurveto
          9 40 1 26 10 vvcurveto
          6 7 vlineto
          132 28 7 6 37 hhcurveto
          8 hlineto
          17 18 -24 -3 -34 -2 -29 -2 rlinecurve
          -34 2 -28 2 -14 2 -13 -20 rcurveline
          2 9 9 1 6 hhcurveto
          19 8 -3 -19 hvcurveto
          -1 -21 -5 -39 -13 -59 -20 -92 rcurveline
          -3 -14 -1 -12 -12 vvcurveto
          -66 44 -33 94 106 69 63 99 23 vhcurveto
          24 114 9 44 8 28 8 10 rlinecurve
          -1 vlineto
          9 8 12 4 15 hhcurveto
          9 hlineto
          endchar
        </CharString>
        <CharString name="Uacute">
          54 callsubr
          hstem
          -106 callgsubr
          -90 144 -102 callgsubr
        </CharString>
        <CharString name="Ubreve">
          54 callsubr
          47 15 hstem
          -106 callgsubr
          -65 84 -82 callgsubr
        </CharString>
        <CharString name="Ucircumflex">
          54 callsubr
          hstem
          -106 callgsubr
          -270 73 -107 callsubr
        </CharString>
        <CharString name="Udieresis">
          54 callsubr
          35 20 hstemhm
          hintmask 11100000
          -106 callgsubr
          hintmask 00010000
          -224 148 rmoveto
          -106 callsubr
          116 hmoveto
          -95 callsubr
        </CharString>
        <CharString name="Ugrave">
          54 callsubr
          36 20 hstemhm
          hintmask 11100000
          -106 callgsubr
          hintmask 00010000
          -272 144 -94 callsubr
        </CharString>
        <CharString name="Uhungarumlaut">
          54 callsubr
          hstem
          -106 callgsubr
          -151 197 -91 callgsubr
        </CharString>
        <CharString name="Umacron">
          54 callsubr
          77 24 hstemhm
          hintmask 11100000
          -106 callgsubr
          hintmask 00010000
          -79 80 -97 callsubr
        </CharString>
        <CharString name="Uogonek">
          -144 22 110 59 callgsubr
          hstem
          513 -121 32 callgsubr
          48 65 55 26 26 hvcurveto
          23 24 20 24 9 12 6 7 6 9 1 10 rrcurveto
          77 callgsubr
          2 vhcurveto
          -24 -30 -18 -22 -29 -27 -30 -30 -35 -28 -25 -4 -78 -14 5 70 22 69 32 99 96 151 56 85 24 37 16 21 30 24 4 3 -11 5 -5 -4 -15 -14 -13 -8 -15 -2 rrcurveto
          -11 -2 -16 1 -8 2 -15 2 -6 -28 -9 -17 -36 -79 -53 -95 -53 -76 -51 -72 -87 -101 -79 -40 -35 -19 -44 3 4 39 12 105 126 256 70 91 rrcurveto
          23 18 29 5 24 hhcurveto
          13 15 rlineto
          -89 -141 -1 0 hvcurveto
          -44 -107 15 -32 -38 hvcurveto
          -19 -16 0 -25 2 -75 callgsubr
          88 hlineto
          -92 -90 -162 -42 -82 vhcurveto
          -21 -40 -20 -41 -17 -43 -16 -42 -8 -42 67 -1 38 -1 36 16 33 23 34 25 33 33 32 31 31 30 31 30 28 33 -31 -79 -49 -122 85 -17 rrcurveto
          -29 -21 -46 -78 68 callsubr
          endchar
        </CharString>
        <CharString name="Uring">
          54 callsubr
          75 15 84 14 hstemhm
          hintmask 11100000
          -106 callgsubr
          hintmask 00011000
          -98 137 -92 callsubr
        </CharString>
        <CharString name="Utilde">
          -12 84 callsubr
          33 19 -3 15 1 18 hstemhm
          hintmask 11010000
          -106 callgsubr
          hintmask 00101000
          -73 107 -96 callgsubr
        </CharString>
        <CharString name="V">
          249 531 15 hstem
          242 41 -2 callsubr
          43 44 -1 44 hhcurveto
          16 -67 -19 -134 -7 -60 -9 -73 -17 -73 -19 -73 9 callsubr
          100 110 112 89 64 52 46 38 callgsubr
          -88 -57 -39 -33 -188 -156 -139 -197 -82 -116 22 79 16 96 3 63 2 55 4 130 -29 55 rrcurveto
          70 hlineto
          endchar
        </CharString>
        <CharString name="V.roman">
          -22 -21 579 -20 hstem
          722 85 callsubr
          -94 7 -2 vhcurveto
          -15 -16 rlineto
          6 6 1 8 hhcurveto
          29 16 -8 -15 -15 -34 -65 -72 -126 hvcurveto
          -112 -64 -59 -103 -11 hhcurveto
          -18 -36 359 19 41 -2 24 74 hvcurveto
          14 18 rlineto
          -5 -45 -38 -2 -32 hhcurveto
          0 -15 1 -30 -31 -22 5 -1 -9 vhcurveto
          -11 -15 rlineto
          1 5 7 0 7 hhcurveto
          23 16 -4 -9 8 hvcurveto
          6 -5 10 -46 13 -86 23 -157 rcurveline
          18 -126 -5 -43 25 -38 11 -16 7 -11 2 -5 9 4 rcurveline
          22 52 53 95 85 134 rrcurveto
          245 155 35 16 51 hhcurveto
          endchar
        </CharString>
        <CharString name="V.sm">
          139 -15 -21 412 -20 hstem
          506 376 rmoveto
          -65 -8 -9 4 -11 -7 -1 2 -8 4 -15 1 -41 2 rcurveline
          -18 -18 rlineto
          13 hlineto
          3 2 1 3 hhcurveto
          18 10 -5 -9 -10 -25 -47 -47 -82 hvcurveto
          -41 -72 -30 -48 -17 -24 rrcurveto
          -1 1 0 1 1 vvcurveto
          -10 66 -4 21 rlineto
          -15 78 -5 56 33 vvcurveto
          21 -4 18 44 vhcurveto
          7 hlineto
          16 21 -30 -4 -34 -1 -22 -1 rlinecurve
          -1 2 -22 3 -32 hhcurveto
          1 -10 -11 0 -3 hhcurveto
          -12 -18 rlineto
          2 10 5 0 4 hhcurveto
          16 9 -3 -6 6 hvcurveto
          3 80 callsubr
          3 -11 -1 -10 1 -8 rlinecurve
          -2 vlineto
          -9 25 -39 2 -8 vhcurveto
          12 5 15 35 40 73 55 87 rlinecurve
          165 105 23 12 36 hhcurveto
          endchar
        </CharString>
        <CharString name="W">
          603 288 19 hstem
          476 44 161 42 -2 callsubr
          hhcurveto
          76 hlineto
          56 -66 -4 -135 -7 -61 -9 -73 -17 -73 -19 -73 -17 -56 rcurveline
          -2 -4 -5 -10 -4 vvcurveto
          -11 -1 7 -2 11 hhcurveto
          6 43 13 5 5 hvcurveto
          3 4 1 9 3 5 38 66 77 124 47 60 70 88 50 67 27 16 -67 -100 16 -152 -32 -118 9 callsubr
          103 110 112 89 63 52 44 38 callgsubr
          -86 -57 -39 -33 -187 -156 -142 -197 -82 -116 30 107 -29 216 103 103 26 26 58 33 40 -10 6 11 rcurveline
          -8 5 -15 4 -16 1 -79 6 -62 -68 -51 -54 -125 -132 -93 -157 -65 -91 22 79 16 96 3 63 2 55 8 131 -82 55 rrcurveto
          40 39 -1 40 hhcurveto
          endchar
        </CharString>
        <CharString name="W.roman">
          561 -22 -21 579 -20 hstem
          947 85 callsubr
          -90 7 -7 vhcurveto
          -15 -16 rlineto
          7 7 1 7 hhcurveto
          30 16 -8 -15 -15 -34 -64 -73 -127 hvcurveto
          -66 -115 -57 -101 -11 1 rrcurveto
          -16 -20 220 34 -3 hvcurveto
          212 132 8 -26 14 hhcurveto
          12 15 rlineto
          -1 -11 -9 0 -9 -15 -15 2 -10 hhcurveto
          -29 1 -34 -128 -73 hvcurveto
          -6 63 -3 45 28 vvcurveto
          7 0 6 1 5 vhcurveto
          4 -11 3 -22 vhcurveto
          -74 hlineto
          -10 -16 rlineto
          1 4 4 0 4 hhcurveto
          27 3 3 -235 33 hvcurveto
          -116 -69 -55 -92 -8 hhcurveto
          -18 -36 359 19 41 -2 24 74 hvcurveto
          14 18 rlineto
          -5 -45 -38 -2 -32 hhcurveto
          0 -15 1 -30 -31 -22 5 -1 -9 vhcurveto
          -11 -15 rlineto
          1 5 7 0 7 hhcurveto
          23 16 -4 -9 8 hvcurveto
          6 -5 10 -46 13 -86 23 -157 rcurveline
          18 -126 -5 -43 25 -38 11 -16 7 -11 2 -5 9 4 rcurveline
          18 44 50 90 85 138 5 -37 rcurveline
          17 -128 -4 -43 26 -36 11 -15 5 -13 3 -4 9 4 rcurveline
          22 52 53 95 85 134 rrcurveto
          249 157 35 12 50 hhcurveto
          endchar
        </CharString>
        <CharString name="W.sm">
          306 -15 -21 412 -20 hstem
          661 376 rmoveto
          -72 -8 -1 5 -11 -8 -2 2 -10 4 -13 1 -41 2 rcurveline
          -18 -18 rlineto
          14 hlineto
          2 3 1 3 hhcurveto
          19 9 -5 -9 -10 -25 -47 -47 -82 hvcurveto
          -43 -75 -30 -48 -16 -22 -12 86 -3 2 -9 82 rrcurveto
          141 86 7 -16 11 hhcurveto
          15 18 rlineto
          -1 -11 -9 0 -7 -11 -7 1 -7 hhcurveto
          -28 4 -21 -83 -48 hvcurveto
          -2 35 -2 26 18 vvcurveto
          7 0 5 1 5 vhcurveto
          4 -8 4 -17 vhcurveto
          -51 hlineto
          -17 -20 rlineto
          1 5 5 1 5 hhcurveto
          20 -3 4 -160 25 hvcurveto
          -41 -69 -29 -46 -15 -21 -1 -2 rcurveline
          -9 9 -1 53 -1 7 -1 9 -3 6 -1 6 rrcurveto
          -13 78 -6 55 33 vvcurveto
          22 -4 18 43 vhcurveto
          7 hlineto
          17 21 -31 -4 -33 -1 -22 -1 rlinecurve
          -1 1 -20 3 -34 hhcurveto
          1 -9 -11 0 -3 hhcurveto
          -13 -18 rlineto
          2 11 4 0 5 hhcurveto
          16 9 -3 -6 5 hvcurveto
          4 80 callsubr
          rlineto
          2 -14 1 -16 -6 vvcurveto
          -2 vlineto
          1 -8 23 -35 2 -6 13 5 rcurveline
          13 31 32 58 54 89 2 -16 rcurveline
          1 vlineto
          11 -81 5 -38 rlineto
          -9 24 -33 2 -7 vhcurveto
          12 5 14 35 41 73 55 87 rlinecurve
          166 106 22 11 37 hhcurveto
          endchar
        </CharString>
        <CharString name="X">
          253 518 25 hstem
          736 449 rmoveto
          15 35 48 69 -78 12 -33 5 -33 -11 -32 -17 -93 -51 -130 -133 -70 -71 -12 52 -22 102 6 77 rrcurveto
          42 43 -1 42 hhcurveto
          21 26 rlineto
          -89 -141 -1 0 hvcurveto
          -44 -107 15 -32 -38 hvcurveto
          -19 -16 1 -25 1 -75 callgsubr
          27 27 0 -1 27 hvcurveto
          -23 -33 5 -92 11 -81 3 -19 3 -23 5 -24 -112 -121 -121 -119 -93 -19 -48 -10 -28 23 29 68 3 9 -6 7 -10 -24 -9 -21 -8 -22 -1 -17 -2 -49 31 -16 42 8 rrcurveto
          110 23 112 135 116 124 16 -74 24 -83 31 -43 56 -77 96 87 63 78 13 16 2 25 -14 -17 -43 -55 -75 -97 -45 62 -35 49 -44 137 -9 33 2 2 0 2 1 2 rrcurveto
          65 63 146 144 83 41 24 13 22 5 21 -3 40 -6 -10 -57 -6 -24 -2 -6 14 3 2 4 rrcurveto
          endchar
        </CharString>
        <CharString name="X.roman">
          2 -21 537 16 2 -20 hstemhm
          hintmask 11000000
          607 15 rmoveto
          -55 3 -33 9 -11 17 -28 44 -39 81 -52 117 127 144 54 74 61 10 46 5 rcurveline
          13 15 rlineto
          -3 -76 -40 -1 -2 -11 -102 4 3 hhcurveto
          -12 -15 rlineto
          52 25 -8 -15 -17 -68 -74 -80 -95 hvcurveto
          -42 96 -21 61 -2 24 rrcurveto
          21 24 6 38 vhcurveto
          hintmask 10100000
          9 18 rlineto
          -5 -43 -39 -2 -35 hhcurveto
          hintmask 11000000
          3 -105 5 -11 hhcurveto
          -6 -15 4 3 57 -8 8 -7 rlinecurve
          11 -9 41 -81 68 -155 -82 -97 -62 -70 -37 -38 rrcurveto
          -30 -29 -44 -13 -61 hhcurveto
          -10 -16 rlineto
          4 37 33 2 28 hhcurveto
          56 43 -2 -4 29 hvcurveto
          14 18 rlineto
          -39 -22 1 16 18 51 66 106 123 hvcurveto
          41 -94 37 -76 -25 vvcurveto
          -20 -19 -10 -38 vhcurveto
          -12 -17 rlineto
          4 27 46 3 61 hhcurveto
          31 33 -3 -5 39 hvcurveto
          endchar
        </CharString>
        <CharString name="X.sm">
          139 1 -21 376 18 2 -20 hstem
          426 17 rmoveto
          -39 3 -25 5 -7 11 -19 29 -26 55 -36 80 82 95 40 53 41 5 32 4 rcurveline
          15 17 rlineto
          -2 -52 -33 0 -2 -8 -71 2 1 hhcurveto
          -14 -17 rlineto
          39 19 -4 -9 hvcurveto
          -15 -21 -31 -38 -52 -62 -28 63 -13 39 -2 17 1 2 rcurveline
          9 2 10 3 19 hhcurveto
          9 hlineto
          12 21 rlineto
          -5 -34 -30 -1 -24 -10 -51 3 -19 hhcurveto
          -5 -11 rlineto
          -2 -2 -1 -1 -1 vvcurveto
          -3 43 -1 8 -6 vhcurveto
          8 -5 27 -54 45 -107 rrcurveto
          -118 -100 -17 -48 -97 hhcurveto
          -11 -19 rlineto
          3 30 24 2 19 hhcurveto
          40 30 -2 -2 20 hvcurveto
          14 19 rlineto
          -18 hlineto
          -18 -8 2 7 hvcurveto
          3 vlineto
          8 19 35 43 60 70 rrcurveto
          28 -61 24 -50 -17 vvcurveto
          -12 -12 -5 -27 vhcurveto
          -11 -20 30 5 19 0 26 1 rlinecurve
          21 hlineto
          21 24 -3 -3 29 hvcurveto
          endchar
        </CharString>
        <CharString name="Y">
          163 -39 38 518 26 -2 31 hstemhm
          hintmask 10100000
          19 callgsubr
          hintmask 11000000
          -75 callsubr
          rrcurveto
          hintmask 10100000
          -17 callgsubr
          rrcurveto
          endchar
        </CharString>
        <CharString name="Y.roman">
          274 2 -21 534 70 callgsubr
          hintmask 11010000
          393 294 rmoveto
          -44 callsubr
          hintmask 10110000
          -53 callgsubr
          endchar
        </CharString>
        <CharString name="Y.roman_acute">
          274 2 -21 534 70 callgsubr
          hintmask 11010000
          393 294 rmoveto
          -44 callsubr
          hintmask 10110000
          -53 callgsubr
          109 332 -102 callgsubr
        </CharString>
        <CharString name="Y.roman_dieresis">
          274 2 -21 522 20 -8 70 callgsubr
          hintmask 11001000
          393 294 rmoveto
          hintmask 10101000
          -44 callsubr
          hintmask 10011000
          -53 callgsubr
          71 333 rmoveto
          -106 callsubr
          -116 hmoveto
          -95 callsubr
        </CharString>
        <CharString name="Y.sm">
          105 1 -21 374 20 0 -20 hstem
          165 46 vstem
          275 204 rmoveto
          90 69 42 60 56 hhcurveto
          11 hlineto
          14 20 -72 -3 rlineto
          -34 -3 -14 -62 -48 hvcurveto
          -31 -40 -23 -31 -16 -26 rrcurveto
          53 -13 -31 120 -10 -10 -8 1 -9 hhcurveto
          -21 hlineto
          2 -28 -19 0 -3 hhcurveto
          -5 -11 rlineto
          -2 -2 -1 -1 -1 vvcurveto
          -1 50 -6 4 -3 vhcurveto
          20 -20 40 -109 -53 vvcurveto
          -39 -12 -49 -14 -41 vhcurveto
          -14 -7 -19 -8 -28 -3 -2 1 -2 hhcurveto
          -6 hlineto
          -12 -19 rlineto
          3 46 36 3 14 hhcurveto
          42 29 -2 -4 15 hvcurveto
          13 19 rlineto
          -33 -28 3 18 hvcurveto
          7 71 16 58 29 37 rrcurveto
          endchar
        </CharString>
        <CharString name="Yacute">
          163 -39 38 518 26 -2 31 153 -20 hstemhm
          hintmask 10110000
          19 callgsubr
          hintmask 11010000
          -75 callsubr
          rrcurveto
          hintmask 10110000
          -17 callgsubr
          rrcurveto
          -119 149 -102 callgsubr
        </CharString>
        <CharString name="Ydieresis">
          163 574 20 hstem
          19 callgsubr
          -75 callsubr
          -17 callgsubr
          rrcurveto
          -176 153 rmoveto
          -106 callsubr
          -116 hmoveto
          -95 callsubr
        </CharString>
        <CharString name="Z">
          164 -254 37 736 26 hstem
          732 -89 rmoveto
          -11 14 -14 11 -14 9 -2 1 -13 -8 2 -3 7 -7 11 -12 9 -15 34 -55 -6 -61 -70 -2 -55 -1 -92 85 -80 96 -109 132 -75 77 -148 -76 149 161 166 147 168 121 rrcurveto
          3 4 4 17 -3 hhcurveto
          -233 hlineto
          -43 -1 -113 13 -37 -32 -19 -16 0 -25 2 -17 callsubr
          10 8 rcurveline
          -2 4 -9 23 -1 11 rrcurveto
          73 -6 123 4 39 hhcurveto
          63 63 -1 -1 63 hvcurveto
          -144 -116 -321 -260 -89 -143 -26 -42 49 -26 19 26 9 12 3 15 4 16 rrcurveto
          60 18 65 40 62 hhcurveto
          75 1 45 -64 62 -72 rrcurveto
          -73 64 105 -145 107 hhcurveto
          81 1 66 92 -55 72 rrcurveto
          endchar
        </CharString>
        <CharString name="Z.roman">
          52 callgsubr
          -83 callsubr
          endchar
        </CharString>
        <CharString name="Z.roman_acute">
          52 callgsubr
          -83 callsubr
          -3 530 -102 callgsubr
        </CharString>
        <CharString name="Z.roman_dotaccent">
          52 callgsubr
          80 20 -83 callsubr
          -133 520 rmoveto
          -95 callsubr
        </CharString>
        <CharString name="Z.sm">
          43 -2 -21 24 22 323 26 0 -20 hstem
          27 20 vstem
          330 88 rmoveto
          -9 4 -36 -78 -5 17 -183 -9 rlinecurve
          1 1 1 1 1 vhcurveto
          74 103 94 120 42 51 31 38 19 21 rlinecurve
          1 14 rlineto
          -3 -52 -31 -1 -6 hhcurveto
          -37 hlineto
          -34 -41 1 3 -45 hvcurveto
          -11 -11 -6 -36 -6 -21 -6 -30 rlinecurve
          23 12 rlineto
          4 1 39 27 11 vhcurveto
          -1 hlineto
          7 21 77 0 50 hhcurveto
          1 0 -1 -1 hvcurveto
          -26 -42 -29 -37 -32 -41 -62 -79 rcurveline
          -55 -67 -57 -65 -1 -11 2 -9 rcurveline
          6 24 18 1 22 hhcurveto
          91 57 -3 -2 23 89 callsubr
          12 8 22 59 8 14 rrcurveto
          endchar
        </CharString>
        <CharString name="Zacute">
          164 -254 37 736 26 180 -20 hstem
          732 -89 rmoveto
          -11 14 -14 11 -14 9 -2 1 -13 -8 2 -3 7 -7 11 -12 9 -15 34 -55 -6 -61 -70 -2 -55 -1 -92 85 -80 96 -109 132 -75 77 -148 -76 149 161 166 147 168 121 rrcurveto
          3 4 4 17 -3 hhcurveto
          -233 hlineto
          -43 -1 -113 13 -37 -32 -19 -16 0 -25 2 -17 callsubr
          10 8 rcurveline
          -2 4 -9 23 -1 11 rrcurveto
          73 -6 123 4 39 hhcurveto
          63 63 -1 -1 63 hvcurveto
          -144 -116 -321 -260 -89 -143 -26 -42 49 -26 19 26 9 12 3 15 4 16 rrcurveto
          60 18 65 40 62 hhcurveto
          75 1 45 -64 62 -72 rrcurveto
          -73 64 105 -145 107 hhcurveto
          81 1 66 92 -55 72 rrcurveto
          -175 783 -102 callgsubr
        </CharString>
        <CharString name="Zcaron">
          164 -254 37 736 26 hstem
          732 -89 rmoveto
          -11 14 -14 11 -14 9 -2 1 -13 -8 2 -3 7 -7 11 -12 9 -15 34 -55 -6 -61 -70 -2 -55 -1 -92 85 -80 96 -109 132 -75 77 -148 -76 149 161 166 147 168 121 rrcurveto
          3 4 4 17 -3 hhcurveto
          -233 hlineto
          -43 -1 -113 13 -37 -32 -19 -16 0 -25 2 -17 callsubr
          10 8 rcurveline
          -2 4 -9 23 -1 11 rrcurveto
          73 -6 123 4 39 hhcurveto
          63 63 -1 -1 63 hvcurveto
          -144 -116 -321 -260 -89 -143 -26 -42 49 -26 19 26 9 12 3 15 4 16 rrcurveto
          60 18 65 40 62 hhcurveto
          75 1 45 -64 62 -72 rrcurveto
          -73 64 105 -145 107 hhcurveto
          81 1 66 92 -55 72 rrcurveto
          -166 774 -103 callgsubr
        </CharString>
        <CharString name="Zdotaccent">
          164 629 20 hstem
          732 -89 rmoveto
          -11 14 -14 11 -14 9 -2 1 -13 -8 2 -3 7 -7 11 -12 9 -15 34 -55 -6 -61 -70 -2 -55 -1 -92 85 -80 96 -109 132 -75 77 -148 -76 149 161 166 147 168 121 rrcurveto
          3 4 4 17 -3 hhcurveto
          -233 hlineto
          -43 -1 -113 13 -37 -32 -19 -16 0 -25 2 -17 callsubr
          10 8 rcurveline
          -2 4 -9 23 -1 11 rrcurveto
          73 -6 123 4 39 hhcurveto
          63 63 -1 -1 63 hvcurveto
          -144 -116 -321 -260 -89 -143 -26 -42 49 -26 19 26 9 12 3 15 4 16 rrcurveto
          60 18 65 40 62 hhcurveto
          75 1 45 -64 62 -72 rrcurveto
          -73 64 105 -145 107 hhcurveto
          81 1 66 92 -55 72 rrcurveto
          -335 766 rmoveto
          -95 callsubr
        </CharString>
        <CharString name="_546">
          47 13 -21 450 -20 hstem
          -58 callgsubr
        </CharString>
        <CharString name="_547">
          -46 19 -21 -67 callgsubr
        </CharString>
        <CharString name="_548">
          25 -5 41 hstem
          383 -80 callsubr
        </CharString>
        <CharString name="_549">
          25 231 208 hstem
          -84 callsubr
        </CharString>
        <CharString name="_550">
          -64 callgsubr
        </CharString>
        <CharString name="_551">
          21 240 26 -26 193 hstemhm
          hintmask 01000000
          -68 callsubr
          hintmask 10000000
          -46 callgsubr
        </CharString>
        <CharString name="_552">
          47 17 -21 276 -20 194 -20 hstem
          -81 callsubr
        </CharString>
        <CharString name="_553">
          21 399 34 hstem
          436 431 -70 callsubr
          -299 -324 -3 -22 2 -5 28 9 29 -6 8 59 261 307 58 65 rrcurveto
          endchar
        </CharString>
        <CharString name="_554">
          21 12 -21 458 -20 hstem
          389 -71 callgsubr
        </CharString>
        <CharString name="_555">
          47 17 -21 450 -20 hstem
          -79 callsubr
        </CharString>
        <CharString name="a">
          5 257 15 hstem
          347 148 rmoveto
          -33 -27 -69 -89 -39 -49 callgsubr
          32 70 126 20 30 hvcurveto
          67 callgsubr
          14 -42 callsubr
          3 -2 1 -3 hvcurveto
          -115 hlineto
          -27 -26 66 callsubr
          -61 -47 -63 -95 -9 -78 23 callgsubr
          -15 10 -4 14 64 61 65 53 40 vhcurveto
          6 8 14 17 -8 8 rrcurveto
          -107 93 -93 callgsubr
          endchar
        </CharString>
        <CharString name="a.alt">
          165 93 callgsubr
          hstemhm
          214 92 hintmask 10110000
          265 222 rmoveto
          -94 -84 -122 -62 -64 -110 -68 -116 77 -78 119 37 52 17 42 38 37 44 4 11 -2 5 -8 -7 -37 -44 -29 -16 -41 -23 -128 -71 -31 132 45 75 53 89 86 60 78 64 rrcurveto
          -36 -47 -28 -59 -6 -50 23 callgsubr
          hintmask 01110000
          -15 10 -4 14 45 43 32 37 36 vhcurveto
          15 16 14 17 12 16 6 8 14 17 -8 8 rrcurveto
          hintmask 10110000
          -33 -27 -69 -89 -39 -49 callgsubr
          32 70 126 20 30 hvcurveto
          67 callgsubr
          14 -42 callsubr
          3 -2 1 -3 hvcurveto
          -115 hlineto
          -27 -26 66 callsubr
          -8 -6 -8 -7 -8 -8 rrcurveto
          -3 -2 -2 -2 -3 hvcurveto
          135 19 -93 callgsubr
          endchar
        </CharString>
        <CharString name="a.begin">
          52 93 callgsubr
          hstemhm
          101 92 hintmask 10110000
          -105 96 -19 callsubr
          38 17 36 40 33 41 -11 -24 -8 -25 -2 -23 23 callgsubr
          hintmask 01110000
          -15 10 -4 14 45 43 32 37 36 vhcurveto
          15 16 14 17 12 16 6 8 14 17 -8 8 rrcurveto
          hintmask 10110000
          -33 -27 -69 -89 -39 -49 callgsubr
          32 70 126 20 30 hvcurveto
          67 callgsubr
          14 -42 callsubr
          3 -2 1 -3 hvcurveto
          -115 hlineto
          -27 -26 66 callsubr
          -25 -19 -24 -26 -22 -30 -44 -56 -43 -59 -62 -36 -23 callsubr
          392 145 -93 callgsubr
          endchar
        </CharString>
        <CharString name="a.end">
          5 64 callgsubr
          hstem
          536 31 rmoveto
          7 13 5 13 -6 11 rrcurveto
          -5 -9 -15 -6 hvcurveto
          4 -26 -40 -29 -18 -12 -62 -39 -83 9 -48 7 -33 5 -42 17 -5 18 -17 46 87 160 17 25 rrcurveto
          67 callgsubr
          14 -42 callsubr
          3 -2 1 -3 hvcurveto
          -115 hlineto
          -27 -26 66 callsubr
          -61 -47 -63 -95 -9 -78 -69 callsubr
          22 22 26 vhcurveto
          21 19 32 31 24 24 -26 -53 -14 -67 8 -24 7 -18 38 -18 40 -6 80 -13 79 0 66 42 17 11 33 30 19 31 rrcurveto
          -296 210 -93 callgsubr
          endchar
        </CharString>
        <CharString name="aacute">
          5 257 15 hstem
          347 148 rmoveto
          -33 -27 -69 -89 -39 -49 callgsubr
          32 70 126 20 30 hvcurveto
          67 callgsubr
          14 -42 callsubr
          3 -2 1 -3 hvcurveto
          -115 hlineto
          -27 -26 66 callsubr
          -61 -47 -63 -95 -9 -78 23 callgsubr
          -15 10 -4 14 64 61 65 53 40 vhcurveto
          6 8 14 17 -8 8 rrcurveto
          -107 93 -93 callgsubr
          133 172 -102 callgsubr
        </CharString>
        <CharString name="abreve">
          5 257 15 48 15 hstem
          347 148 rmoveto
          -33 -27 -69 -89 -39 -49 callgsubr
          32 70 126 20 30 hvcurveto
          67 callgsubr
          14 -42 callsubr
          3 -2 1 -3 hvcurveto
          -115 hlineto
          -27 -26 66 callsubr
          -61 -47 -63 -95 -9 -78 23 callgsubr
          -15 10 -4 14 64 61 65 53 40 vhcurveto
          6 8 14 17 -8 8 rrcurveto
          -107 93 -93 callgsubr
          126 127 -82 callgsubr
        </CharString>
        <CharString name="acircumflex">
          5 257 15 hstem
          347 148 rmoveto
          -33 -27 -69 -89 -39 -49 callgsubr
          32 70 126 20 30 hvcurveto
          67 callgsubr
          14 -42 callsubr
          3 -2 1 -3 hvcurveto
          -115 hlineto
          -27 -26 66 callsubr
          -61 -47 -63 -95 -9 -78 23 callgsubr
          -15 10 -4 14 64 61 65 53 40 vhcurveto
          6 8 14 17 -8 8 rrcurveto
          -107 93 -93 callgsubr
          -82 101 -107 callsubr
        </CharString>
        <CharString name="acute">
          -160 356 -21 109 -20 hstem
          158 413 -102 callgsubr
        </CharString>
        <CharString name="adieresis">
          5 257 15 21 20 hstemhm
          hintmask 10000000
          347 148 rmoveto
          -33 -27 -69 -89 -39 -49 callgsubr
          32 70 126 20 30 hvcurveto
          67 callgsubr
          14 -42 callsubr
          3 -2 1 -3 hvcurveto
          -115 hlineto
          -27 -26 66 callsubr
          -61 -47 -63 -95 -9 -78 23 callgsubr
          -15 10 -4 14 64 61 65 53 40 vhcurveto
          6 8 14 17 -8 8 rrcurveto
          -107 93 -93 callgsubr
          hintmask 01000000
          -25 176 rmoveto
          -106 callsubr
          116 hmoveto
          -95 callsubr
        </CharString>
        <CharString name="ae">
          108 -1 15 243 15 -9 15 hstemhm
          hintmask 11000000
          447 144 rmoveto
          -78 callsubr
          -14 -15 -4 -5 -14 hvcurveto
          hintmask 10100000
          6 9 -10 2 -11 -1 -105 -5 rcurveline
          -27 -1 -26 -8 -22 -17 -61 -47 -63 -95 -9 -78 -69 callsubr
          22 22 26 vhcurveto
          23 20 24 22 21 23 rrcurveto
          -55 -23 -7 -60 89 hhcurveto
          84 79 73 56 41 hvcurveto
          6 9 5 7 -7 7 rrcurveto
          -207 97 -93 callgsubr
          119 19 -12 callgsubr
        </CharString>
        <CharString name="agrave">
          5 257 15 22 20 hstemhm
          hintmask 10000000
          347 148 rmoveto
          -33 -27 -69 -89 -39 -49 callgsubr
          32 70 126 20 30 hvcurveto
          67 callgsubr
          14 -42 callsubr
          3 -2 1 -3 hvcurveto
          -115 hlineto
          -27 -26 66 callsubr
          -61 -47 -63 -95 -9 -78 23 callgsubr
          -15 10 -4 14 64 61 65 53 40 vhcurveto
          6 8 14 17 -8 8 rrcurveto
          -107 93 -93 callgsubr
          hintmask 01000000
          -73 172 -94 callsubr
        </CharString>
        <CharString name="amacron">
          5 257 15 77 24 hstemhm
          hintmask 10000000
          347 148 rmoveto
          -33 -27 -69 -89 -39 -49 callgsubr
          32 70 126 20 30 hvcurveto
          67 callgsubr
          14 -42 callsubr
          3 -2 1 -3 hvcurveto
          -115 hlineto
          -27 -26 66 callsubr
          -61 -47 -63 -95 -9 -78 23 callgsubr
          -15 10 -4 14 64 61 65 53 40 vhcurveto
          6 8 14 17 -8 8 rrcurveto
          -107 93 -93 callgsubr
          hintmask 01000000
          132 122 -97 callsubr
        </CharString>
        <CharString name="ampersand">
          319 -111 38 32 49 175 23 265 12 hstem
          111 60 102 31 172 14 vstem
          795 -5 rmoveto
          8 11 -7 12 -8 -11 -51 -66 -66 -71 -98 127 -20 27 -25 40 -24 41 15 22 13 31 5 24 53 -6 rcurveline
          21 -2 3 -1 5 9 18 27 rcurveline
          3 5 -5 1 -2 -2 rrcurveto
          -8 -10 -21 1 -19 hhcurveto
          -134 hlineto
          -21 42 -22 45 -10 25 33 23 49 40 10 39 18 78 -129 14 -22 -98 -7 -36 4 -35 10 -33 -1 -1 rcurveline
          -62 -36 -68 -30 -55 -48 -31 -27 -27 -36 -6 -42 -5 -33 10 -31 21 -23 46 -52 101 -15 114 72 32 20 21 18 21 22 19 -34 19 -33 18 -25 99 -139 83 42 84 116 rrcurveto
          -331 90 rmoveto
          -22 -26 -26 -22 -28 -11 -58 -22 -98 -8 -42 42 -36 38 20 62 29 36 38 48 63 38 52 32 9 6 rcurveline
          12 -31 13 -31 12 -29 -40 2 -53 0 -22 -19 -16 -13 1 -20 1 -12 1 -12 20 -31 10 -17 8 6 rcurveline
          -2 4 -6 18 9 vvcurveto
          -4 51 70 14 41 2 21 -44 20 -37 12 -23 rrcurveto
          11 341 rmoveto
          -9 -35 -36 -35 -38 -27 -5 17 -10 40 7 31 17 76 87 -11 -13 -56 rrcurveto
          48 -242 rmoveto
          -7 -18 -11 -24 -12 -18 -35 65 rcurveline
          22 -1 22 -2 21 -2 rrcurveto
          endchar
        </CharString>
        <CharString name="ampersand.sc">
          133 410 29 rmoveto
          -46 -31 -34 57 -17 33 11 15 13 18 7 18 9 -1 10 -1 11 -2 15 -1 2 -1 4 6 13 20 rcurveline
          2 3 -4 1 -1 -2 rrcurveto
          -5 -7 -15 0 -14 hhcurveto
          -32 -45 1 2 -18 hvcurveto
          -15 30 -15 37 -7 18 24 17 36 25 8 28 16 65 -116 -5 -16 -69 -5 -26 9 -21 7 -23 -45 -27 -46 -25 -40 -34 -22 -20 -19 -25 -4 -30 -4 -24 7 -22 15 -16 rrcurveto
          44 -50 111 5 86 87 39 -73 46 -8 48 48 rrcurveto
          -127 298 rmoveto
          -6 -25 -24 -19 -27 -19 -3 12 -9 23 5 22 12 54 62 -8 -10 -40 rrcurveto
          38 -178 rmoveto
          -5 -9 -11 -15 -9 -13 -6 11 -12 23 -4 6 rrcurveto
          16 16 -2 -1 15 hvcurveto
          -52 -71 rmoveto
          -39 -42 -102 -43 -43 50 -31 36 8 37 21 26 27 34 45 27 43 27 4 -12 14 -32 8 -21 -28 2 -38 0 -16 -14 -11 -9 1 -14 1 -9 rrcurveto
          -9 14 -22 8 -12 vhcurveto
          5 5 rlineto
          -1 2 -4 13 7 vvcurveto
          -3 36 50 10 29 1 15 -31 14 -26 9 -17 rrcurveto
          endchar
        </CharString>
        <CharString name="aogonek">
          5 -117 22 352 15 hstem
          228 -94 -74 callsubr
          35 20 52 21 20 vhcurveto
          63 2 60 63 40 53 6 8 14 17 -8 8 rrcurveto
          -33 -27 -69 -89 -39 -49 callgsubr
          32 70 126 20 30 hvcurveto
          67 callgsubr
          14 -42 callsubr
          3 -2 1 -3 hvcurveto
          -115 hlineto
          -27 -26 66 callsubr
          -61 -47 -63 -95 -9 -78 23 callgsubr
          -9 3 -5 6 -2 vhcurveto
          -29 -25 -42 -73 -42 -59 callsubr
          12 335 -93 callgsubr
          endchar
        </CharString>
        <CharString name="apple">
          112 214 91 hstem
          119 20 16 51 28 17 vstem
          282 -31 rmoveto
          46 40 66 52 17 hvcurveto
          -35 13 -24 33 -2 39 -2 50 27 30 24 13 -32 53 -57 -3 -12 -5 -9 -4 -21 -7 -16 -4 -13 -4 -11 -1 -14 4 -17 5 -21 7 -9 4 -13 5 -57 0 -35 -64 rrcurveto
          -39 -70 25 -110 49 -58 rrcurveto
          -25 21 17 -19 23 hhcurveto
          22 11 7 5 7 hvcurveto
          17 11 35 0 18 -11 rrcurveto
          -5 7 11 -7 22 hhcurveto
          -73 336 rmoveto
          68 -4 37 81 -23 32 -10 4 -36 -15 -18 -26 -18 -28 -4 -32 4 -12 rrcurveto
          endchar
        </CharString>
        <CharString name="approxequal">
          5 49 19 8 20 34 19 28 -20 hstem
          288 162 rmoveto
          -6 8 rlineto
          -11 -17 -9 -10 -21 -48 -29 28 37 callgsubr
          9 10 hvcurveto
          -14 -80 rmoveto
          -6 7 rlineto
          -11 -17 -9 -9 -21 -48 -29 27 37 callgsubr
          10 10 hvcurveto
          endchar
        </CharString>
        <CharString name="aring">
          5 257 15 61 15 84 14 hstemhm
          hintmask 10000000
          347 148 rmoveto
          -33 -27 -69 -89 -39 -49 callgsubr
          32 70 126 20 30 hvcurveto
          67 callgsubr
          14 -42 callsubr
          3 -2 1 -3 hvcurveto
          -115 hlineto
          -27 -26 66 callsubr
          -61 -47 -63 -95 -9 -78 23 callgsubr
          -15 10 -4 14 64 61 65 53 40 vhcurveto
          6 8 14 17 -8 8 rrcurveto
          -107 93 -93 callgsubr
          hintmask 01100000
          118 165 -92 callsubr
        </CharString>
        <CharString name="asciicircum">
          24 270 -21 98 -20 hstem
          314 255 rmoveto
          -4 7 -34 26 -34 26 -28 31 rlinecurve
          -5 2 -15 -2 -108 -75 -1 -10 rlinecurve
          -3 -1 3 -5 3 hhcurveto
          8 83 56 9 13 hvcurveto
          16 -17 75 -50 24 -1 rrcurveto
          endchar
        </CharString>
        <CharString name="asciitilde">
          -12 319 19 28 -20 hstem
          297 352 rmoveto
          -6 7 rlineto
          -11 -17 -8 -10 -21 -48 -31 28 -36 hhcurveto
          -18 -24 -20 -11 -13 hvcurveto
          8 -10 rlineto
          10 12 14 11 17 39 34 -27 45 hhcurveto
          14 30 23 10 9 hvcurveto
          endchar
        </CharString>
        <CharString name="asterisk">
          218 255 -21 375 -20 hstem
          449 354 rmoveto
          -144 66 1 2 184 68 -16 51 -174 -100 -3 2 71 166 rlineto
          -62 hlineto
          -31 -166 -4 -2 -113 99 -47 -51 143 -67 rlineto
          -2 vlineto
          -184 -66 16 -51 173 98 3 -2 -70 -165 rlineto
          62 hlineto
          30 165 4 2 113 -98 rlineto
          endchar
        </CharString>
        <CharString name="at">
          405 -10 18 111 29 235 12 hstem
          20 53 255 52 241 58 vstem
          422 364 rmoveto
          -42 -138 -168 -40 -7 -2 6 6 42 69 -3 callsubr
          27 21 21 hhcurveto
          13 11 -5 -14 hvcurveto
          -42 -202 rmoveto
          2 40 68 118 19 31 rrcurveto
          10 7 14 22 15 hhcurveto
          4 5 4 4 3 -3 1 -2 hvcurveto
          -115 1 rlineto
          -27 -26 -10 -16 -22 hvcurveto
          -61 -48 -63 -95 -10 -77 rrcurveto
          -8 vlineto
          -12 4 -9 14 35 30 22 22 25 vhcurveto
          26 21 25 24 23 25 rrcurveto
          -14 -23 -25 -47 -26 vvcurveto
          -15 10 -5 14 170 148 65 159 11 vhcurveto
          9 131 -136 54 -137 2 -201 3 -196 -132 -2 -215 rrcurveto
          -146 125 -53 124 113 82 15 74 82 vhcurveto
          29 25 -12 37 -29 -30 rrcurveto
          -75 -70 -93 -31 -102 hhcurveto
          -110 -86 75 109 hvcurveto
          185 2 170 136 172 hhcurveto
          106 1 103 -43 -114 vvcurveto
          -188 -247 -55 3 54 vhcurveto
          endchar
        </CharString>
        <CharString name="atilde">
          5 252 19 -14 15 12 18 hstemhm
          hintmask 01000000
          347 148 rmoveto
          -33 -27 -69 -89 -39 -49 callgsubr
          32 70 126 20 30 hvcurveto
          67 callgsubr
          14 -42 callsubr
          3 -2 1 -3 hvcurveto
          -115 hlineto
          -27 -26 66 callsubr
          -61 -47 -63 -95 -9 -78 23 callgsubr
          -15 10 -4 14 64 61 65 53 40 vhcurveto
          6 8 14 17 -8 8 rrcurveto
          -107 93 -93 callgsubr
          hintmask 10100000
          124 160 -96 callgsubr
        </CharString>
        <CharString name="b">
          -20 12 -21 247 34 274 -20 49 37 hstem
          27 43 vstem
          511 550 rmoveto
          29 vlineto
          22 -1 -20 11 -20 hhcurveto
          -57 -59 -49 -38 -39 hvcurveto
          -87 -86 -68 -114 -56 -117 41 callsubr
          -76 callsubr
          6 8 18 18 17 20 -16 -37 -15 -36 -13 -35 -39 callgsubr
          136 62 80 267 185 hhcurveto
          18 24 -6 -21 -2 2 0 1 2 4 1 3 hvcurveto
          -256 -325 -54 callgsubr
        </CharString>
        <CharString name="b.alt">
          240 12 -21 247 34 333 -20 hstem
          275 43 vstem
          715 605 rmoveto
          -57 -56 -42 -38 -39 hvcurveto
          -74 -73 -60 -94 -51 -98 -11 -20 -9 -18 -9 -19 -100 -72 -152 -73 -68 -98 -75 -111 72 -84 121 29 53 13 45 35 39 41 4 11 -1 5 -9 -6 -39 -41 -30 -14 -42 -20 rrcurveto
          -133 -62 -22 134 50 72 61 85 125 73 91 64 -22 -46 -17 -44 -16 -44 -39 callgsubr
          19 44 104 59 118 46 102 105 rlinecurve
          40 41 30 61 -27 42 rrcurveto
          33 -14 -21 2 -17 hhcurveto
          -2 -17 rmoveto
          76 -35 -86 -65 -62 hvcurveto
          -85 -89 -103 -58 -98 -53 rrcurveto
          201 85 111 150 111 hhcurveto
          -210 -363 -54 callgsubr
        </CharString>
        <CharString name="b.begin">
          -30 12 -21 247 34 -34 60 288 26 hstemhm
          11 43 hintmask 11011000
          44 430 rmoveto
          -39 -78 52 -52 72 -11 -15 -29 -14 -28 -13 -29 -27 -59 -22 -43 -18 -51 -39 callgsubr
          15 32 15 40 18 42 116 1 121 64 75 83 38 41 19 69 -39 35 rrcurveto
          22 -1 -20 11 -20 hhcurveto
          -57 -59 -49 -38 -39 hvcurveto
          -64 -63 -55 -79 -46 -84 -62 8 -54 40 39 76 4 9 -11 6 -6 -8 rrcurveto
          404 156 92 callsubr
          hintmask 10111000
          50 callsubr
          -209 -361 -54 callgsubr
        </CharString>
        <CharString name="b.end">
          -20 12 -21 247 34 108 28 230 35 hstem
          27 43 vstem
          681 612 -10 callgsubr
          -85 -45 -205 -3 -104 -5 32 54 40 52 51 43 rrcurveto
          47 57 76 34 80 hhcurveto
          26 41 -9 -27 -5 0 -4 8 15 hvcurveto
          12 -6 3 -3 17 vhcurveto
          27 -6 -29 6 -30 hhcurveto
          -83 -81 -53 -49 -57 hvcurveto
          -59 -51 -47 -56 -39 -58 -68 -4 -52 -11 -58 -39 -2 -1 -23 -14 -4 -13 -2 -6 2 -5 6 7 41 50 81 6 61 3 -37 -58 -29 -59 -26 -54 41 callsubr
          rrcurveto
          -76 callsubr
          6 8 18 18 17 20 -16 -37 -15 -36 -13 -35 -39 callgsubr
          23 52 29 78 43 78 107 5 190 9 84 39 50 22 46 38 14 42 12 39 -8 35 -42 3 rrcurveto
          -426 -387 -54 callgsubr
        </CharString>
        <CharString name="backslash">
          209 611 -20 hstem
          509 -25 rmoveto
          -88 130 -248 373 -110 132 -4 5 -61 -16 3 -3 130 -152 254 -358 91 -114 7 -8 32 2 -6 9 rrcurveto
          endchar
        </CharString>
        <CharString name="bar">
          75 21 -21 577 -20 hstem
          298 577 rmoveto
          -33 -84 -177 -426 -24 -67 rrcurveto
          42 hlineto
          18 43 201 507 20 27 rrcurveto
          endchar
        </CharString>
        <CharString name="braceleft">
          65 560 -20 hstem
          91 241 rmoveto
          -13 -13 51 -5 44 -10 -6 -43 rlinecurve
          -8 -74 -60 -61 -9 -75 rrcurveto
          -59 -7 94 -2 48 hhcurveto
          5 9 8 9 4 hvcurveto
          -12 -2 -21 0 -10 1 -29 3 -21 3 4 38 9 72 55 59 8 72 5 41 -33 21 -36 8 37 9 39 19 27 22 60 46 19 92 37 64 26 43 33 15 51 4 rrcurveto
          16 1 20 -1 10 -2 rrcurveto
          3 -4 6 -3 4 vhcurveto
          -5 6 -38 -2 -13 -1 -111 -16 -58 -72 -28 -71 -8 -20 -7 -20 -9 -19 -34 -70 -46 -30 -82 -1 rrcurveto
          endchar
        </CharString>
        <CharString name="braceright">
          122 560 -20 hstem
          412 217 rmoveto
          13 13 -52 5 -43 10 5 44 rlinecurve
          8 73 60 61 9 75 rrcurveto
          59 7 -94 3 -48 hhcurveto
          -5 -8 -9 -9 -5 hvcurveto
          13 2 20 0 10 -1 30 -3 20 -3 -4 -38 -8 -72 -55 -58 -9 -73 -5 -41 33 -21 36 -8 -37 -9 -38 -19 -28 -21 -59 -47 -20 -92 -37 -64 -25 -43 -34 -15 -50 -4 rrcurveto
          -16 -1 -21 1 -10 2 1 -3 3 -6 3 -4 5 -6 38 2 13 2 111 15 58 72 28 71 8 20 8 20 9 19 33 70 46 30 83 1 rrcurveto
          endchar
        </CharString>
        <CharString name="bracketleft">
          73 -104 32 hstem
          369 590 rmoveto
          -57 -37 -99 -201 -110 -253 -94 -203 rlinecurve
          69 109 -2 6 62 hvcurveto
          54 31 -67 -7 -118 3 -55 1 rlinecurve
          26 51 192 401 86 154 9 17 23 12 16 1 27 2 32 -1 40 -9 47 36 rcurveline
          -79 -55 9 -11 -58 hvcurveto
          endchar
        </CharString>
        <CharString name="bracketright">
          108 560 32 hstem
          137 -102 rmoveto
          57 37 99 200 110 254 94 203 rlinecurve
          -69 -109 2 -6 -62 hvcurveto
          -53 -31 rlineto
          6 66 118 -3 55 hhcurveto
          -25 -51 -192 -401 -86 -154 -10 -17 -23 -12 -15 -1 -28 -2 -31 1 -40 9 -48 -36 rcurveline
          79 55 -9 11 58 hvcurveto
          endchar
        </CharString>
        <CharString name="breve">
          -61 320 15 hstem
          266 368 -82 callgsubr
        </CharString>
        <CharString name="brokenbar">
          84 21 -21 577 -20 hstem
          161 242 rmoveto
          -45 -111 -41 -101 -11 -30 rrcurveto
          42 hlineto
          98 244 rlineto
          43 105 rmoveto
          47 115 43 101 8 12 rrcurveto
          -47 hlineto
          -13 -34 -38 -92 -42 -102 rrcurveto
          endchar
        </CharString>
        <CharString name="bullet">
          186 118 -21 375 -20 hstem
          461 284 rmoveto
          104 18 -78 84 -113 hhcurveto
          -114 -107 -84 -104 -18 hvcurveto
          -103 -18 78 -84 114 hhcurveto
          114 106 84 103 18 hvcurveto
          endchar
        </CharString>
        <CharString name="c">
          58 callsubr
          hstem
          -90 callsubr
          endchar
        </CharString>
        <CharString name="c.alt">
          -17 278 -20 hstem
          309 127 rmoveto
          -26 -36 -74 -50 -59 -19 -50 -17 -59 3 25 76 15 48 36 59 35 36 27 30 56 23 15 -48 4 -14 1 -17 -3 -12 34 callgsubr
          -40 -56 -67 -120 122 2 74 2 107 49 41 56 4 6 11 15 -7 7 rrcurveto
          endchar
        </CharString>
        <CharString name="c.begin">
          -51 278 -20 hstem
          -90 callsubr
          endchar
        </CharString>
        <CharString name="c.end">
          92 278 -20 hstem
          66 84 rmoveto
          14 48 37 59 35 36 rrcurveto
          12 11 33 22 24 hhcurveto
          28 10 -46 -26 -6 hvcurveto
          -2 49 callsubr
          31 15 14 53 -57 hhcurveto
          -26 -43 -20 -13 -21 hvcurveto
          -84 -49 -66 -112 20 -97 15 -71 99 3 52 9 74 13 71 40 49 50 16 17 30 41 17 38 5 15 5 15 -8 9 rrcurveto
          -5 -2 -7 -18 -6 vvcurveto
          6 -24 -37 -43 -17 -18 -58 -60 -83 -20 -48 -9 -99 -18 -59 34 29 102 rrcurveto
          endchar
        </CharString>
        <CharString name="c_t">
          147 82 callsubr
          1 15 hstem
          529 442 rmoveto
          -38 callgsubr
          -25 -56 -26 -47 -27 -36 rrcurveto
          -10 -27 1 -1 -11 -32 -32 11 1 37 5 16 hhcurveto
          -65 -84 -67 -103 -101 -33 -50 -17 -45 -2 25 76 15 48 36 59 35 36 rrcurveto
          12 11 33 22 24 hhcurveto
          28 10 -46 -26 -6 hvcurveto
          34 callgsubr
          -40 -56 -67 -120 122 2 134 10 95 148 73 89 rrcurveto
          0 -42 -98 -12 -23 vhcurveto
          -12 -24 -27 -51 -14 callsubr
        </CharString>
</ttFont>
